  0
SECTION
  2
HEADER
  9
$ACADVER
  1
AC1024
  9
$ACADMAINTVER
 70
     6
  9
$DWGCODEPAGE
  3
MAC-ROMAN
  9
$INSBASE
 10
0.0
 20
0.0
 30
0.0
  9
$EXTMIN
 10
1.000000000000000E+20
 20
1.000000000000000E+20
 30
1.000000000000000E+20
  9
$EXTMAX
 10
-1.000000000000000E+20
 20
-1.000000000000000E+20
 30
-1.000000000000000E+20
  9
$LIMMIN
 10
0.0
 20
0.0
  9
$LIMMAX
 10
420.0
 20
297.0
  9
$ORTHOMODE
 70
     0
  9
$REGENMODE
 70
     1
  9
$FILLMODE
 70
     1
  9
$QTEXTMODE
 70
     0
  9
$MIRRTEXT
 70
     1
  9
$LTSCALE
 40
1.0
  9
$ATTMODE
 70
     1
  9
$TEXTSIZE
 40
2.5
  9
$TRACEWID
 40
1.0
  9
$TEXTSTYLE
  7
Standard
  9
$CLAYER
  8
0
  9
$CELTYPE
  6
ByLayer
  9
$CECOLOR
 62
   256
  9
$CELTSCALE
 40
1.0
  9
$DISPSILH
 70
     0
  9
$DIMSCALE
 40
1.0
  9
$DIMASZ
 40
2.5
  9
$DIMEXO
 40
0.625
  9
$DIMDLI
 40
3.75
  9
$DIMRND
 40
0.0
  9
$DIMDLE
 40
0.0
  9
$DIMEXE
 40
1.25
  9
$DIMTP
 40
0.0
  9
$DIMTM
 40
0.0
  9
$DIMTXT
 40
2.5
  9
$DIMCEN
 40
2.5
  9
$DIMTSZ
 40
0.0
  9
$DIMTOL
 70
     0
  9
$DIMLIM
 70
     0
  9
$DIMTIH
 70
     0
  9
$DIMTOH
 70
     0
  9
$DIMSE1
 70
     0
  9
$DIMSE2
 70
     0
  9
$DIMTAD
 70
     1
  9
$DIMZIN
 70
     8
  9
$DIMBLK
  1

  9
$DIMASO
 70
     1
  9
$DIMSHO
 70
     1
  9
$DIMPOST
  1

  9
$DIMAPOST
  1

  9
$DIMALT
 70
     0
  9
$DIMALTD
 70
     3
  9
$DIMALTF
 40
0.03937007874016
  9
$DIMLFAC
 40
1.0
  9
$DIMTOFL
 70
     1
  9
$DIMTVP
 40
0.0
  9
$DIMTIX
 70
     0
  9
$DIMSOXD
 70
     0
  9
$DIMSAH
 70
     0
  9
$DIMBLK1
  1

  9
$DIMBLK2
  1

  9
$DIMSTYLE
  2
ISO-25
  9
$DIMCLRD
 70
     0
  9
$DIMCLRE
 70
     0
  9
$DIMCLRT
 70
     0
  9
$DIMTFAC
 40
1.0
  9
$DIMGAP
 40
0.625
  9
$DIMJUST
 70
     0
  9
$DIMSD1
 70
     0
  9
$DIMSD2
 70
     0
  9
$DIMTOLJ
 70
     0
  9
$DIMTZIN
 70
     8
  9
$DIMALTZ
 70
     0
  9
$DIMALTTZ
 70
     0
  9
$DIMUPT
 70
     0
  9
$DIMDEC
 70
     2
  9
$DIMTDEC
 70
     2
  9
$DIMALTU
 70
     2
  9
$DIMALTTD
 70
     3
  9
$DIMTXSTY
  7
Standard
  9
$DIMAUNIT
 70
     0
  9
$DIMADEC
 70
     0
  9
$DIMALTRND
 40
0.0
  9
$DIMAZIN
 70
     0
  9
$DIMDSEP
 70
    44
  9
$DIMATFIT
 70
     3
  9
$DIMFRAC
 70
     0
  9
$DIMLDRBLK
  1

  9
$DIMLUNIT
 70
     2
  9
$DIMLWD
 70
    -2
  9
$DIMLWE
 70
    -2
  9
$DIMTMOVE
 70
     0
  9
$DIMFXL
 40
1.0
  9
$DIMFXLON
 70
     0
  9
$DIMJOGANG
 40
0.7853981633974483
  9
$DIMTFILL
 70
     0
  9
$DIMTFILLCLR
 70
     0
  9
$DIMARCSYM
 70
     0
  9
$DIMLTYPE
  6

  9
$DIMLTEX1
  6

  9
$DIMLTEX2
  6

  9
$DIMTXTDIRECTION
 70
     0
  9
$LUNITS
 70
     2
  9
$LUPREC
 70
     4
  9
$SKETCHINC
 40
1.0
  9
$FILLETRAD
 40
0.0
  9
$AUNITS
 70
     0
  9
$AUPREC
 70
     0
  9
$MENU
  1
.
  9
$ELEVATION
 40
0.0
  9
$PELEVATION
 40
0.0
  9
$THICKNESS
 40
0.0
  9
$LIMCHECK
 70
     0
  9
$CHAMFERA
 40
0.0
  9
$CHAMFERB
 40
0.0
  9
$CHAMFERC
 40
0.0
  9
$CHAMFERD
 40
0.0
  9
$SKPOLY
 70
     0
  9
$TDCREATE
 40
2459661.722983391
  9
$TDUCREATE
 40
2459661.389650058
  9
$TDUPDATE
 40
2459661.722983449
  9
$TDUUPDATE
 40
2459661.389650116
  9
$TDINDWG
 40
0.0000000116
  9
$TDUSRTIMER
 40
0.0000000116
  9
$USRTIMER
 70
     1
  9
$ANGBASE
 50
0.0
  9
$ANGDIR
 70
     0
  9
$PDMODE
 70
     0
  9
$PDSIZE
 40
0.0
  9
$PLINEWID
 40
0.0
  9
$SPLFRAME
 70
     0
  9
$SPLINETYPE
 70
     6
  9
$SPLINESEGS
 70
     8
  9
$HANDSEED
  5
234
  9
$SURFTAB1
 70
     6
  9
$SURFTAB2
 70
     6
  9
$SURFTYPE
 70
     6
  9
$SURFU
 70
     6
  9
$SURFV
 70
     6
  9
$UCSBASE
  2

  9
$UCSNAME
  2

  9
$UCSORG
 10
0.0
 20
0.0
 30
0.0
  9
$UCSXDIR
 10
1.0
 20
0.0
 30
0.0
  9
$UCSYDIR
 10
0.0
 20
1.0
 30
0.0
  9
$UCSORTHOREF
  2

  9
$UCSORTHOVIEW
 70
     0
  9
$UCSORGTOP
 10
0.0
 20
0.0
 30
0.0
  9
$UCSORGBOTTOM
 10
0.0
 20
0.0
 30
0.0
  9
$UCSORGLEFT
 10
0.0
 20
0.0
 30
0.0
  9
$UCSORGRIGHT
 10
0.0
 20
0.0
 30
0.0
  9
$UCSORGFRONT
 10
0.0
 20
0.0
 30
0.0
  9
$UCSORGBACK
 10
0.0
 20
0.0
 30
0.0
  9
$PUCSBASE
  2

  9
$PUCSNAME
  2

  9
$PUCSORG
 10
0.0
 20
0.0
 30
0.0
  9
$PUCSXDIR
 10
1.0
 20
0.0
 30
0.0
  9
$PUCSYDIR
 10
0.0
 20
1.0
 30
0.0
  9
$PUCSORTHOREF
  2

  9
$PUCSORTHOVIEW
 70
     0
  9
$PUCSORGTOP
 10
0.0
 20
0.0
 30
0.0
  9
$PUCSORGBOTTOM
 10
0.0
 20
0.0
 30
0.0
  9
$PUCSORGLEFT
 10
0.0
 20
0.0
 30
0.0
  9
$PUCSORGRIGHT
 10
0.0
 20
0.0
 30
0.0
  9
$PUCSORGFRONT
 10
0.0
 20
0.0
 30
0.0
  9
$PUCSORGBACK
 10
0.0
 20
0.0
 30
0.0
  9
$USERI1
 70
     0
  9
$USERI2
 70
     0
  9
$USERI3
 70
     0
  9
$USERI4
 70
     0
  9
$USERI5
 70
     0
  9
$USERR1
 40
0.0
  9
$USERR2
 40
0.0
  9
$USERR3
 40
0.0
  9
$USERR4
 40
0.0
  9
$USERR5
 40
0.0
  9
$WORLDVIEW
 70
     1
  9
$SHADEDGE
 70
     3
  9
$SHADEDIF
 70
    70
  9
$TILEMODE
 70
     1
  9
$MAXACTVP
 70
    64
  9
$PINSBASE
 10
0.0
 20
0.0
 30
0.0
  9
$PLIMCHECK
 70
     0
  9
$PEXTMIN
 10
1.000000000000000E+20
 20
1.000000000000000E+20
 30
1.000000000000000E+20
  9
$PEXTMAX
 10
-1.000000000000000E+20
 20
-1.000000000000000E+20
 30
-1.000000000000000E+20
  9
$PLIMMIN
 10
0.0
 20
0.0
  9
$PLIMMAX
 10
420.0
 20
297.0
  9
$UNITMODE
 70
     0
  9
$VISRETAIN
 70
     1
  9
$PLINEGEN
 70
     0
  9
$PSLTSCALE
 70
     1
  9
$TREEDEPTH
 70
  3020
  9
$CMLSTYLE
  2
Standard
  9
$CMLJUST
 70
     0
  9
$CMLSCALE
 40
20.0
  9
$PROXYGRAPHICS
 70
     1
  9
$MEASUREMENT
 70
     1
  9
$CELWEIGHT
370
    -1
  9
$ENDCAPS
280
     0
  9
$JOINSTYLE
280
     0
  9
$LWDISPLAY
290
     0
  9
$INSUNITS
 70
     4
  9
$HYPERLINKBASE
  1

  9
$STYLESHEET
  1

  9
$XEDIT
290
     1
  9
$CEPSNTYPE
380
     0
  9
$PSTYLEMODE
290
     1
  9
$FINGERPRINTGUID
  2
{5a3e0495-bd7d-6d4c-86fe-359de3fd8967}
  9
$VERSIONGUID
  2
{FAEB1C32-E019-11D5-929B-00C0DF256EC4}
  9
$EXTNAMES
290
     1
  9
$PSVPSCALE
 40
0.0
  9
$OLESTARTUP
290
     0
  9
$SORTENTS
280
   127
  9
$INDEXCTL
280
     0
  9
$HIDETEXT
280
     1
  9
$XCLIPFRAME
280
     2
  9
$HALOGAP
280
     0
  9
$OBSCOLOR
 70
   257
  9
$OBSLTYPE
280
     0
  9
$INTERSECTIONDISPLAY
280
     0
  9
$INTERSECTIONCOLOR
 70
   257
  9
$DIMASSOC
280
     2
  9
$PROJECTNAME
  1

  9
$CAMERADISPLAY
290
     0
  9
$LENSLENGTH
 40
50.0
  9
$CAMERAHEIGHT
 40
0.0
  9
$STEPSPERSEC
 40
2.0
  9
$STEPSIZE
 40
6.0
  9
$3DDWFPREC
 40
2.0
  9
$PSOLWIDTH
 40
5.0
  9
$PSOLHEIGHT
 40
80.0
  9
$LOFTANG1
 40
1.570796326794897
  9
$LOFTANG2
 40
1.570796326794897
  9
$LOFTMAG1
 40
0.0
  9
$LOFTMAG2
 40
0.0
  9
$LOFTPARAM
 70
     7
  9
$LOFTNORMALS
280
     1
  9
$LATITUDE
 40
37.795
  9
$LONGITUDE
 40
-122.394
  9
$NORTHDIRECTION
 40
0.0
  9
$TIMEZONE
 70
 -8000
  9
$LIGHTGLYPHDISPLAY
280
     1
  9
$TILEMODELIGHTSYNCH
280
     1
  9
$CMATERIAL
347
44
  9
$SOLIDHIST
280
     0
  9
$SHOWHIST
280
     1
  9
$DWFFRAME
280
     2
  9
$DGNFRAME
280
     2
  9
$REALWORLDSCALE
290
     1
  9
$INTERFERECOLOR
 62
   256
  9
$CSHADOW
280
     0
  9
$SHADOWPLANELOCATION
 40
0.0
  0
ENDSEC
  0
SECTION
  2
CLASSES
  0
CLASS
  1
ACDBDICTIONARYWDFLT
  2
AcDbDictionaryWithDefault
  3
ObjectDBX Classes
 90
        0
 91
        3
280
     0
281
     0
  0
CLASS
  1
VISUALSTYLE
  2
AcDbVisualStyle
  3
ObjectDBX Classes
 90
     4095
 91
        3
280
     0
281
     0
  0
CLASS
  1
MATERIAL
  2
AcDbMaterial
  3
ObjectDBX Classes
 90
     1153
 91
        3
280
     0
281
     0
  0
CLASS
  1
SCALE
  2
AcDbScale
  3
ObjectDBX Classes
 90
     1153
 91
        3
280
     0
281
     0
  0
CLASS
  1
TABLESTYLE
  2
AcDbTableStyle
  3
ObjectDBX Classes
 90
     4095
 91
        3
280
     0
281
     0
  0
CLASS
  1
MLEADERSTYLE
  2
AcDbMLeaderStyle
  3
ACDB_MLEADERSTYLE_CLASS
 90
     4095
 91
        3
280
     0
281
     0
  0
CLASS
  1
SUN
  2
AcDbSun
  3
SCENEOE
 90
     1153
 91
        3
280
     0
281
     0
  0
CLASS
  1
DICTIONARYVAR
  2
AcDbDictionaryVar
  3
ObjectDBX Classes
 90
        0
 91
        3
280
     0
281
     0
  0
CLASS
  1
CELLSTYLEMAP
  2
AcDbCellStyleMap
  3
ObjectDBX Classes
 90
     1152
 91
        3
280
     0
281
     0
  0
ENDSEC
  0
SECTION
  2
TABLES
  0
TABLE
  2
VPORT
  5
8
330
0
100
AcDbSymbolTable
 70
     1
  0
VPORT
  5
29
330
8
100
AcDbSymbolTableRecord
100
AcDbViewportTableRecord
  2
*Active
 70
     0
 10
0.0
 20
0.0
 11
1.0
 21
1.0
 12
344.1869158878504
 22
148.5
 13
0.0
 23
0.0
 14
10.0
 24
10.0
 15
10.0
 25
10.0
 16
0.0
 26
0.0
 36
1.0
 17
0.0
 27
0.0
 37
0.0
 40
297.0
 41
1.972972972850329
 42
50.0
 43
0.0
 44
0.0
 50
0.0
 51
0.0
 71
     0
 72
   100
 73
     1
 74
     3
 75
     0
 76
     0
 77
     0
 78
     0
281
     0
 65
     1
110
0.0
120
0.0
130
0.0
111
1.0
121
0.0
131
0.0
112
0.0
122
1.0
132
0.0
 79
     0
146
0.0
348
2F
 60
     3
 61
     5
292
     1
282
     1
141
0.0
142
0.0
 63
   250
361
5D
  0
ENDTAB
  0
TABLE
  2
LTYPE
  5
5
330
0
100
AcDbSymbolTable
 70
     1
  0
LTYPE
  5
14
330
5
100
AcDbSymbolTableRecord
100
AcDbLinetypeTableRecord
  2
ByBlock
 70
     0
  3

 72
    65
 73
     0
 40
0.0
  0
LTYPE
  5
15
330
5
100
AcDbSymbolTableRecord
100
AcDbLinetypeTableRecord
  2
ByLayer
 70
     0
  3

 72
    65
 73
     0
 40
0.0
  0
LTYPE
  5
16
330
5
100
AcDbSymbolTableRecord
100
AcDbLinetypeTableRecord
  2
Continuous
 70
     0
  3
Solid line
 72
    65
 73
     0
 40
0.0
  0
ENDTAB
  0
TABLE
  2
LAYER
  5
2
330
0
100
AcDbSymbolTable
 70
     2
  0
LAYER
  5
10
330
2
100
AcDbSymbolTableRecord
100
AcDbLayerTableRecord
  2
0
 70
     0
 62
     7
  6
Continuous
370
    -3
390
F
347
46
  0
LAYER
  5
5E
330
2
100
AcDbSymbolTableRecord
100
AcDbLayerTableRecord
  2
草图平面 01
 70
     0
 62
     7
  6
Continuous
370
    -3
390
F
347
46
  0
ENDTAB
  0
TABLE
  2
STYLE
  5
3
330
0
100
AcDbSymbolTable
 70
     1
  0
STYLE
  5
11
330
3
100
AcDbSymbolTableRecord
100
AcDbTextStyleTableRecord
  2
Standard
 70
     0
 40
0.0
 41
1.0
 50
0.0
 71
     0
 42
2.5
  3
txt
  4

  0
ENDTAB
  0
TABLE
  2
VIEW
  5
6
330
0
100
AcDbSymbolTable
 70
     0
  0
ENDTAB
  0
TABLE
  2
UCS
  5
7
330
0
100
AcDbSymbolTable
 70
     0
  0
ENDTAB
  0
TABLE
  2
APPID
  5
9
330
0
100
AcDbSymbolTable
 70
     1
  0
APPID
  5
12
330
9
100
AcDbSymbolTableRecord
100
AcDbRegAppTableRecord
  2
ACAD
 70
     0
  0
ENDTAB
  0
TABLE
  2
DIMSTYLE
  5
A
330
0
100
AcDbSymbolTable
 70
     1
100
AcDbDimStyleTable
  0
DIMSTYLE
105
27
330
A
100
AcDbSymbolTableRecord
100
AcDbDimStyleTableRecord
  2
ISO-25
 70
     0
 41
2.5
 42
0.625
 43
3.75
 44
1.25
 73
     0
 74
     0
 77
     1
 78
     8
140
2.5
141
2.5
143
0.03937007874016
147
0.625
171
     3
172
     1
178
     0
271
     2
272
     2
274
     3
278
    44
283
     0
284
     8
340
11
  0
ENDTAB
  0
TABLE
  2
BLOCK_RECORD
  5
1
330
0
100
AcDbSymbolTable
 70
     1
  0
BLOCK_RECORD
  5
1F
330
1
100
AcDbSymbolTableRecord
100
AcDbBlockTableRecord
  2
*Model_Space
340
22
 70
     0
280
     1
281
     0
  0
BLOCK_RECORD
  5
1B
330
1
100
AcDbSymbolTableRecord
100
AcDbBlockTableRecord
  2
*Paper_Space
340
1E
 70
     0
280
     1
281
     0
  0
BLOCK_RECORD
  5
23
330
1
100
AcDbSymbolTableRecord
100
AcDbBlockTableRecord
  2
*Paper_Space0
340
26
 70
     0
280
     1
281
     0
  0
ENDTAB
  0
ENDSEC
  0
SECTION
  2
BLOCKS
  0
BLOCK
  5
20
330
1F
100
AcDbEntity
  8
0
100
AcDbBlockBegin
  2
*Model_Space
 70
     0
 10
0.0
 20
0.0
 30
0.0
  3
*Model_Space
  1

  0
ENDBLK
  5
21
330
1F
100
AcDbEntity
  8
0
100
AcDbBlockEnd
  0
BLOCK
  5
1C
330
1B
100
AcDbEntity
 67
     1
  8
0
100
AcDbBlockBegin
  2
*Paper_Space
 70
     0
 10
0.0
 20
0.0
 30
0.0
  3
*Paper_Space
  1

  0
ENDBLK
  5
1D
330
1B
100
AcDbEntity
 67
     1
  8
0
100
AcDbBlockEnd
  0
BLOCK
  5
24
330
23
100
AcDbEntity
  8
0
100
AcDbBlockBegin
  2
*Paper_Space0
 70
     0
 10
0.0
 20
0.0
 30
0.0
  3
*Paper_Space0
  1

  0
ENDBLK
  5
25
330
23
100
AcDbEntity
  8
0
100
AcDbBlockEnd
  0
ENDSEC
  0
SECTION
  2
ENTITIES
  0
LINE
  5
5F
330
1F
100
AcDbEntity
  8
草图平面 01
100
AcDbLine
 10
126.8247689079495
 20
13.23673023265563
 30
0.0
 11
123.7206189079494
 21
13.23673023265563
 31
0.0
  0
LINE
  5
60
330
1F
100
AcDbEntity
  8
草图平面 01
100
AcDbLine
 10
77.09396754741675
 20
23.11231147651561
 30
0.0
 11
77.09396754741677
 21
20.12821147651561
 31
0.0
  0
LINE
  5
61
330
1F
100
AcDbEntity
  8
草图平面 01
100
AcDbLine
 10
129.4070428995527
 20
23.11822497685899
 30
0.0
 11
128.9782928995529
 21
23.11822497685899
 31
0.0
  0
LINE
  5
62
330
1F
100
AcDbEntity
  8
草图平面 01
100
AcDbLine
 10
112.2515443416685
 20
23.12949374313467
 30
0.0
 11
111.3972187170387
 21
23.12907747612335
 31
0.0
  0
LINE
  5
63
330
1F
100
AcDbEntity
  8
草图平面 01
100
AcDbLine
 10
105.3947187170386
 20
16.75785247612334
 30
0.0
 11
105.6005187170386
 21
16.75785247612334
 31
0.0
  0
LINE
  5
64
330
1F
100
AcDbEntity
  8
草图平面 01
100
AcDbLine
 10
112.2515443416685
 20
5.979493743134661
 30
0.0
 11
111.3972187170388
 21
5.979077476123346
 31
0.0
  0
LINE
  5
65
330
1F
100
AcDbEntity
  8
草图平面 01
100
AcDbLine
 10
94.26281753346332
 20
23.12043093531393
 30
0.0
 11
94.26281753346336
 21
20.95953093531394
 31
0.0
  0
LINE
  5
66
330
1F
100
AcDbEntity
  8
草图平面 01
100
AcDbLine
 10
68.51896754741674
 20
5.962311476515604
 30
0.0
 11
69.37646754741664
 21
5.962311476515604
 31
0.0
  0
LINE
  5
67
330
1F
100
AcDbEntity
  8
草图平面 01
100
AcDbLine
 10
77.98244540303939
 20
5.965646468149497
 30
0.0
 11
77.09396754741677
 21
5.962311476515603
 31
0.0
  0
LINE
  5
68
330
1F
100
AcDbEntity
  8
草图平面 01
100
AcDbLine
 10
86.54531753346319
 20
5.970430935313925
 30
0.0
 11
85.69994540303956
 21
5.965646468149497
 31
0.0
  0
LINE
  5
69
330
1F
100
AcDbEntity
  8
草图平面 01
100
AcDbLine
 10
105.6005187170386
 20
15.90035247612335
 30
0.0
 11
105.3947187170386
 21
15.90035247612335
 31
0.0
  0
LINE
  5
6A
330
1F
100
AcDbEntity
  8
草图平面 01
100
AcDbLine
 10
97.70944412224287
 20
15.49596059134118
 30
0.0
 11
96.81764412224288
 21
15.49596059134118
 31
0.0
  0
LINE
  5
6B
330
1F
100
AcDbEntity
  8
草图平面 01
100
AcDbLine
 10
103.6797187170386
 20
7.085252476123344
 30
0.0
 11
103.6797187170386
 21
5.979077476123344
 31
0.0
  0
LINE
  5
6C
330
1F
100
AcDbEntity
  8
草图平面 01
100
AcDbLine
 10
97.70944412224281
 20
9.973660591341176
 30
0.0
 11
96.81764412224288
 21
9.973660591341176
 31
0.0
  0
LINE
  5
6D
330
1F
100
AcDbEntity
  8
草图平面 01
100
AcDbLine
 10
94.26281753346335
 20
16.67203093531392
 30
0.0
 11
94.26281753346335
 21
15.26573093531393
 31
0.0
  0
LINE
  5
6E
330
1F
100
AcDbEntity
  8
草图平面 01
100
AcDbLine
 10
86.54531753346319
 20
23.12043093531393
 30
0.0
 11
85.69994540303952
 21
23.1156464681495
 31
0.0
  0
LINE
  5
6F
330
1F
100
AcDbEntity
  8
草图平面 01
100
AcDbLine
 10
95.10264412224286
 20
13.78096059134118
 30
0.0
 11
95.10264412224288
 21
12.54616059134118
 31
0.0
  0
LINE
  5
70
330
1F
100
AcDbEntity
  8
草图平面 01
100
AcDbLine
 10
82.76729540303954
 20
12.6455714681495
 30
0.0
 11
83.98494540303955
 21
12.6455714681495
 31
0.0
  0
LINE
  5
71
330
1F
100
AcDbEntity
  8
草图平面 01
100
AcDbLine
 10
129.4070428995527
 20
5.968224976858985
 30
0.0
 11
128.9782928995528
 21
5.968224976858985
 31
0.0
  0
LINE
  5
72
330
1F
100
AcDbEntity
  8
草图平面 01
100
AcDbLine
 10
120.8222689079493
 20
7.182780232655627
 30
0.0
 11
120.8222689079492
 21
5.973705232655627
 31
0.0
  0
LINE
  5
73
330
1F
100
AcDbEntity
  8
草图平面 01
100
AcDbLine
 10
135.4095428995529
 20
12.96542497685901
 30
0.0
 11
132.9913928995529
 21
12.96542497685901
 31
0.0
  0
LINE
  5
74
330
1F
100
AcDbEntity
  8
草图平面 01
100
AcDbLine
 10
103.6797187170386
 20
23.12907747612334
 30
0.0
 11
103.6797187170386
 21
18.47285247612335
 31
0.0
  0
LINE
  5
75
330
1F
100
AcDbEntity
  8
草图平面 01
100
AcDbLine
 10
128.5397689079494
 20
23.12370523265563
 30
0.0
 11
128.9782928995529
 21
23.11822497685899
 31
0.0
  0
LINE
  5
76
330
1F
100
AcDbEntity
  8
草图平面 01
100
AcDbLine
 10
79.69744540303938
 20
10.5704214681495
 30
0.0
 11
80.91509540303936
 21
10.5704214681495
 31
0.0
  0
LINE
  5
77
330
1F
100
AcDbEntity
  8
草图平面 01
100
AcDbLine
 10
0.7708921952804624
 20
18.41912497685901
 30
0.0
 11
0.7708921952804676
 21
14.68042497685901
 31
0.0
  0
LINE
  5
78
330
1F
100
AcDbEntity
  8
草图平面 01
100
AcDbLine
 10
0.7708921952804676
 20
10.39292497685901
 30
0.0
 11
0.7708921952804728
 21
5.968224976858985
 31
0.0
  0
LINE
  5
79
330
1F
100
AcDbEntity
  8
草图平面 01
100
AcDbLine
 10
8.48839219528063
 20
6.379824976859013
 30
0.0
 11
8.48839219528063
 21
5.968224976858985
 31
0.0
  0
LINE
  5
7A
330
1F
100
AcDbEntity
  8
草图平面 01
100
AcDbLine
 10
17.07316618688411
 20
7.182780232655626
 30
0.0
 11
17.07316618688411
 21
5.973705232655626
 31
0.0
  0
LINE
  5
7B
330
1F
100
AcDbEntity
  8
草图平面 01
100
AcDbLine
 10
8.488392195280623
 20
23.11822497685899
 30
0.0
 11
8.917142195280558
 21
23.11822497685899
 31
0.0
  0
LINE
  5
7C
330
1F
100
AcDbEntity
  8
草图平面 01
100
AcDbLine
 10
8.488392195280623
 20
23.11822497685899
 30
0.0
 11
8.488392195280623
 21
18.69352497685901
 31
0.0
  0
LINE
  5
7D
330
1F
100
AcDbEntity
  8
草图平面 01
100
AcDbLine
 10
0.3421421952805558
 20
5.968224976858985
 30
0.0
 11
0.7708921952804728
 21
5.968224976858985
 31
0.0
  0
LINE
  5
7E
330
1F
100
AcDbEntity
  8
草图平面 01
100
AcDbLine
 10
6.773392195280628
 20
16.97852497685901
 30
0.0
 11
4.355242195280622
 21
16.97852497685901
 31
0.0
  0
LINE
  5
7F
330
1F
100
AcDbEntity
  8
草图平面 01
100
AcDbLine
 10
0.7708921952804919
 20
23.11822497685899
 30
0.0
 11
0.3421421952805558
 21
23.11822497685899
 31
0.0
  0
LINE
  5
80
330
1F
100
AcDbEntity
  8
草图平面 01
100
AcDbLine
 10
4.355242195280659
 20
8.094824976859012
 30
0.0
 11
6.773392195280628
 21
8.094824976859012
 31
0.0
  0
LINE
  5
81
330
1F
100
AcDbEntity
  8
草图平面 01
100
AcDbLine
 10
4.904042195280462
 20
20.13412497685901
 30
0.0
 11
2.485892195280464
 21
20.13412497685901
 31
0.0
  0
LINE
  5
82
330
1F
100
AcDbEntity
  8
草图平面 01
100
AcDbLine
 10
6.773392195280628
 20
8.952324976859012
 30
0.0
 11
4.355242195280659
 21
8.952324976859014
 31
0.0
  0
LINE
  5
83
330
1F
100
AcDbEntity
  8
草图平面 01
100
AcDbLine
 10
2.485892195280467
 20
20.99162497685902
 30
0.0
 11
4.904042195280462
 21
20.991624976859
 31
0.0
  0
LINE
  5
84
330
1F
100
AcDbEntity
  8
草图平面 01
100
AcDbLine
 10
2.485892195280464
 20
12.96542497685901
 30
0.0
 11
4.904042195280462
 21
12.96542497685901
 31
0.0
  0
LINE
  5
85
330
1F
100
AcDbEntity
  8
草图平面 01
100
AcDbLine
 10
0.3421421952805558
 20
5.968224976858985
 30
0.0
 11
0.3421421952805558
 21
23.11822497685899
 31
0.0
  0
LINE
  5
86
330
1F
100
AcDbEntity
  8
草图平面 01
100
AcDbLine
 10
8.48839219528063
 20
5.968224976858985
 30
0.0
 11
8.917142195280565
 21
5.968224976858985
 31
0.0
  0
LINE
  5
87
330
1F
100
AcDbEntity
  8
草图平面 01
100
AcDbLine
 10
8.48839219528063
 20
5.968224976858985
 30
0.0
 11
8.917142195280565
 21
5.968224976858985
 31
0.0
  0
LINE
  5
88
330
1F
100
AcDbEntity
  8
草图平面 01
100
AcDbLine
 10
4.355242195280622
 20
16.12102497685902
 30
0.0
 11
6.773392195280632
 21
16.12102497685902
 31
0.0
  0
LINE
  5
89
330
1F
100
AcDbEntity
  8
草图平面 01
100
AcDbLine
 10
0.7708921952804919
 20
23.11822497685899
 30
0.0
 11
0.7708921952804658
 21
22.70662497685912
 31
0.0
  0
LINE
  5
8A
330
1F
100
AcDbEntity
  8
草图平面 01
100
AcDbLine
 10
8.48839219528063
 20
14.40602497685901
 30
0.0
 11
8.488392195280623
 21
10.66732497685901
 31
0.0
  0
LINE
  5
8B
330
1F
100
AcDbEntity
  8
草图平面 01
100
AcDbLine
 10
4.904042195280462
 20
12.10792497685902
 30
0.0
 11
2.485892195280474
 21
12.10792497685901
 31
0.0
  0
LINE
  5
8C
330
1F
100
AcDbEntity
  8
草图平面 01
100
AcDbLine
 10
9.355666186883937
 20
17.62713023265564
 30
0.0
 11
9.355666186883937
 21
14.95173023265563
 31
0.0
  0
LINE
  5
8D
330
1F
100
AcDbEntity
  8
草图平面 01
100
AcDbLine
 10
9.355666186883976
 20
23.12370523265563
 30
0.0
 11
8.917142195280558
 21
23.11822497685899
 31
0.0
  0
LINE
  5
8E
330
1F
100
AcDbEntity
  8
草图平面 01
100
AcDbLine
 10
32.5007163777948
 20
16.75785247612334
 30
0.0
 11
32.29491637779481
 21
16.75785247612334
 31
0.0
  0
LINE
  5
8F
330
1F
100
AcDbEntity
  8
草图平面 01
100
AcDbLine
 10
15.35816618688411
 20
9.755280232655627
 30
0.0
 11
12.25401618688414
 21
9.755280232655625
 31
0.0
  0
LINE
  5
90
330
1F
100
AcDbEntity
  8
草图平面 01
100
AcDbLine
 10
9.355666186883958
 20
10.66423023265563
 30
0.0
 11
9.355666186883958
 21
5.973705232655626
 31
0.0
  0
LINE
  5
91
330
1F
100
AcDbEntity
  8
草图平面 01
100
AcDbLine
 10
11.07066618688396
 20
20.19963023265564
 30
0.0
 11
14.17481618688395
 21
20.19963023265563
 31
0.0
  0
LINE
  5
92
330
1F
100
AcDbEntity
  8
草图平面 01
100
AcDbLine
 10
8.917142195280565
 20
5.968224976858985
 30
0.0
 11
9.355666186883958
 21
5.973705232655626
 31
0.0
  0
LINE
  5
93
330
1F
100
AcDbEntity
  8
草图平面 01
100
AcDbLine
 10
17.07316618688411
 20
23.12370523265563
 30
0.0
 11
17.07316618688411
 21
18.43318023265563
 31
0.0
  0
LINE
  5
94
330
1F
100
AcDbEntity
  8
草图平面 01
100
AcDbLine
 10
11.07066618688396
 20
13.23673023265563
 30
0.0
 11
14.17481618688395
 21
13.23673023265563
 31
0.0
  0
LINE
  5
95
330
1F
100
AcDbEntity
  8
草图平面 01
100
AcDbLine
 10
17.07316618688411
 20
23.12370523265563
 30
0.0
 11
17.92639075316488
 21
23.12949374313466
 31
0.0
  0
LINE
  5
96
330
1F
100
AcDbEntity
  8
草图平面 01
100
AcDbLine
 10
34.21571637779481
 20
23.12907747612334
 30
0.0
 11
34.21571637779481
 21
18.47285247612335
 31
0.0
  0
LINE
  5
97
330
1F
100
AcDbEntity
  8
草图平面 01
100
AcDbLine
 10
14.17481618688395
 20
12.37923023265563
 30
0.0
 11
11.07066618688396
 21
12.37923023265563
 31
0.0
  0
LINE
  5
98
330
1F
100
AcDbEntity
  8
草图平面 01
100
AcDbLine
 10
17.07316618688411
 20
14.14568023265563
 30
0.0
 11
17.07316618688411
 21
11.47028023265563
 31
0.0
  0
LINE
  5
99
330
1F
100
AcDbEntity
  8
草图平面 01
100
AcDbLine
 10
17.92639075316488
 20
23.12949374313466
 30
0.0
 11
17.92639075316488
 21
5.979493743134661
 31
0.0
  0
LINE
  5
9A
330
1F
100
AcDbEntity
  8
草图平面 01
100
AcDbLine
 10
12.25401618688411
 20
15.86068023265564
 30
0.0
 11
15.35816618688411
 21
15.86068023265564
 31
0.0
  0
LINE
  5
9B
330
1F
100
AcDbEntity
  8
草图平面 01
100
AcDbLine
 10
14.17481618688395
 20
19.34213023265565
 30
0.0
 11
11.07066618688396
 21
19.34213023265564
 31
0.0
  0
LINE
  5
9C
330
1F
100
AcDbEntity
  8
草图平面 01
100
AcDbLine
 10
12.25401618688414
 20
8.897780232655625
 30
0.0
 11
15.35816618688411
 21
8.897780232655625
 31
0.0
  0
LINE
  5
9D
330
1F
100
AcDbEntity
  8
草图平面 01
100
AcDbLine
 10
9.355666186883976
 20
23.12370523265563
 30
0.0
 11
9.355666186883958
 21
21.91463023265566
 31
0.0
  0
LINE
  5
9E
330
1F
100
AcDbEntity
  8
草图平面 01
100
AcDbLine
 10
15.35816618688411
 20
16.71818023265563
 30
0.0
 11
12.25401618688411
 21
16.71818023265563
 31
0.0
  0
LINE
  5
9F
330
1F
100
AcDbEntity
  8
草图平面 01
100
AcDbLine
 10
28.21321637779466
 20
13.20780247612334
 30
0.0
 11
28.41901637779466
 21
13.20780247612335
 31
0.0
  0
LINE
  5
A0
330
1F
100
AcDbEntity
  8
草图平面 01
100
AcDbLine
 10
26.49821637779467
 20
23.12907747612335
 30
0.0
 11
26.49821637779465
 21
22.02290247612336
 31
0.0
  0
LINE
  5
A1
330
1F
100
AcDbEntity
  8
草图平面 01
100
AcDbLine
 10
17.07316618688411
 20
5.973705232655626
 30
0.0
 11
17.92639075316488
 21
5.97949374313466
 31
0.0
  0
LINE
  5
A2
330
1F
100
AcDbEntity
  8
草图平面 01
100
AcDbLine
 10
34.21571637779481
 20
23.12907747612334
 30
0.0
 11
35.07529097259037
 21
23.11913559134118
 31
0.0
  0
LINE
  5
A3
330
1F
100
AcDbEntity
  8
草图平面 01
100
AcDbLine
 10
26.49821637779465
 20
17.73540247612335
 30
0.0
 11
26.49821637779465
 21
14.92280247612335
 31
0.0
  0
LINE
  5
A4
330
1F
100
AcDbEntity
  8
草图平面 01
100
AcDbLine
 10
53.91048969179383
 20
13.5030714681495
 30
0.0
 11
55.12813969179385
 21
13.5030714681495
 31
0.0
  0
LINE
  5
A5
330
1F
100
AcDbEntity
  8
草图平面 01
100
AcDbLine
 10
28.21321637779466
 20
20.30790247612333
 30
0.0
 11
28.41901637779466
 21
20.30790247612334
 31
0.0
  0
LINE
  5
A6
330
1F
100
AcDbEntity
  8
草图平面 01
100
AcDbLine
 10
34.21571637779481
 20
14.18535247612334
 30
0.0
 11
34.21571637779481
 21
11.37275247612335
 31
0.0
  0
LINE
  5
A7
330
1F
100
AcDbEntity
  8
草图平面 01
100
AcDbLine
 10
32.29491637779481
 20
15.90035247612335
 30
0.0
 11
32.5007163777948
 21
15.90035247612335
 31
0.0
  0
LINE
  5
A8
330
1F
100
AcDbEntity
  8
草图平面 01
100
AcDbLine
 10
25.64389075316488
 20
23.12949374313466
 30
0.0
 11
26.49821637779467
 21
23.12907747612335
 31
0.0
  0
LINE
  5
A9
330
1F
100
AcDbEntity
  8
草图平面 01
100
AcDbLine
 10
52.19548969179385
 20
23.1156464681495
 30
0.0
 11
52.19548969179383
 21
21.08337146814949
 31
0.0
  0
LINE
  5
AA
330
1F
100
AcDbEntity
  8
草图平面 01
100
AcDbLine
 10
28.41901637779466
 20
12.35030247612334
 30
0.0
 11
28.21321637779466
 21
12.35030247612335
 31
0.0
  0
LINE
  5
AB
330
1F
100
AcDbEntity
  8
草图平面 01
100
AcDbLine
 10
34.21571637779481
 20
7.085252476123345
 30
0.0
 11
34.21571637779481
 21
5.979077476123344
 31
0.0
  0
LINE
  5
AC
330
1F
100
AcDbEntity
  8
草图平面 01
100
AcDbLine
 10
32.5007163777948
 20
9.657752476123344
 30
0.0
 11
32.29491637779483
 21
9.657752476123344
 31
0.0
  0
LINE
  5
AD
330
1F
100
AcDbEntity
  8
草图平面 01
100
AcDbLine
 10
32.29491637779483
 20
8.800252476123346
 30
0.0
 11
32.5007163777948
 21
8.800252476123346
 31
0.0
  0
LINE
  5
AE
330
1F
100
AcDbEntity
  8
草图平面 01
100
AcDbLine
 10
28.41901637779466
 20
19.45040247612334
 30
0.0
 11
28.21321637779466
 21
19.45040247612334
 31
0.0
  0
LINE
  5
AF
330
1F
100
AcDbEntity
  8
草图平面 01
100
AcDbLine
 10
40.1859909725905
 20
15.49596059134118
 30
0.0
 11
41.07779097259051
 21
15.49596059134118
 31
0.0
  0
LINE
  5
B0
330
1F
100
AcDbEntity
  8
草图平面 01
100
AcDbLine
 10
25.64389075316488
 20
23.12949374313466
 30
0.0
 11
25.64389075316488
 21
5.979493743134661
 31
0.0
  0
LINE
  5
B1
330
1F
100
AcDbEntity
  8
草图平面 01
100
AcDbLine
 10
26.49821637779465
 20
10.63530247612335
 30
0.0
 11
26.49821637779465
 21
5.979077476123346
 31
0.0
  0
LINE
  5
B2
330
1F
100
AcDbEntity
  8
草图平面 01
100
AcDbLine
 10
25.64389075316488
 20
5.979493743134661
 30
0.0
 11
26.49821637779465
 21
5.979077476123346
 31
0.0
  0
LINE
  5
B3
330
1F
100
AcDbEntity
  8
草图平面 01
100
AcDbLine
 10
35.07529097259037
 20
23.11913559134118
 30
0.0
 11
35.07529097259035
 21
20.82961059134119
 31
0.0
  0
LINE
  5
B4
330
1F
100
AcDbEntity
  8
草图平面 01
100
AcDbLine
 10
43.63261756137003
 20
16.67203093531392
 30
0.0
 11
43.63261756137003
 21
15.26573093531393
 31
0.0
  0
LINE
  5
B5
330
1F
100
AcDbEntity
  8
草图平面 01
100
AcDbLine
 10
35.07529097259037
 20
16.54211059134118
 30
0.0
 11
35.07529097259037
 21
15.30731059134118
 31
0.0
  0
LINE
  5
B6
330
1F
100
AcDbEntity
  8
草图平面 01
100
AcDbLine
 10
49.63511756137019
 20
10.70383093531392
 30
0.0
 11
48.57181756137022
 21
10.70383093531392
 31
0.0
  0
LINE
  5
B7
330
1F
100
AcDbEntity
  8
草图平面 01
100
AcDbLine
 10
42.7927909725905
 20
23.11913559134118
 30
0.0
 11
42.7927909725905
 21
18.06846059134118
 31
0.0
  0
LINE
  5
B8
330
1F
100
AcDbEntity
  8
草图平面 01
100
AcDbLine
 10
36.79029097259036
 20
19.11461059134119
 30
0.0
 11
37.68209097259037
 21
19.11461059134118
 31
0.0
  0
LINE
  5
B9
330
1F
100
AcDbEntity
  8
草图平面 01
100
AcDbLine
 10
37.68209097259037
 20
12.73481059134118
 30
0.0
 11
36.79029097259034
 21
12.73481059134118
 31
0.0
  0
LINE
  5
BA
330
1F
100
AcDbEntity
  8
草图平面 01
100
AcDbLine
 10
42.7927909725905
 20
13.78096059134118
 30
0.0
 11
42.7927909725905
 21
12.54616059134118
 31
0.0
  0
LINE
  5
BB
330
1F
100
AcDbEntity
  8
草图平面 01
100
AcDbLine
 10
41.07779097259051
 20
10.83116059134118
 30
0.0
 11
40.18599097259054
 21
10.83116059134118
 31
0.0
  0
LINE
  5
BC
330
1F
100
AcDbEntity
  8
草图平面 01
100
AcDbLine
 10
36.79029097259036
 20
13.59231059134119
 30
0.0
 11
37.68209097259037
 21
13.59231059134119
 31
0.0
  0
LINE
  5
BD
330
1F
100
AcDbEntity
  8
草图平面 01
100
AcDbLine
 10
42.7927909725905
 20
8.258660591341174
 30
0.0
 11
42.7927909725905
 21
5.96913559134118
 31
0.0
  0
LINE
  5
BE
330
1F
100
AcDbEntity
  8
草图平面 01
100
AcDbLine
 10
41.07779097259051
 20
16.35346059134118
 30
0.0
 11
40.1859909725905
 21
16.35346059134118
 31
0.0
  0
LINE
  5
BF
330
1F
100
AcDbEntity
  8
草图平面 01
100
AcDbLine
 10
35.07529097259037
 20
11.01981059134117
 30
0.0
 11
35.07529097259036
 21
5.969135591341179
 31
0.0
  0
LINE
  5
C0
330
1F
100
AcDbEntity
  8
草图平面 01
100
AcDbLine
 10
37.68209097259037
 20
18.25711059134117
 30
0.0
 11
36.79029097259036
 21
18.25711059134118
 31
0.0
  0
LINE
  5
C1
330
1F
100
AcDbEntity
  8
草图平面 01
100
AcDbLine
 10
40.18599097259054
 20
9.973660591341176
 30
0.0
 11
41.07779097259051
 21
9.973660591341176
 31
0.0
  0
LINE
  5
C2
330
1F
100
AcDbEntity
  8
草图平面 01
100
AcDbLine
 10
34.21571637779481
 20
5.979077476123344
 30
0.0
 11
35.07529097259036
 21
5.969135591341179
 31
0.0
  0
LINE
  5
C3
330
1F
100
AcDbEntity
  8
草图平面 01
100
AcDbLine
 10
59.912989691794
 20
13.8632214681495
 30
0.0
 11
59.912989691794
 21
12.2854214681495
 31
0.0
  0
LINE
  5
C4
330
1F
100
AcDbEntity
  8
草图平面 01
100
AcDbLine
 10
43.63261756137005
 20
23.12043093531393
 30
0.0
 11
43.63261756137003
 21
20.95953093531392
 31
0.0
  0
LINE
  5
C5
330
1F
100
AcDbEntity
  8
草图平面 01
100
AcDbLine
 10
46.41091756137005
 20
12.69323093531393
 30
0.0
 11
45.34761756137004
 21
12.69323093531392
 31
0.0
  0
LINE
  5
C6
330
1F
100
AcDbEntity
  8
草图平面 01
100
AcDbLine
 10
45.34761756137004
 20
19.24453093531392
 30
0.0
 11
46.41091756137005
 21
19.24453093531392
 31
0.0
  0
LINE
  5
C7
330
1F
100
AcDbEntity
  8
草图平面 01
100
AcDbLine
 10
42.7927909725905
 20
23.11913559134118
 30
0.0
 11
43.63261756137005
 21
23.12043093531393
 31
0.0
  0
LINE
  5
C8
330
1F
100
AcDbEntity
  8
草图平面 01
100
AcDbLine
 10
55.12813969179385
 20
12.6455714681495
 30
0.0
 11
53.91048969179383
 21
12.6455714681495
 31
0.0
  0
LINE
  5
C9
330
1F
100
AcDbEntity
  8
草图平面 01
100
AcDbLine
 10
45.34761756137004
 20
13.55073093531392
 30
0.0
 11
46.41091756137005
 21
13.55073093531393
 31
0.0
  0
LINE
  5
CA
330
1F
100
AcDbEntity
  8
草图平面 01
100
AcDbLine
 10
49.63511756137019
 20
16.39763093531392
 30
0.0
 11
48.57181756137019
 21
16.39763093531392
 31
0.0
  0
LINE
  5
CB
330
1F
100
AcDbEntity
  8
草图平面 01
100
AcDbLine
 10
42.7927909725905
 20
5.96913559134118
 30
0.0
 11
43.63261756137005
 21
5.970430935313924
 31
0.0
  0
LINE
  5
CC
330
1F
100
AcDbEntity
  8
草图平面 01
100
AcDbLine
 10
51.3501175613702
 20
8.131330935313922
 30
0.0
 11
51.3501175613702
 21
5.970430935313925
 31
0.0
  0
LINE
  5
CD
330
1F
100
AcDbEntity
  8
草图平面 01
100
AcDbLine
 10
46.41091756137005
 20
18.38703093531392
 30
0.0
 11
45.34761756137004
 21
18.38703093531392
 31
0.0
  0
LINE
  5
CE
330
1F
100
AcDbEntity
  8
草图平面 01
100
AcDbLine
 10
48.57181756137022
 20
9.846330935313924
 30
0.0
 11
49.63511756137019
 21
9.846330935313924
 31
0.0
  0
LINE
  5
CF
330
1F
100
AcDbEntity
  8
草图平面 01
100
AcDbLine
 10
51.3501175613702
 20
13.82513093531392
 30
0.0
 11
51.3501175613702
 21
12.41883093531392
 31
0.0
  0
LINE
  5
D0
330
1F
100
AcDbEntity
  8
草图平面 01
100
AcDbLine
 10
48.57181756137019
 20
15.54013093531392
 30
0.0
 11
49.63511756137019
 21
15.54013093531392
 31
0.0
  0
LINE
  5
D1
330
1F
100
AcDbEntity
  8
草图平面 01
100
AcDbLine
 10
51.3501175613702
 20
23.12043093531393
 30
0.0
 11
51.3501175613702
 21
18.11263093531392
 31
0.0
  0
LINE
  5
D2
330
1F
100
AcDbEntity
  8
草图平面 01
100
AcDbLine
 10
43.63261756137003
 20
10.97823093531392
 30
0.0
 11
43.63261756137005
 21
5.970430935313924
 31
0.0
  0
LINE
  5
D3
330
1F
100
AcDbEntity
  8
草图平面 01
100
AcDbLine
 10
60.80146754741659
 20
15.8407114765156
 30
0.0
 11
60.80146754741659
 21
15.53201147651561
 31
0.0
  0
LINE
  5
D4
330
1F
100
AcDbEntity
  8
草图平面 01
100
AcDbLine
 10
52.19548969179383
 20
16.7958714681495
 30
0.0
 11
52.19548969179383
 21
15.2180714681495
 31
0.0
  0
LINE
  5
D5
330
1F
100
AcDbEntity
  8
草图平面 01
100
AcDbLine
 10
58.19798969179399
 20
10.5704214681495
 30
0.0
 11
56.98033969179401
 21
10.5704214681495
 31
0.0
  0
LINE
  5
D6
330
1F
100
AcDbEntity
  8
草图平面 01
100
AcDbLine
 10
52.19548969179383
 20
10.9305714681495
 30
0.0
 11
52.19548969179385
 21
5.965646468149497
 31
0.0
  0
LINE
  5
D7
330
1F
100
AcDbEntity
  8
草图平面 01
100
AcDbLine
 10
56.98033969179399
 20
15.5782214681495
 30
0.0
 11
58.19798969179399
 21
15.5782214681495
 31
0.0
  0
LINE
  5
D8
330
1F
100
AcDbEntity
  8
草图平面 01
100
AcDbLine
 10
83.98494540303955
 20
19.36837146814949
 30
0.0
 11
82.76729540303954
 21
19.36837146814949
 31
0.0
  0
LINE
  5
D9
330
1F
100
AcDbEntity
  8
草图平面 01
100
AcDbLine
 10
53.91048969179383
 20
19.36837146814949
 30
0.0
 11
55.12813969179385
 21
19.36837146814949
 31
0.0
  0
LINE
  5
DA
330
1F
100
AcDbEntity
  8
草图平面 01
100
AcDbLine
 10
59.91298969179398
 20
23.1156464681495
 30
0.0
 11
59.91298969179398
 21
18.1507214681495
 31
0.0
  0
LINE
  5
DB
330
1F
100
AcDbEntity
  8
草图平面 01
100
AcDbLine
 10
59.912989691794
 20
7.997921468149497
 30
0.0
 11
59.91298969179398
 21
5.965646468149497
 31
0.0
  0
LINE
  5
DC
330
1F
100
AcDbEntity
  8
草图平面 01
100
AcDbLine
 10
59.91298969179398
 20
5.965646468149497
 30
0.0
 11
60.80146754741659
 21
5.962311476515604
 31
0.0
  0
LINE
  5
DD
330
1F
100
AcDbEntity
  8
草图平面 01
100
AcDbLine
 10
51.3501175613702
 20
5.970430935313925
 30
0.0
 11
52.19548969179385
 21
5.965646468149497
 31
0.0
  0
LINE
  5
DE
330
1F
100
AcDbEntity
  8
草图平面 01
100
AcDbLine
 10
56.98033969179401
 20
9.712921468149498
 30
0.0
 11
58.19798969179399
 21
9.712921468149496
 31
0.0
  0
LINE
  5
DF
330
1F
100
AcDbEntity
  8
草图平面 01
100
AcDbLine
 10
55.12813969179385
 20
18.5108714681495
 30
0.0
 11
53.91048969179383
 21
18.5108714681495
 31
0.0
  0
LINE
  5
E0
330
1F
100
AcDbEntity
  8
草图平面 01
100
AcDbLine
 10
68.51896754741674
 20
23.1123114765156
 30
0.0
 11
68.51896754741674
 21
17.8301114765156
 31
0.0
  0
LINE
  5
E1
330
1F
100
AcDbEntity
  8
草图平面 01
100
AcDbLine
 10
58.19798969179399
 20
16.4357214681495
 30
0.0
 11
56.98033969179399
 21
16.4357214681495
 31
0.0
  0
LINE
  5
E2
330
1F
100
AcDbEntity
  8
草图平面 01
100
AcDbLine
 10
51.3501175613702
 20
23.12043093531393
 30
0.0
 11
52.19548969179385
 21
23.1156464681495
 31
0.0
  0
LINE
  5
E3
330
1F
100
AcDbEntity
  8
草图平面 01
100
AcDbLine
 10
137.1245428995529
 20
10.39292497685901
 30
0.0
 11
137.1245428995529
 21
5.968224976858985
 31
0.0
  0
LINE
  5
E4
330
1F
100
AcDbEntity
  8
草图平面 01
100
AcDbLine
 10
60.80146754741661
 20
11.2445114765156
 30
0.0
 11
60.80146754741659
 21
5.962311476515604
 31
0.0
  0
LINE
  5
E5
330
1F
100
AcDbEntity
  8
草图平面 01
100
AcDbLine
 10
68.51896754741674
 20
8.9464114765156
 30
0.0
 11
68.51896754741674
 21
5.962311476515604
 31
0.0
  0
LINE
  5
E6
330
1F
100
AcDbEntity
  8
草图平面 01
100
AcDbLine
 10
66.80396754741673
 20
16.1151114765156
 30
0.0
 11
65.24331754741675
 21
16.1151114765156
 31
0.0
  0
LINE
  5
E7
330
1F
100
AcDbEntity
  8
草图平面 01
100
AcDbLine
 10
65.24331754741675
 20
15.2576114765156
 30
0.0
 11
66.80396754741673
 21
15.25761147651561
 31
0.0
  0
LINE
  5
E8
330
1F
100
AcDbEntity
  8
草图平面 01
100
AcDbLine
 10
60.80146754741664
 20
23.1123114765156
 30
0.0
 11
60.80146754741659
 21
20.12821147651563
 31
0.0
  0
LINE
  5
E9
330
1F
100
AcDbEntity
  8
草图平面 01
100
AcDbLine
 10
64.07711754741662
 20
12.9595114765156
 30
0.0
 11
62.5164675474166
 21
12.9595114765156
 31
0.0
  0
LINE
  5
EA
330
1F
100
AcDbEntity
  8
草图平面 01
100
AcDbLine
 10
68.51896754741672
 20
13.5426114765156
 30
0.0
 11
68.51896754741672
 21
13.2339114765156
 31
0.0
  0
LINE
  5
EB
330
1F
100
AcDbEntity
  8
草图平面 01
100
AcDbLine
 10
109.4764187170387
 20
19.45040247612333
 30
0.0
 11
109.6822187170388
 21
19.45040247612335
 31
0.0
  0
LINE
  5
EC
330
1F
100
AcDbEntity
  8
草图平面 01
100
AcDbLine
 10
65.24331754741677
 20
10.6614114765156
 30
0.0
 11
66.80396754741673
 21
10.6614114765156
 31
0.0
  0
LINE
  5
ED
330
1F
100
AcDbEntity
  8
草图平面 01
100
AcDbLine
 10
64.07711754741662
 20
17.5557114765156
 30
0.0
 11
62.5164675474166
 21
17.5557114765156
 31
0.0
  0
LINE
  5
EE
330
1F
100
AcDbEntity
  8
草图平面 01
100
AcDbLine
 10
68.51896754741674
 20
23.1123114765156
 30
0.0
 11
69.37646754741664
 21
23.11231147651561
 31
0.0
  0
LINE
  5
EF
330
1F
100
AcDbEntity
  8
草图平面 01
100
AcDbLine
 10
66.80396754741673
 20
11.5189114765156
 30
0.0
 11
65.24331754741677
 21
11.5189114765156
 31
0.0
  0
LINE
  5
F0
330
1F
100
AcDbEntity
  8
草图平面 01
100
AcDbLine
 10
59.91298969179398
 20
23.1156464681495
 30
0.0
 11
60.80146754741664
 21
23.1123114765156
 31
0.0
  0
LINE
  5
F1
330
1F
100
AcDbEntity
  8
草图平面 01
100
AcDbLine
 10
62.5164675474166
 20
18.4132114765156
 30
0.0
 11
64.07711754741662
 21
18.41321147651561
 31
0.0
  0
LINE
  5
F2
330
1F
100
AcDbEntity
  8
草图平面 01
100
AcDbLine
 10
62.5164675474166
 20
13.8170114765156
 30
0.0
 11
64.07711754741662
 21
13.8170114765156
 31
0.0
  0
LINE
  5
F3
330
1F
100
AcDbEntity
  8
草图平面 01
100
AcDbLine
 10
82.76729540303954
 20
18.5108714681495
 30
0.0
 11
83.98494540303955
 21
18.5108714681495
 31
0.0
  0
LINE
  5
F4
330
1F
100
AcDbEntity
  8
草图平面 01
100
AcDbLine
 10
83.98494540303955
 20
13.5030714681495
 30
0.0
 11
82.76729540303954
 21
13.5030714681495
 31
0.0
  0
LINE
  5
F5
330
1F
100
AcDbEntity
  8
草图平面 01
100
AcDbLine
 10
119.9690443416685
 20
23.12949374313466
 30
0.0
 11
119.9690443416685
 21
5.979493743134661
 31
0.0
  0
LINE
  5
F6
330
1F
100
AcDbEntity
  8
草图平面 01
100
AcDbLine
 10
77.98244540303938
 20
7.997921468149497
 30
0.0
 11
77.98244540303939
 21
5.965646468149497
 31
0.0
  0
LINE
  5
F7
330
1F
100
AcDbEntity
  8
草图平面 01
100
AcDbLine
 10
137.5532928995528
 20
5.968224976858985
 30
0.0
 11
137.5532928995528
 21
23.11822497685899
 31
0.0
  0
LINE
  5
F8
330
1F
100
AcDbEntity
  8
草图平面 01
100
AcDbLine
 10
80.91509540303936
 20
9.712921468149498
 30
0.0
 11
79.69744540303938
 21
9.712921468149498
 31
0.0
  0
LINE
  5
F9
330
1F
100
AcDbEntity
  8
草图平面 01
100
AcDbLine
 10
77.98244540303939
 20
23.1156464681495
 30
0.0
 11
77.98244540303938
 21
18.1507214681495
 31
0.0
  0
LINE
  5
FA
330
1F
100
AcDbEntity
  8
草图平面 01
100
AcDbLine
 10
128.5397689079494
 20
10.66423023265562
 30
0.0
 11
128.5397689079494
 21
5.973705232655627
 31
0.0
  0
LINE
  5
FB
330
1F
100
AcDbEntity
  8
草图平面 01
100
AcDbLine
 10
100.213344122243
 20
12.73481059134118
 30
0.0
 11
101.105144122243
 21
12.73481059134118
 31
0.0
  0
LINE
  5
FC
330
1F
100
AcDbEntity
  8
草图平面 01
100
AcDbLine
 10
86.54531753346318
 20
13.82513093531392
 30
0.0
 11
86.54531753346318
 21
12.41883093531392
 31
0.0
  0
LINE
  5
FD
330
1F
100
AcDbEntity
  8
草图平面 01
100
AcDbLine
 10
85.69994540303952
 20
23.1156464681495
 30
0.0
 11
85.69994540303956
 21
21.08337146814949
 31
0.0
  0
LINE
  5
FE
330
1F
100
AcDbEntity
  8
草图平面 01
100
AcDbLine
 10
85.69994540303956
 20
16.7958714681495
 30
0.0
 11
85.69994540303955
 21
15.2180714681495
 31
0.0
  0
LINE
  5
FF
330
1F
100
AcDbEntity
  8
草图平面 01
100
AcDbLine
 10
101.105144122243
 20
19.11461059134119
 30
0.0
 11
100.213344122243
 21
19.11461059134118
 31
0.0
  0
LINE
  5
100
330
1F
100
AcDbEntity
  8
草图平面 01
100
AcDbLine
 10
72.65211754741662
 20
15.25761147651561
 30
0.0
 11
71.09146754741663
 21
15.2576114765156
 31
0.0
  0
LINE
  5
101
330
1F
100
AcDbEntity
  8
草图平面 01
100
AcDbLine
 10
75.37896754741676
 20
18.4132114765156
 30
0.0
 11
73.81831754741677
 21
18.4132114765156
 31
0.0
  0
LINE
  5
102
330
1F
100
AcDbEntity
  8
草图平面 01
100
AcDbLine
 10
75.37896754741676
 20
13.8170114765156
 30
0.0
 11
73.81831754741677
 21
13.8170114765156
 31
0.0
  0
LINE
  5
103
330
1F
100
AcDbEntity
  8
草图平面 01
100
AcDbLine
 10
109.6822187170388
 20
20.30790247612334
 30
0.0
 11
109.4764187170387
 21
20.30790247612335
 31
0.0
  0
LINE
  5
104
330
1F
100
AcDbEntity
  8
草图平面 01
100
AcDbLine
 10
88.26031753346318
 20
10.70383093531392
 30
0.0
 11
89.32361753346315
 21
10.70383093531392
 31
0.0
  0
LINE
  5
105
330
1F
100
AcDbEntity
  8
草图平面 01
100
AcDbLine
 10
122.5372689079493
 20
9.755280232655627
 30
0.0
 11
125.6414189079493
 21
9.755280232655625
 31
0.0
  0
LINE
  5
106
330
1F
100
AcDbEntity
  8
草图平面 01
100
AcDbLine
 10
111.3972187170387
 20
17.73540247612334
 30
0.0
 11
111.3972187170387
 21
14.92280247612335
 31
0.0
  0
LINE
  5
107
330
1F
100
AcDbEntity
  8
草图平面 01
100
AcDbLine
 10
95.10264412224288
 20
23.11913559134118
 30
0.0
 11
95.10264412224288
 21
18.06846059134118
 31
0.0
  0
LINE
  5
108
330
1F
100
AcDbEntity
  8
草图平面 01
100
AcDbLine
 10
69.37646754741664
 20
13.5426114765156
 30
0.0
 11
69.37646754741664
 21
13.2339114765156
 31
0.0
  0
LINE
  5
109
330
1F
100
AcDbEntity
  8
草图平面 01
100
AcDbLine
 10
89.32361753346315
 20
9.846330935313924
 30
0.0
 11
88.26031753346318
 21
9.846330935313922
 31
0.0
  0
LINE
  5
10A
330
1F
100
AcDbEntity
  8
草图平面 01
100
AcDbLine
 10
69.37646754741664
 20
23.11231147651561
 30
0.0
 11
69.37646754741664
 21
17.8301114765156
 31
0.0
  0
LINE
  5
10B
330
1F
100
AcDbEntity
  8
草图平面 01
100
AcDbLine
 10
137.5532928995528
 20
5.968224976858985
 30
0.0
 11
137.1245428995529
 21
5.968224976858985
 31
0.0
  0
LINE
  5
10C
330
1F
100
AcDbEntity
  8
草图平面 01
100
AcDbLine
 10
103.6797187170386
 20
5.979077476123344
 30
0.0
 11
102.820144122243
 21
5.969135591341181
 31
0.0
  0
LINE
  5
10D
330
1F
100
AcDbEntity
  8
草图平面 01
100
AcDbLine
 10
123.7206189079494
 20
19.34213023265564
 30
0.0
 11
126.8247689079495
 21
19.34213023265563
 31
0.0
  0
LINE
  5
10E
330
1F
100
AcDbEntity
  8
草图平面 01
100
AcDbLine
 10
96.81764412224288
 20
10.83116059134118
 30
0.0
 11
97.70944412224281
 21
10.83116059134117
 31
0.0
  0
LINE
  5
10F
330
1F
100
AcDbEntity
  8
草图平面 01
100
AcDbLine
 10
102.820144122243
 20
16.54211059134118
 30
0.0
 11
102.820144122243
 21
15.30731059134118
 31
0.0
  0
LINE
  5
110
330
1F
100
AcDbEntity
  8
草图平面 01
100
AcDbLine
 10
86.54531753346319
 20
23.12043093531393
 30
0.0
 11
86.54531753346318
 21
18.11263093531392
 31
0.0
  0
LINE
  5
111
330
1F
100
AcDbEntity
  8
草图平面 01
100
AcDbLine
 10
137.1245428995529
 20
18.41912497685901
 30
0.0
 11
137.1245428995529
 21
14.68042497685901
 31
0.0
  0
LINE
  5
112
330
1F
100
AcDbEntity
  8
草图平面 01
100
AcDbLine
 10
95.10264412224288
 20
8.258660591341174
 30
0.0
 11
95.10264412224288
 21
5.969135591341181
 31
0.0
  0
LINE
  5
113
330
1F
100
AcDbEntity
  8
草图平面 01
100
AcDbLine
 10
128.5397689079494
 20
23.12370523265563
 30
0.0
 11
128.5397689079494
 21
21.91463023265563
 31
0.0
  0
LINE
  5
114
330
1F
100
AcDbEntity
  8
草图平面 01
100
AcDbLine
 10
122.5372689079493
 20
16.71818023265563
 30
0.0
 11
125.6414189079493
 21
16.71818023265563
 31
0.0
  0
LINE
  5
115
330
1F
100
AcDbEntity
  8
草图平面 01
100
AcDbLine
 10
86.54531753346319
 20
8.131330935313922
 30
0.0
 11
86.54531753346319
 21
5.970430935313925
 31
0.0
  0
LINE
  5
116
330
1F
100
AcDbEntity
  8
草图平面 01
100
AcDbLine
 10
112.2515443416685
 20
23.12949374313467
 30
0.0
 11
112.2515443416685
 21
5.979493743134661
 31
0.0
  0
LINE
  5
117
330
1F
100
AcDbEntity
  8
草图平面 01
100
AcDbLine
 10
109.4764187170387
 20
12.35030247612334
 30
0.0
 11
109.6822187170387
 21
12.35030247612334
 31
0.0
  0
LINE
  5
118
330
1F
100
AcDbEntity
  8
草图平面 01
100
AcDbLine
 10
69.37646754741664
 20
8.946411476515602
 30
0.0
 11
69.37646754741664
 21
5.962311476515604
 31
0.0
  0
LINE
  5
119
330
1F
100
AcDbEntity
  8
草图平面 01
100
AcDbLine
 10
120.8222689079492
 20
5.973705232655627
 30
0.0
 11
119.9690443416685
 21
5.979493743134661
 31
0.0
  0
LINE
  5
11A
330
1F
100
AcDbEntity
  8
草图平面 01
100
AcDbLine
 10
109.6822187170388
 20
13.20780247612335
 30
0.0
 11
109.4764187170387
 21
13.20780247612335
 31
0.0
  0
LINE
  5
11B
330
1F
100
AcDbEntity
  8
草图平面 01
100
AcDbLine
 10
88.26031753346318
 20
16.39763093531392
 30
0.0
 11
89.32361753346319
 21
16.39763093531392
 31
0.0
  0
LINE
  5
11C
330
1F
100
AcDbEntity
  8
草图平面 01
100
AcDbLine
 10
73.81831754741677
 20
17.5557114765156
 30
0.0
 11
75.37896754741676
 21
17.55571147651561
 31
0.0
  0
LINE
  5
11D
330
1F
100
AcDbEntity
  8
草图平面 01
100
AcDbLine
 10
72.6521175474166
 20
10.6614114765156
 30
0.0
 11
71.09146754741663
 21
10.6614114765156
 31
0.0
  0
LINE
  5
11E
330
1F
100
AcDbEntity
  8
草图平面 01
100
AcDbLine
 10
111.3972187170387
 20
23.12907747612335
 30
0.0
 11
111.3972187170387
 21
22.02290247612337
 31
0.0
  0
LINE
  5
11F
330
1F
100
AcDbEntity
  8
草图平面 01
100
AcDbLine
 10
132.9913928995529
 20
12.10792497685902
 30
0.0
 11
135.4095428995529
 21
12.10792497685901
 31
0.0
  0
LINE
  5
120
330
1F
100
AcDbEntity
  8
草图平面 01
100
AcDbLine
 10
89.32361753346319
 20
15.54013093531392
 30
0.0
 11
88.26031753346318
 21
15.54013093531392
 31
0.0
  0
LINE
  5
121
330
1F
100
AcDbEntity
  8
草图平面 01
100
AcDbLine
 10
120.8222689079493
 20
14.14568023265563
 30
0.0
 11
120.8222689079493
 21
11.47028023265563
 31
0.0
  0
LINE
  5
122
330
1F
100
AcDbEntity
  8
草图平面 01
100
AcDbLine
 10
79.69744540303938
 20
16.4357214681495
 30
0.0
 11
80.91509540303939
 21
16.43572146814949
 31
0.0
  0
LINE
  5
123
330
1F
100
AcDbEntity
  8
草图平面 01
100
AcDbLine
 10
129.4070428995527
 20
23.11822497685899
 30
0.0
 11
129.4070428995527
 21
18.69352497685901
 31
0.0
  0
LINE
  5
124
330
1F
100
AcDbEntity
  8
草图平面 01
100
AcDbLine
 10
100.213344122243
 20
18.25711059134117
 30
0.0
 11
101.105144122243
 21
18.25711059134118
 31
0.0
  0
LINE
  5
125
330
1F
100
AcDbEntity
  8
草图平面 01
100
AcDbLine
 10
73.81831754741677
 20
12.9595114765156
 30
0.0
 11
75.37896754741676
 21
12.9595114765156
 31
0.0
  0
LINE
  5
126
330
1F
100
AcDbEntity
  8
草图平面 01
100
AcDbLine
 10
80.91509540303939
 20
15.5782214681495
 30
0.0
 11
79.69744540303938
 21
15.5782214681495
 31
0.0
  0
LINE
  5
127
330
1F
100
AcDbEntity
  8
草图平面 01
100
AcDbLine
 10
131.1220428995528
 20
8.952324976859012
 30
0.0
 11
133.5401928995527
 21
8.952324976859012
 31
0.0
  0
LINE
  5
128
330
1F
100
AcDbEntity
  8
草图平面 01
100
AcDbLine
 10
105.6005187170386
 20
8.800252476123346
 30
0.0
 11
105.3947187170386
 21
8.800252476123346
 31
0.0
  0
LINE
  5
129
330
1F
100
AcDbEntity
  8
草图平面 01
100
AcDbLine
 10
132.9913928995529
 20
20.13412497685902
 30
0.0
 11
135.4095428995529
 21
20.13412497685902
 31
0.0
  0
LINE
  5
12A
330
1F
100
AcDbEntity
  8
草图平面 01
100
AcDbLine
 10
129.4070428995527
 20
14.40602497685901
 30
0.0
 11
129.4070428995527
 21
10.66732497685901
 31
0.0
  0
LINE
  5
12B
330
1F
100
AcDbEntity
  8
草图平面 01
100
AcDbLine
 10
91.48451753346333
 20
12.69323093531392
 30
0.0
 11
92.54781753346334
 21
12.69323093531393
 31
0.0
  0
LINE
  5
12C
330
1F
100
AcDbEntity
  8
草图平面 01
100
AcDbLine
 10
126.8247689079495
 20
20.19963023265563
 30
0.0
 11
123.7206189079494
 21
20.19963023265564
 31
0.0
  0
LINE
  5
12D
330
1F
100
AcDbEntity
  8
草图平面 01
100
AcDbLine
 10
94.26281753346335
 20
10.97823093531392
 30
0.0
 11
94.26281753346335
 21
5.970430935313926
 31
0.0
  0
LINE
  5
12E
330
1F
100
AcDbEntity
  8
草图平面 01
100
AcDbLine
 10
131.1220428995528
 20
16.97852497685901
 30
0.0
 11
133.5401928995528
 21
16.97852497685901
 31
0.0
  0
LINE
  5
12F
330
1F
100
AcDbEntity
  8
草图平面 01
100
AcDbLine
 10
125.6414189079493
 20
15.86068023265564
 30
0.0
 11
122.5372689079493
 21
15.86068023265564
 31
0.0
  0
LINE
  5
130
330
1F
100
AcDbEntity
  8
草图平面 01
100
AcDbLine
 10
101.105144122243
 20
13.59231059134119
 30
0.0
 11
100.213344122243
 21
13.59231059134119
 31
0.0
  0
LINE
  5
131
330
1F
100
AcDbEntity
  8
草图平面 01
100
AcDbLine
 10
71.09146754741663
 20
11.5189114765156
 30
0.0
 11
72.6521175474166
 21
11.5189114765156
 31
0.0
  0
LINE
  5
132
330
1F
100
AcDbEntity
  8
草图平面 01
100
AcDbLine
 10
85.69994540303956
 20
10.9305714681495
 30
0.0
 11
85.69994540303956
 21
5.965646468149497
 31
0.0
  0
LINE
  5
133
330
1F
100
AcDbEntity
  8
草图平面 01
100
AcDbLine
 10
129.4070428995527
 20
5.968224976858985
 30
0.0
 11
128.9782928995528
 21
5.968224976858985
 31
0.0
  0
LINE
  5
134
330
1F
100
AcDbEntity
  8
草图平面 01
100
AcDbLine
 10
95.10264412224288
 20
5.969135591341181
 30
0.0
 11
94.26281753346335
 21
5.970430935313926
 31
0.0
  0
LINE
  5
135
330
1F
100
AcDbEntity
  8
草图平面 01
100
AcDbLine
 10
103.6797187170386
 20
23.12907747612334
 30
0.0
 11
102.820144122243
 21
23.11913559134118
 31
0.0
  0
LINE
  5
136
330
1F
100
AcDbEntity
  8
草图平面 01
100
AcDbLine
 10
92.54781753346334
 20
19.24453093531392
 30
0.0
 11
91.48451753346333
 21
19.24453093531392
 31
0.0
  0
LINE
  5
137
330
1F
100
AcDbEntity
  8
草图平面 01
100
AcDbLine
 10
128.5397689079494
 20
17.62713023265564
 30
0.0
 11
128.5397689079494
 21
14.95173023265563
 31
0.0
  0
LINE
  5
138
330
1F
100
AcDbEntity
  8
草图平面 01
100
AcDbLine
 10
92.54781753346334
 20
13.55073093531393
 30
0.0
 11
91.48451753346333
 21
13.55073093531393
 31
0.0
  0
LINE
  5
139
330
1F
100
AcDbEntity
  8
草图平面 01
100
AcDbLine
 10
120.8222689079492
 20
23.12370523265563
 30
0.0
 11
119.9690443416685
 21
23.12949374313466
 31
0.0
  0
LINE
  5
13A
330
1F
100
AcDbEntity
  8
草图平面 01
100
AcDbLine
 10
135.4095428995529
 20
20.99162497685902
 30
0.0
 11
132.9913928995529
 21
20.99162497685901
 31
0.0
  0
LINE
  5
13B
330
1F
100
AcDbEntity
  8
草图平面 01
100
AcDbLine
 10
137.1245428995529
 20
23.11822497685899
 30
0.0
 11
137.1245428995529
 21
22.70662497685901
 31
0.0
  0
LINE
  5
13C
330
1F
100
AcDbEntity
  8
草图平面 01
100
AcDbLine
 10
128.9782928995528
 20
5.968224976858985
 30
0.0
 11
128.5397689079494
 21
5.973705232655627
 31
0.0
  0
LINE
  5
13D
330
1F
100
AcDbEntity
  8
草图平面 01
100
AcDbLine
 10
77.98244540303939
 20
23.1156464681495
 30
0.0
 11
77.09396754741675
 21
23.11231147651561
 31
0.0
  0
LINE
  5
13E
330
1F
100
AcDbEntity
  8
草图平面 01
100
AcDbLine
 10
105.3947187170386
 20
9.657752476123344
 30
0.0
 11
105.6005187170386
 21
9.657752476123344
 31
0.0
  0
LINE
  5
13F
330
1F
100
AcDbEntity
  8
草图平面 01
100
AcDbLine
 10
71.09146754741663
 20
16.11511147651561
 30
0.0
 11
72.65211754741662
 21
16.1151114765156
 31
0.0
  0
LINE
  5
140
330
1F
100
AcDbEntity
  8
草图平面 01
100
AcDbLine
 10
77.98244540303938
 20
13.8632214681495
 30
0.0
 11
77.98244540303938
 21
12.2854214681495
 31
0.0
  0
LINE
  5
141
330
1F
100
AcDbEntity
  8
草图平面 01
100
AcDbLine
 10
123.7206189079494
 20
12.37923023265563
 30
0.0
 11
126.8247689079495
 21
12.37923023265563
 31
0.0
  0
LINE
  5
142
330
1F
100
AcDbEntity
  8
草图平面 01
100
AcDbLine
 10
137.1245428995529
 20
23.11822497685899
 30
0.0
 11
137.5532928995528
 21
23.11822497685899
 31
0.0
  0
LINE
  5
143
330
1F
100
AcDbEntity
  8
草图平面 01
100
AcDbLine
 10
133.5401928995528
 20
16.12102497685902
 30
0.0
 11
131.1220428995527
 21
16.12102497685902
 31
0.0
  0
LINE
  5
144
330
1F
100
AcDbEntity
  8
草图平面 01
100
AcDbLine
 10
102.820144122243
 20
11.01981059134117
 30
0.0
 11
102.820144122243
 21
5.969135591341181
 31
0.0
  0
LINE
  5
145
330
1F
100
AcDbEntity
  8
草图平面 01
100
AcDbLine
 10
133.5401928995527
 20
8.094824976859014
 30
0.0
 11
131.1220428995527
 21
8.094824976859014
 31
0.0
  0
LINE
  5
146
330
1F
100
AcDbEntity
  8
草图平面 01
100
AcDbLine
 10
120.8222689079492
 20
23.12370523265563
 30
0.0
 11
120.8222689079492
 21
18.43318023265563
 31
0.0
  0
LINE
  5
147
330
1F
100
AcDbEntity
  8
草图平面 01
100
AcDbLine
 10
77.09396754741677
 20
11.2445114765156
 30
0.0
 11
77.09396754741677
 21
5.962311476515603
 31
0.0
  0
LINE
  5
148
330
1F
100
AcDbEntity
  8
草图平面 01
100
AcDbLine
 10
102.820144122243
 20
23.11913559134118
 30
0.0
 11
102.820144122243
 21
20.82961059134119
 31
0.0
  0
LINE
  5
149
330
1F
100
AcDbEntity
  8
草图平面 01
100
AcDbLine
 10
96.81764412224288
 20
16.35346059134118
 30
0.0
 11
97.70944412224287
 21
16.35346059134118
 31
0.0
  0
LINE
  5
14A
330
1F
100
AcDbEntity
  8
草图平面 01
100
AcDbLine
 10
129.4070428995527
 20
6.379824976859013
 30
0.0
 11
129.4070428995527
 21
5.968224976858985
 31
0.0
  0
LINE
  5
14B
330
1F
100
AcDbEntity
  8
草图平面 01
100
AcDbLine
 10
103.6797187170386
 20
14.18535247612334
 30
0.0
 11
103.6797187170386
 21
11.37275247612335
 31
0.0
  0
LINE
  5
14C
330
1F
100
AcDbEntity
  8
草图平面 01
100
AcDbLine
 10
95.10264412224288
 20
23.11913559134118
 30
0.0
 11
94.26281753346332
 21
23.12043093531393
 31
0.0
  0
LINE
  5
14D
330
1F
100
AcDbEntity
  8
草图平面 01
100
AcDbLine
 10
91.48451753346333
 20
18.38703093531392
 30
0.0
 11
92.54781753346334
 21
18.38703093531392
 31
0.0
  0
LINE
  5
14E
330
1F
100
AcDbEntity
  8
草图平面 01
100
AcDbLine
 10
77.09396754741677
 20
15.8407114765156
 30
0.0
 11
77.09396754741678
 21
15.53201147651561
 31
0.0
  0
LINE
  5
14F
330
1F
100
AcDbEntity
  8
草图平面 01
100
AcDbLine
 10
125.6414189079493
 20
8.897780232655625
 30
0.0
 11
122.5372689079493
 21
8.897780232655627
 31
0.0
  0
LINE
  5
150
330
1F
100
AcDbEntity
  8
草图平面 01
100
AcDbLine
 10
111.3972187170388
 20
10.63530247612335
 30
0.0
 11
111.3972187170388
 21
5.979077476123346
 31
0.0
  0
ARC
  5
151
330
1F
100
AcDbEntity
  8
草图平面 01
100
AcDbCircle
 10
109.6822187170388
 20
10.63530247612335
 30
0.0
 40
1.715000000000008
100
AcDbArc
 50
0.0
 51
90.00000000000092
  0
ARC
  5
152
330
1F
100
AcDbEntity
  8
草图平面 01
100
AcDbCircle
 10
135.4095428995529
 20
10.39292497685901
 30
0.0
 40
1.715000000000022
100
AcDbArc
 50
0.0
 51
90.0
  0
ARC
  5
153
330
1F
100
AcDbEntity
  8
草图平面 01
100
AcDbCircle
 10
131.1220428995528
 20
14.40602497685901
 30
0.0
 40
1.715000000000003
100
AcDbArc
 50
90.00000000000186
 51
180.0
  0
ARC
  5
154
330
1F
100
AcDbEntity
  8
草图平面 01
100
AcDbCircle
 10
125.6414189079493
 20
9.326530232655625
 30
0.0
 40
0.4287500000000003
100
AcDbArc
 50
270.0
 51
90.0
  0
ARC
  5
155
330
1F
100
AcDbEntity
  8
草图平面 01
100
AcDbCircle
 10
132.9913928995529
 20
12.53667497685902
 30
0.0
 40
0.4287499999999934
100
AcDbArc
 50
90.0
 51
270.0
  0
ARC
  5
156
330
1F
100
AcDbEntity
  8
草图平面 01
100
AcDbCircle
 10
89.32361753346315
 20
10.27508093531392
 30
0.0
 40
0.4287500000000003
100
AcDbArc
 50
270.0
 51
90.0
  0
ARC
  5
157
330
1F
100
AcDbEntity
  8
草图平面 01
100
AcDbCircle
 10
123.7206189079494
 20
19.77088023265564
 30
0.0
 40
0.4287499999999986
100
AcDbArc
 50
90.0
 51
270.0
  0
ARC
  5
158
330
1F
100
AcDbEntity
  8
草图平面 01
100
AcDbCircle
 10
109.4764187170387
 20
12.77905247612335
 30
0.0
 40
0.4287499999999986
100
AcDbArc
 50
90.0
 51
270.0000000000018
  0
ARC
  5
159
330
1F
100
AcDbEntity
  8
草图平面 01
100
AcDbCircle
 10
131.1220428995528
 20
10.66732497685901
 30
0.0
 40
1.715000000000022
100
AcDbArc
 50
180.0
 51
270.0
  0
ARC
  5
15A
330
1F
100
AcDbEntity
  8
草图平面 01
100
AcDbCircle
 10
109.6822187170388
 20
14.92280247612335
 30
0.0
 40
1.714999999999999
100
AcDbArc
 50
270.0000000000005
 51
0.0
  0
ARC
  5
15B
330
1F
100
AcDbEntity
  8
草图平面 01
100
AcDbCircle
 10
89.32361753346319
 20
15.96888093531392
 30
0.0
 40
0.4287499999999986
100
AcDbArc
 50
270.0
 51
90.0
  0
ARC
  5
15C
330
1F
100
AcDbEntity
  8
草图平面 01
100
AcDbCircle
 10
75.37896754741676
 20
11.2445114765156
 30
0.0
 40
1.714999999999994
100
AcDbArc
 50
0.000000000000058
 51
90.0
  0
ARC
  5
15D
330
1F
100
AcDbEntity
  8
草图平面 01
100
AcDbCircle
 10
6.773392195280628
 20
14.40602497685901
 30
0.0
 40
1.714999999999998
100
AcDbArc
 50
0.0
 51
89.99999999999989
  0
ARC
  5
15E
330
1F
100
AcDbEntity
  8
草图平面 01
100
AcDbCircle
 10
2.485892195280464
 20
14.68042497685901
 30
0.0
 40
1.714999999999996
100
AcDbArc
 50
180.0
 51
270.0
  0
ARC
  5
15F
330
1F
100
AcDbEntity
  8
草图平面 01
100
AcDbCircle
 10
4.904042195280462
 20
12.53667497685902
 30
0.0
 40
0.4287500000000021
100
AcDbArc
 50
270.0
 51
90.0
  0
ARC
  5
160
330
1F
100
AcDbEntity
  8
草图平面 01
100
AcDbCircle
 10
4.904042195280462
 20
20.56287497685901
 30
0.0
 40
0.4287499999999951
100
AcDbArc
 50
270.0
 51
90.0
  0
ARC
  5
161
330
1F
100
AcDbEntity
  8
草图平面 01
100
AcDbCircle
 10
4.355242195280659
 20
8.523574976858974
 30
0.0
 40
0.4287500000000402
100
AcDbArc
 50
90.0
 51
270.0
  0
ARC
  5
162
330
1F
100
AcDbEntity
  8
草图平面 01
100
AcDbCircle
 10
6.773392195280628
 20
6.379824976859013
 30
0.0
 40
1.714999999999998
100
AcDbArc
 50
0.000000000000029
 51
90.0
  0
ARC
  5
163
330
1F
100
AcDbEntity
  8
草图平面 01
100
AcDbCircle
 10
6.773392195280628
 20
18.69352497685901
 30
0.0
 40
1.715000000000001
100
AcDbArc
 50
270.0
 51
0.0
  0
ARC
  5
164
330
1F
100
AcDbEntity
  8
草图平面 01
100
AcDbCircle
 10
4.355242195280622
 20
16.54977497685901
 30
0.0
 40
0.4287499999999986
100
AcDbArc
 50
90.0
 51
270.0
  0
ARC
  5
165
330
1F
100
AcDbEntity
  8
草图平面 01
100
AcDbCircle
 10
6.773392195280628
 20
10.66732497685901
 30
0.0
 40
1.714999999999999
100
AcDbArc
 50
270.0
 51
0.0
  0
ARC
  5
166
330
1F
100
AcDbEntity
  8
草图平面 01
100
AcDbCircle
 10
2.485892195280467
 20
22.70662497685901
 30
0.0
 40
1.715000000000001
100
AcDbArc
 50
179.9999999999966
 51
270.0
  0
ARC
  5
167
330
1F
100
AcDbEntity
  8
草图平面 01
100
AcDbCircle
 10
2.485892195280464
 20
18.41912497685901
 30
0.0
 40
1.715000000000001
100
AcDbArc
 50
90.0
 51
180.0
  0
ARC
  5
168
330
1F
100
AcDbEntity
  8
草图平面 01
100
AcDbCircle
 10
2.485892195280474
 20
10.39292497685901
 30
0.0
 40
1.715000000000001
100
AcDbArc
 50
90.0
 51
180.0
  0
ARC
  5
169
330
1F
100
AcDbEntity
  8
草图平面 01
100
AcDbCircle
 10
11.07066618688396
 20
14.95173023265563
 30
0.0
 40
1.715000000000022
100
AcDbArc
 50
180.0
 51
270.0
  0
ARC
  5
16A
330
1F
100
AcDbEntity
  8
草图平面 01
100
AcDbCircle
 10
11.07066618688396
 20
21.91463023265564
 30
0.0
 40
1.715000000000001
100
AcDbArc
 50
179.9999999999993
 51
270.0
  0
ARC
  5
16B
330
1F
100
AcDbEntity
  8
草图平面 01
100
AcDbCircle
 10
15.35816618688411
 20
14.14568023265564
 30
0.0
 40
1.715000000000001
100
AcDbArc
 50
359.9999999999999
 51
90.0
  0
ARC
  5
16C
330
1F
100
AcDbEntity
  8
草图平面 01
100
AcDbCircle
 10
12.25401618688414
 20
9.326530232655625
 30
0.0
 40
0.4287500000000003
100
AcDbArc
 50
90.0
 51
270.0
  0
ARC
  5
16D
330
1F
100
AcDbEntity
  8
草图平面 01
100
AcDbCircle
 10
14.17481618688395
 20
12.80798023265563
 30
0.0
 40
0.4287500000000021
100
AcDbArc
 50
270.0
 51
90.0
  0
ARC
  5
16E
330
1F
100
AcDbEntity
  8
草图平面 01
100
AcDbCircle
 10
14.17481618688395
 20
19.77088023265564
 30
0.0
 40
0.4287499999999951
100
AcDbArc
 50
270.0
 51
90.0
  0
ARC
  5
16F
330
1F
100
AcDbEntity
  8
草图平面 01
100
AcDbCircle
 10
15.35816618688411
 20
18.43318023265563
 30
0.0
 40
1.715000000000001
100
AcDbArc
 50
270.0
 51
0.0
  0
ARC
  5
170
330
1F
100
AcDbEntity
  8
草图平面 01
100
AcDbCircle
 10
12.25401618688411
 20
16.28943023265564
 30
0.0
 40
0.4287499999999986
100
AcDbArc
 50
90.0
 51
270.0
  0
ARC
  5
171
330
1F
100
AcDbEntity
  8
草图平面 01
100
AcDbCircle
 10
11.07066618688396
 20
10.66423023265562
 30
0.0
 40
1.715000000000003
100
AcDbArc
 50
90.0
 51
179.9999999999999
  0
ARC
  5
172
330
1F
100
AcDbEntity
  8
草图平面 01
100
AcDbCircle
 10
11.07066618688395
 20
17.62713023265563
 30
0.0
 40
1.715000000000008
100
AcDbArc
 50
89.99999999999966
 51
179.9999999999995
  0
ARC
  5
173
330
1F
100
AcDbEntity
  8
草图平面 01
100
AcDbCircle
 10
15.35816618688411
 20
7.182780232655626
 30
0.0
 40
1.715000000000001
100
AcDbArc
 50
359.9999999999999
 51
90.0
  0
ARC
  5
174
330
1F
100
AcDbEntity
  8
草图平面 01
100
AcDbCircle
 10
15.35816618688411
 20
11.47028023265563
 30
0.0
 40
1.715000000000001
100
AcDbArc
 50
270.0
 51
0.0
  0
ARC
  5
175
330
1F
100
AcDbEntity
  8
草图平面 01
100
AcDbCircle
 10
32.5007163777948
 20
11.37275247612335
 30
0.0
 40
1.715000000000001
100
AcDbArc
 50
270.0
 51
0.0
  0
ARC
  5
176
330
1F
100
AcDbEntity
  8
草图平面 01
100
AcDbCircle
 10
28.21321637779466
 20
22.02290247612333
 30
0.0
 40
1.715000000000008
100
AcDbArc
 50
179.9999999999991
 51
270.0
  0
ARC
  5
177
330
1F
100
AcDbEntity
  8
草图平面 01
100
AcDbCircle
 10
28.41901637779466
 20
12.77905247612335
 30
0.0
 40
0.4287500000000055
100
AcDbArc
 50
270.0
 51
90.0
  0
ARC
  5
178
330
1F
100
AcDbEntity
  8
草图平面 01
100
AcDbCircle
 10
28.41901637779466
 20
19.87915247612334
 30
0.0
 40
0.4287499999999986
100
AcDbArc
 50
270.0
 51
90.0
  0
ARC
  5
179
330
1F
100
AcDbEntity
  8
草图平面 01
100
AcDbCircle
 10
32.5007163777948
 20
7.085252476123345
 30
0.0
 40
1.715000000000001
100
AcDbArc
 50
0.0
 51
90.0
  0
ARC
  5
17A
330
1F
100
AcDbEntity
  8
草图平面 01
100
AcDbCircle
 10
28.21321637779466
 20
10.63530247612335
 30
0.0
 40
1.714999999999998
100
AcDbArc
 50
90.0
 51
180.0
  0
ARC
  5
17B
330
1F
100
AcDbEntity
  8
草图平面 01
100
AcDbCircle
 10
32.29491637779483
 20
9.229002476123346
 30
0.0
 40
0.4287499999999986
100
AcDbArc
 50
90.0
 51
270.0
  0
ARC
  5
17C
330
1F
100
AcDbEntity
  8
草图平面 01
100
AcDbCircle
 10
32.5007163777948
 20
18.47285247612335
 30
0.0
 40
1.715000000000005
100
AcDbArc
 50
270.0
 51
0.0
  0
ARC
  5
17D
330
1F
100
AcDbEntity
  8
草图平面 01
100
AcDbCircle
 10
32.29491637779481
 20
16.32910247612334
 30
0.0
 40
0.4287499999999951
100
AcDbArc
 50
90.0
 51
270.0
  0
ARC
  5
17E
330
1F
100
AcDbEntity
  8
草图平面 01
100
AcDbCircle
 10
32.5007163777948
 20
14.18535247612334
 30
0.0
 40
1.715000000000001
100
AcDbArc
 50
0.0
 51
90.0
  0
ARC
  5
17F
330
1F
100
AcDbEntity
  8
草图平面 01
100
AcDbCircle
 10
28.21321637779466
 20
14.92280247612335
 30
0.0
 40
1.715000000000008
100
AcDbArc
 50
180.0
 51
270.0
  0
ARC
  5
180
330
1F
100
AcDbEntity
  8
草图平面 01
100
AcDbCircle
 10
28.21321637779466
 20
17.73540247612335
 30
0.0
 40
1.714999999999994
100
AcDbArc
 50
90.0
 51
180.0
  0
ARC
  5
181
330
1F
100
AcDbEntity
  8
草图平面 01
100
AcDbCircle
 10
40.18599097259054
 20
10.40241059134117
 30
0.0
 40
0.4287500000000021
100
AcDbArc
 50
90.0
 51
270.0
  0
ARC
  5
182
330
1F
100
AcDbEntity
  8
草图平面 01
100
AcDbCircle
 10
36.79029097259036
 20
15.30731059134118
 30
0.0
 40
1.714999999999994
100
AcDbArc
 50
180.0
 51
270.0
  0
ARC
  5
183
330
1F
100
AcDbEntity
  8
草图平面 01
100
AcDbCircle
 10
41.07779097259051
 20
18.06846059134118
 30
0.0
 40
1.715000000000001
100
AcDbArc
 50
270.0
 51
0.0
  0
ARC
  5
184
330
1F
100
AcDbEntity
  8
草图平面 01
100
AcDbCircle
 10
40.1859909725905
 20
15.92471059134118
 30
0.0
 40
0.4287499999999986
100
AcDbArc
 50
90.0
 51
270.0
  0
ARC
  5
185
330
1F
100
AcDbEntity
  8
草图平面 01
100
AcDbCircle
 10
41.07779097259051
 20
12.54616059134118
 30
0.0
 40
1.715000000000001
100
AcDbArc
 50
270.0
 51
0.0
  0
ARC
  5
186
330
1F
100
AcDbEntity
  8
草图平面 01
100
AcDbCircle
 10
36.79029097259036
 20
11.01981059134117
 30
0.0
 40
1.715000000000001
100
AcDbArc
 50
90.00000000000045
 51
180.0
  0
ARC
  5
187
330
1F
100
AcDbEntity
  8
草图平面 01
100
AcDbCircle
 10
41.07779097259051
 20
8.258660591341176
 30
0.0
 40
1.715000000000001
100
AcDbArc
 50
359.9999999999999
 51
90.0
  0
ARC
  5
188
330
1F
100
AcDbEntity
  8
草图平面 01
100
AcDbCircle
 10
37.68209097259037
 20
18.68586059134118
 30
0.0
 40
0.4287500000000021
100
AcDbArc
 50
270.0
 51
90.0
  0
ARC
  5
189
330
1F
100
AcDbEntity
  8
草图平面 01
100
AcDbCircle
 10
37.68209097259037
 20
13.16356059134118
 30
0.0
 40
0.4287500000000021
100
AcDbArc
 50
270.0
 51
90.0
  0
ARC
  5
18A
330
1F
100
AcDbEntity
  8
草图平面 01
100
AcDbCircle
 10
36.79029097259036
 20
20.82961059134119
 30
0.0
 40
1.715000000000008
100
AcDbArc
 50
179.9999999999998
 51
270.0
  0
ARC
  5
18B
330
1F
100
AcDbEntity
  8
草图平面 01
100
AcDbCircle
 10
36.79029097259036
 20
16.54211059134118
 30
0.0
 40
1.714999999999994
100
AcDbArc
 50
90.0
 51
180.0000000000002
  0
ARC
  5
18C
330
1F
100
AcDbEntity
  8
草图平面 01
100
AcDbCircle
 10
41.07779097259051
 20
13.78096059134118
 30
0.0
 40
1.715000000000001
100
AcDbArc
 50
0.0
 51
90.0
  0
ARC
  5
18D
330
1F
100
AcDbEntity
  8
草图平面 01
100
AcDbCircle
 10
49.63511756137019
 20
18.11263093531392
 30
0.0
 40
1.715000000000001
100
AcDbArc
 50
270.0
 51
0.0
  0
ARC
  5
18E
330
1F
100
AcDbEntity
  8
草图平面 01
100
AcDbCircle
 10
48.57181756137019
 20
15.96888093531392
 30
0.0
 40
0.4287499999999986
100
AcDbArc
 50
90.0
 51
270.0
  0
ARC
  5
18F
330
1F
100
AcDbEntity
  8
草图平面 01
100
AcDbCircle
 10
49.63511756137019
 20
12.41883093531392
 30
0.0
 40
1.714999999999999
100
AcDbArc
 50
270.0
 51
0.0
  0
ARC
  5
190
330
1F
100
AcDbEntity
  8
草图平面 01
100
AcDbCircle
 10
45.34761756137004
 20
20.95953093531392
 30
0.0
 40
1.715000000000008
100
AcDbArc
 50
179.9999999999999
 51
270.0
  0
ARC
  5
191
330
1F
100
AcDbEntity
  8
草图平面 01
100
AcDbCircle
 10
45.34761756137004
 20
16.67203093531392
 30
0.0
 40
1.715000000000001
100
AcDbArc
 50
90.0
 51
180.0
  0
ARC
  5
192
330
1F
100
AcDbEntity
  8
草图平面 01
100
AcDbCircle
 10
49.63511756137019
 20
8.131330935313922
 30
0.0
 40
1.715000000000001
100
AcDbArc
 50
0.0
 51
90.0
  0
ARC
  5
193
330
1F
100
AcDbEntity
  8
草图平面 01
100
AcDbCircle
 10
46.41091756137005
 20
13.12198093531392
 30
0.0
 40
0.4287499999999986
100
AcDbArc
 50
270.0
 51
90.0
  0
ARC
  5
194
330
1F
100
AcDbEntity
  8
草图平面 01
100
AcDbCircle
 10
46.41091756137005
 20
18.81578093531392
 30
0.0
 40
0.4287500000000021
100
AcDbArc
 50
270.0
 51
90.0
  0
ARC
  5
195
330
1F
100
AcDbEntity
  8
草图平面 01
100
AcDbCircle
 10
45.34761756137004
 20
15.26573093531393
 30
0.0
 40
1.715000000000008
100
AcDbArc
 50
180.0
 51
270.0
  0
ARC
  5
196
330
1F
100
AcDbEntity
  8
草图平面 01
100
AcDbCircle
 10
45.34761756137004
 20
10.97823093531392
 30
0.0
 40
1.714999999999999
100
AcDbArc
 50
90.0
 51
180.0
  0
ARC
  5
197
330
1F
100
AcDbEntity
  8
草图平面 01
100
AcDbCircle
 10
49.63511756137019
 20
13.82513093531392
 30
0.0
 40
1.715000000000001
100
AcDbArc
 50
0.0
 51
90.0
  0
ARC
  5
198
330
1F
100
AcDbEntity
  8
草图平面 01
100
AcDbCircle
 10
48.57181756137022
 20
10.27508093531392
 30
0.0
 40
0.4287500000000003
100
AcDbArc
 50
90.0
 51
270.0
  0
ARC
  5
199
330
1F
100
AcDbEntity
  8
草图平面 01
100
AcDbCircle
 10
53.91048969179383
 20
16.7958714681495
 30
0.0
 40
1.715000000000001
100
AcDbArc
 50
90.0
 51
180.0
  0
ARC
  5
19A
330
1F
100
AcDbEntity
  8
草图平面 01
100
AcDbCircle
 10
58.19798969179399
 20
12.2854214681495
 30
0.0
 40
1.714999999999998
100
AcDbArc
 50
270.0
 51
0.0
  0
ARC
  5
19B
330
1F
100
AcDbEntity
  8
草图平面 01
100
AcDbCircle
 10
53.91048969179383
 20
21.08337146814949
 30
0.0
 40
1.715000000000008
100
AcDbArc
 50
180.0
 51
270.0
  0
ARC
  5
19C
330
1F
100
AcDbEntity
  8
草图平面 01
100
AcDbCircle
 10
56.98033969179401
 20
10.1416714681495
 30
0.0
 40
0.4287500000000003
100
AcDbArc
 50
90.0
 51
270.0
  0
ARC
  5
19D
330
1F
100
AcDbEntity
  8
草图平面 01
100
AcDbCircle
 10
56.98033969179399
 20
16.0069714681495
 30
0.0
 40
0.4287499999999986
100
AcDbArc
 50
90.0
 51
270.0
  0
ARC
  5
19E
330
1F
100
AcDbEntity
  8
草图平面 01
100
AcDbCircle
 10
58.19798969179399
 20
18.1507214681495
 30
0.0
 40
1.715000000000005
100
AcDbArc
 50
270.0
 51
0.0
  0
ARC
  5
19F
330
1F
100
AcDbEntity
  8
草图平面 01
100
AcDbCircle
 10
55.12813969179385
 20
18.9396214681495
 30
0.0
 40
0.4287499999999986
100
AcDbArc
 50
270.0
 51
90.0
  0
ARC
  5
1A0
330
1F
100
AcDbEntity
  8
草图平面 01
100
AcDbCircle
 10
55.12813969179385
 20
13.0743214681495
 30
0.0
 40
0.4287499999999986
100
AcDbArc
 50
270.0
 51
90.0
  0
ARC
  5
1A1
330
1F
100
AcDbEntity
  8
草图平面 01
100
AcDbCircle
 10
58.19798969179399
 20
7.997921468149497
 30
0.0
 40
1.715000000000008
100
AcDbArc
 50
0.0
 51
90.0
  0
ARC
  5
1A2
330
1F
100
AcDbEntity
  8
草图平面 01
100
AcDbCircle
 10
53.91048969179383
 20
15.2180714681495
 30
0.0
 40
1.715000000000008
100
AcDbArc
 50
180.0
 51
270.0
  0
ARC
  5
1A3
330
1F
100
AcDbEntity
  8
草图平面 01
100
AcDbCircle
 10
58.19798969179399
 20
13.8632214681495
 30
0.0
 40
1.715000000000008
100
AcDbArc
 50
359.9999999999999
 51
90.0
  0
ARC
  5
1A4
330
1F
100
AcDbEntity
  8
草图平面 01
100
AcDbCircle
 10
53.91048969179383
 20
10.9305714681495
 30
0.0
 40
1.715000000000001
100
AcDbArc
 50
90.0
 51
180.0
  0
ARC
  5
1A5
330
1F
100
AcDbEntity
  8
草图平面 01
100
AcDbCircle
 10
62.5164675474166
 20
15.53201147651561
 30
0.0
 40
1.715000000000008
100
AcDbArc
 50
180.0
 51
270.0
  0
ARC
  5
1A6
330
1F
100
AcDbEntity
  8
草图平面 01
100
AcDbCircle
 10
66.80396754741673
 20
13.5426114765156
 30
0.0
 40
1.714999999999994
100
AcDbArc
 50
359.9999999999999
 51
90.0
  0
ARC
  5
1A7
330
1F
100
AcDbEntity
  8
草图平面 01
100
AcDbCircle
 10
66.80396754741673
 20
8.9464114765156
 30
0.0
 40
1.715000000000008
100
AcDbArc
 50
0.0
 51
90.0
  0
ARC
  5
1A8
330
1F
100
AcDbEntity
  8
草图平面 01
100
AcDbCircle
 10
65.24331754741677
 20
11.0901614765156
 30
0.0
 40
0.4287499999999986
100
AcDbArc
 50
90.0
 51
270.0
  0
ARC
  5
1A9
330
1F
100
AcDbEntity
  8
草图平面 01
100
AcDbCircle
 10
64.07711754741662
 20
13.3882614765156
 30
0.0
 40
0.4287499999999986
100
AcDbArc
 50
270.0
 51
90.0
  0
ARC
  5
1AA
330
1F
100
AcDbEntity
  8
草图平面 01
100
AcDbCircle
 10
64.07711754741662
 20
17.98446147651561
 30
0.0
 40
0.4287500000000021
100
AcDbArc
 50
270.0
 51
90.0
  0
ARC
  5
1AB
330
1F
100
AcDbEntity
  8
草图平面 01
100
AcDbCircle
 10
62.5164675474166
 20
20.12821147651561
 30
0.0
 40
1.715000000000008
100
AcDbArc
 50
179.9999999999993
 51
270.0
  0
ARC
  5
1AC
330
1F
100
AcDbEntity
  8
草图平面 01
100
AcDbCircle
 10
66.80396754741673
 20
13.2339114765156
 30
0.0
 40
1.715000000000001
100
AcDbArc
 50
270.0
 51
0.0
  0
ARC
  5
1AD
330
1F
100
AcDbEntity
  8
草图平面 01
100
AcDbCircle
 10
62.5164675474166
 20
15.8407114765156
 30
0.0
 40
1.714999999999994
100
AcDbArc
 50
90.0
 51
180.0
  0
ARC
  5
1AE
330
1F
100
AcDbEntity
  8
草图平面 01
100
AcDbCircle
 10
62.5164675474166
 20
11.2445114765156
 30
0.0
 40
1.715000000000001
100
AcDbArc
 50
90.0
 51
179.9999999999999
  0
ARC
  5
1AF
330
1F
100
AcDbEntity
  8
草图平面 01
100
AcDbCircle
 10
66.80396754741673
 20
17.8301114765156
 30
0.0
 40
1.715000000000005
100
AcDbArc
 50
270.0
 51
0.0
  0
ARC
  5
1B0
330
1F
100
AcDbEntity
  8
草图平面 01
100
AcDbCircle
 10
65.24331754741675
 20
15.6863614765156
 30
0.0
 40
0.4287500000000021
100
AcDbArc
 50
90.0
 51
270.0
  0
ARC
  5
1B1
330
1F
100
AcDbEntity
  8
草图平面 01
100
AcDbCircle
 10
83.98494540303955
 20
21.08337146814949
 30
0.0
 40
1.715000000000001
100
AcDbArc
 50
270.0
 51
0.0
  0
ARC
  5
1B2
330
1F
100
AcDbEntity
  8
草图平面 01
100
AcDbCircle
 10
79.69744540303938
 20
18.1507214681495
 30
0.0
 40
1.715000000000008
100
AcDbArc
 50
180.0
 51
270.0
  0
ARC
  5
1B3
330
1F
100
AcDbEntity
  8
草图平面 01
100
AcDbCircle
 10
75.37896754741676
 20
20.12821147651561
 30
0.0
 40
1.715000000000001
100
AcDbArc
 50
270.0
 51
0.0000000000001145
  0
ARC
  5
1B4
330
1F
100
AcDbEntity
  8
草图平面 01
100
AcDbCircle
 10
71.09146754741663
 20
17.8301114765156
 30
0.0
 40
1.714999999999994
100
AcDbArc
 50
180.0
 51
270.0
  0
ARC
  5
1B5
330
1F
100
AcDbEntity
  8
草图平面 01
100
AcDbCircle
 10
83.98494540303955
 20
16.7958714681495
 30
0.0
 40
1.715000000000008
100
AcDbArc
 50
0.0
 51
90.0
  0
ARC
  5
1B6
330
1F
100
AcDbEntity
  8
草图平面 01
100
AcDbCircle
 10
100.213344122243
 20
13.16356059134118
 30
0.0
 40
0.4287500000000021
100
AcDbArc
 50
90.0
 51
270.0
  0
ARC
  5
1B7
330
1F
100
AcDbEntity
  8
草图平面 01
100
AcDbCircle
 10
133.5401928995528
 20
16.54977497685901
 30
0.0
 40
0.4287499999999916
100
AcDbArc
 50
270.0
 51
90.0
  0
ARC
  5
1B8
330
1F
100
AcDbEntity
  8
草图平面 01
100
AcDbCircle
 10
79.69744540303938
 20
13.8632214681495
 30
0.0
 40
1.715000000000001
100
AcDbArc
 50
90.0
 51
180.0
  0
ARC
  5
1B9
330
1F
100
AcDbEntity
  8
草图平面 01
100
AcDbCircle
 10
80.91509540303936
 20
10.1416714681495
 30
0.0
 40
0.4287500000000003
100
AcDbArc
 50
270.0
 51
90.0
  0
ARC
  5
1BA
330
1F
100
AcDbEntity
  8
草图平面 01
100
AcDbCircle
 10
123.7206189079494
 20
12.80798023265563
 30
0.0
 40
0.4287499999999986
100
AcDbArc
 50
90.0
 51
270.0
  0
ARC
  5
1BB
330
1F
100
AcDbEntity
  8
草图平面 01
100
AcDbCircle
 10
135.4095428995529
 20
18.41912497685901
 30
0.0
 40
1.715000000000022
100
AcDbArc
 50
0.0
 51
90.0
  0
ARC
  5
1BC
330
1F
100
AcDbEntity
  8
草图平面 01
100
AcDbCircle
 10
83.98494540303955
 20
15.2180714681495
 30
0.0
 40
1.714999999999999
100
AcDbArc
 50
270.0
 51
0.0
  0
ARC
  5
1BD
330
1F
100
AcDbEntity
  8
草图平面 01
100
AcDbCircle
 10
96.81764412224288
 20
18.06846059134118
 30
0.0
 40
1.714999999999994
100
AcDbArc
 50
180.0
 51
270.0
  0
ARC
  5
1BE
330
1F
100
AcDbEntity
  8
草图平面 01
100
AcDbCircle
 10
72.65211754741662
 20
15.6863614765156
 30
0.0
 40
0.4287499999999951
100
AcDbArc
 50
270.0
 51
90.0
  0
ARC
  5
1BF
330
1F
100
AcDbEntity
  8
草图平面 01
100
AcDbCircle
 10
91.48451753346333
 20
18.81578093531392
 30
0.0
 40
0.4287499999999986
100
AcDbArc
 50
90.0
 51
270.0
  0
ARC
  5
1C0
330
1F
100
AcDbEntity
  8
草图平面 01
100
AcDbCircle
 10
82.76729540303954
 20
13.0743214681495
 30
0.0
 40
0.4287500000000021
100
AcDbArc
 50
90.0
 51
270.0
  0
ARC
  5
1C1
330
1F
100
AcDbEntity
  8
草图平面 01
100
AcDbCircle
 10
101.105144122243
 20
16.54211059134118
 30
0.0
 40
1.714999999999994
100
AcDbArc
 50
359.9999999999998
 51
90.0
  0
ARC
  5
1C2
330
1F
100
AcDbEntity
  8
草图平面 01
100
AcDbCircle
 10
126.8247689079495
 20
21.91463023265564
 30
0.0
 40
1.715000000000008
100
AcDbArc
 50
270.0
 51
359.9999999999994
  0
ARC
  5
1C3
330
1F
100
AcDbEntity
  8
草图平面 01
100
AcDbCircle
 10
100.213344122243
 20
18.68586059134118
 30
0.0
 40
0.4287500000000055
100
AcDbArc
 50
90.0
 51
270.0
  0
ARC
  5
1C4
330
1F
100
AcDbEntity
  8
草图平面 01
100
AcDbCircle
 10
109.4764187170387
 20
19.87915247612334
 30
0.0
 40
0.428750000000009
100
AcDbArc
 50
90.0
 51
270.0
  0
ARC
  5
1C5
330
1F
100
AcDbEntity
  8
草图平面 01
100
AcDbCircle
 10
75.37896754741676
 20
15.53201147651561
 30
0.0
 40
1.715000000000003
100
AcDbArc
 50
270.0
 51
0.0
  0
ARC
  5
1C6
330
1F
100
AcDbEntity
  8
草图平面 01
100
AcDbCircle
 10
135.4095428995529
 20
14.68042497685901
 30
0.0
 40
1.715000000000001
100
AcDbArc
 50
270.0
 51
0.0
  0
ARC
  5
1C7
330
1F
100
AcDbEntity
  8
草图平面 01
100
AcDbCircle
 10
126.8247689079495
 20
17.62713023265563
 30
0.0
 40
1.714999999999967
100
AcDbArc
 50
0.0000000000004636
 51
90.0
  0
ARC
  5
1C8
330
1F
100
AcDbEntity
  8
草图平面 01
100
AcDbCircle
 10
126.8247689079495
 20
14.95173023265563
 30
0.0
 40
1.715000000000003
100
AcDbArc
 50
270.0
 51
0.0
  0
ARC
  5
1C9
330
1F
100
AcDbEntity
  8
草图平面 01
100
AcDbCircle
 10
109.6822187170388
 20
22.02290247612333
 30
0.0
 40
1.714999999999994
100
AcDbArc
 50
270.0
 51
0.0000000000012722
  0
ARC
  5
1CA
330
1F
100
AcDbEntity
  8
草图平面 01
100
AcDbCircle
 10
96.81764412224288
 20
8.258660591341174
 30
0.0
 40
1.715000000000001
100
AcDbArc
 50
90.0
 51
180.0
  0
ARC
  5
1CB
330
1F
100
AcDbEntity
  8
草图平面 01
100
AcDbCircle
 10
92.54781753346334
 20
10.97823093531392
 30
0.0
 40
1.714999999999994
100
AcDbArc
 50
0.0
 51
90.0
  0
ARC
  5
1CC
330
1F
100
AcDbEntity
  8
草图平面 01
100
AcDbCircle
 10
71.09146754741663
 20
8.9464114765156
 30
0.0
 40
1.714999999999999
100
AcDbArc
 50
90.0
 51
179.9999999999999
  0
ARC
  5
1CD
330
1F
100
AcDbEntity
  8
草图平面 01
100
AcDbCircle
 10
92.54781753346334
 20
20.95953093531392
 30
0.0
 40
1.715000000000001
100
AcDbArc
 50
270.0
 51
0.0000000000005852
  0
ARC
  5
1CE
330
1F
100
AcDbEntity
  8
草图平面 01
100
AcDbCircle
 10
97.70944412224281
 20
10.40241059134117
 30
0.0
 40
0.4287499999999986
100
AcDbArc
 50
270.0
 51
90.0
  0
ARC
  5
1CF
330
1F
100
AcDbEntity
  8
草图平面 01
100
AcDbCircle
 10
73.81831754741677
 20
17.98446147651561
 30
0.0
 40
0.4287499999999986
100
AcDbArc
 50
90.0
 51
270.0
  0
ARC
  5
1D0
330
1F
100
AcDbEntity
  8
草图平面 01
100
AcDbCircle
 10
79.69744540303938
 20
7.997921468149497
 30
0.0
 40
1.715000000000001
100
AcDbArc
 50
90.0
 51
180.0
  0
ARC
  5
1D1
330
1F
100
AcDbEntity
  8
草图平面 01
100
AcDbCircle
 10
126.8247689079495
 20
10.66423023265562
 30
0.0
 40
1.714999999999967
100
AcDbArc
 50
0.0
 51
90.0
  0
ARC
  5
1D2
330
1F
100
AcDbEntity
  8
草图平面 01
100
AcDbCircle
 10
131.1220428995528
 20
18.69352497685901
 30
0.0
 40
1.715000000000022
100
AcDbArc
 50
180.0
 51
270.0
  0
ARC
  5
1D3
330
1F
100
AcDbEntity
  8
草图平面 01
100
AcDbCircle
 10
72.6521175474166
 20
11.0901614765156
 30
0.0
 40
0.4287500000000003
100
AcDbArc
 50
270.0
 51
90.0
  0
ARC
  5
1D4
330
1F
100
AcDbEntity
  8
草图平面 01
100
AcDbCircle
 10
96.81764412224288
 20
12.54616059134118
 30
0.0
 40
1.714999999999994
100
AcDbArc
 50
180.0
 51
270.0
  0
ARC
  5
1D5
330
1F
100
AcDbEntity
  8
草图平面 01
100
AcDbCircle
 10
122.5372689079493
 20
11.47028023265563
 30
0.0
 40
1.714999999999994
100
AcDbArc
 50
180.0
 51
270.0
  0
ARC
  5
1D6
330
1F
100
AcDbEntity
  8
草图平面 01
100
AcDbCircle
 10
97.70944412224287
 20
15.92471059134118
 30
0.0
 40
0.4287499999999951
100
AcDbArc
 50
270.0
 51
90.0
  0
ARC
  5
1D7
330
1F
100
AcDbEntity
  8
草图平面 01
100
AcDbCircle
 10
132.9913928995529
 20
20.56287497685901
 30
0.0
 40
0.4287500000000021
100
AcDbArc
 50
90.0
 51
270.0
  0
ARC
  5
1D8
330
1F
100
AcDbEntity
  8
草图平面 01
100
AcDbCircle
 10
101.105144122243
 20
15.30731059134118
 30
0.0
 40
1.714999999999998
100
AcDbArc
 50
270.0
 51
0.0
  0
ARC
  5
1D9
330
1F
100
AcDbEntity
  8
草图平面 01
100
AcDbCircle
 10
105.3947187170386
 20
14.18535247612334
 30
0.0
 40
1.715000000000001
100
AcDbArc
 50
90.0
 51
180.0000000000001
  0
ARC
  5
1DA
330
1F
100
AcDbEntity
  8
草图平面 01
100
AcDbCircle
 10
75.37896754741676
 20
15.8407114765156
 30
0.0
 40
1.714999999999994
100
AcDbArc
 50
359.9999999999998
 51
90.0
  0
ARC
  5
1DB
330
1F
100
AcDbEntity
  8
草图平面 01
100
AcDbCircle
 10
92.54781753346334
 20
16.67203093531392
 30
0.0
 40
1.714999999999994
100
AcDbArc
 50
0.0
 51
90.0
  0
ARC
  5
1DC
330
1F
100
AcDbEntity
  8
草图平面 01
100
AcDbCircle
 10
122.5372689079493
 20
14.14568023265564
 30
0.0
 40
1.715000000000005
100
AcDbArc
 50
90.0
 51
180.0000000000001
  0
ARC
  5
1DD
330
1F
100
AcDbEntity
  8
草图平面 01
100
AcDbCircle
 10
101.105144122243
 20
20.82961059134119
 30
0.0
 40
1.715000000000001
100
AcDbArc
 50
270.0
 51
0.0
  0
ARC
  5
1DE
330
1F
100
AcDbEntity
  8
草图平面 01
100
AcDbCircle
 10
88.26031753346318
 20
12.41883093531392
 30
0.0
 40
1.715000000000008
100
AcDbArc
 50
180.0
 51
270.0
  0
ARC
  5
1DF
330
1F
100
AcDbEntity
  8
草图平面 01
100
AcDbCircle
 10
83.98494540303955
 20
10.9305714681495
 30
0.0
 40
1.715000000000008
100
AcDbArc
 50
0.0
 51
90.0
  0
ARC
  5
1E0
330
1F
100
AcDbEntity
  8
草图平面 01
100
AcDbCircle
 10
105.3947187170386
 20
18.47285247612335
 30
0.0
 40
1.715000000000008
100
AcDbArc
 50
180.0
 51
270.0
  0
ARC
  5
1E1
330
1F
100
AcDbEntity
  8
草图平面 01
100
AcDbCircle
 10
88.26031753346318
 20
13.82513093531392
 30
0.0
 40
1.715000000000001
100
AcDbArc
 50
90.0
 51
180.0
  0
ARC
  5
1E2
330
1F
100
AcDbEntity
  8
草图平面 01
100
AcDbCircle
 10
125.6414189079493
 20
16.28943023265564
 30
0.0
 40
0.4287499999999951
100
AcDbArc
 50
270.0
 51
90.0
  0
ARC
  5
1E3
330
1F
100
AcDbEntity
  8
草图平面 01
100
AcDbCircle
 10
88.26031753346318
 20
18.11263093531392
 30
0.0
 40
1.715000000000008
100
AcDbArc
 50
180.0
 51
270.0
  0
ARC
  5
1E4
330
1F
100
AcDbEntity
  8
草图平面 01
100
AcDbCircle
 10
133.5401928995527
 20
8.523574976858974
 30
0.0
 40
0.4287499999999604
100
AcDbArc
 50
270.0
 51
90.0
  0
ARC
  5
1E5
330
1F
100
AcDbEntity
  8
草图平面 01
100
AcDbCircle
 10
105.3947187170386
 20
11.37275247612335
 30
0.0
 40
1.715000000000008
100
AcDbArc
 50
180.0
 51
270.0
  0
ARC
  5
1E6
330
1F
100
AcDbEntity
  8
草图平面 01
100
AcDbCircle
 10
105.3947187170386
 20
7.085252476123344
 30
0.0
 40
1.715000000000001
100
AcDbArc
 50
90.0
 51
180.0
  0
ARC
  5
1E7
330
1F
100
AcDbEntity
  8
草图平面 01
100
AcDbCircle
 10
79.69744540303938
 20
12.2854214681495
 30
0.0
 40
1.715000000000008
100
AcDbArc
 50
180.0
 51
270.0
  0
ARC
  5
1E8
330
1F
100
AcDbEntity
  8
草图平面 01
100
AcDbCircle
 10
73.81831754741677
 20
13.3882614765156
 30
0.0
 40
0.4287500000000021
100
AcDbArc
 50
90.0
 51
270.0
  0
ARC
  5
1E9
330
1F
100
AcDbEntity
  8
草图平面 01
100
AcDbCircle
 10
105.6005187170386
 20
9.229002476123346
 30
0.0
 40
0.4287500000000003
100
AcDbArc
 50
270.0
 51
90.0
  0
ARC
  5
1EA
330
1F
100
AcDbEntity
  8
草图平面 01
100
AcDbCircle
 10
105.6005187170386
 20
16.32910247612334
 30
0.0
 40
0.4287499999999951
100
AcDbArc
 50
270.0
 51
90.0
  0
ARC
  5
1EB
330
1F
100
AcDbEntity
  8
草图平面 01
100
AcDbCircle
 10
109.6822187170388
 20
17.73540247612335
 30
0.0
 40
1.714999999999994
100
AcDbArc
 50
359.9999999999999
 51
90.0
  0
ARC
  5
1EC
330
1F
100
AcDbEntity
  8
草图平面 01
100
AcDbCircle
 10
131.1220428995528
 20
6.379824976859013
 30
0.0
 40
1.715000000000001
100
AcDbArc
 50
90.00000000000186
 51
180.0
  0
ARC
  5
1ED
330
1F
100
AcDbEntity
  8
草图平面 01
100
AcDbCircle
 10
135.4095428995529
 20
22.70662497685901
 30
0.0
 40
1.714999999999998
100
AcDbArc
 50
270.0
 51
0.0
  0
ARC
  5
1EE
330
1F
100
AcDbEntity
  8
草图平面 01
100
AcDbCircle
 10
88.26031753346318
 20
8.131330935313922
 30
0.0
 40
1.714999999999999
100
AcDbArc
 50
90.0
 51
180.0
  0
ARC
  5
1EF
330
1F
100
AcDbEntity
  8
草图平面 01
100
AcDbCircle
 10
122.5372689079493
 20
18.43318023265563
 30
0.0
 40
1.715000000000022
100
AcDbArc
 50
180.0
 51
270.0
  0
ARC
  5
1F0
330
1F
100
AcDbEntity
  8
草图平面 01
100
AcDbCircle
 10
122.5372689079493
 20
7.182780232655626
 30
0.0
 40
1.715
100
AcDbArc
 50
90.0
 51
180.0
  0
ARC
  5
1F1
330
1F
100
AcDbEntity
  8
草图平面 01
100
AcDbCircle
 10
96.81764412224288
 20
13.78096059134118
 30
0.0
 40
1.715000000000001
100
AcDbArc
 50
90.0
 51
180.0
  0
ARC
  5
1F2
330
1F
100
AcDbEntity
  8
草图平面 01
100
AcDbCircle
 10
101.105144122243
 20
11.01981059134117
 30
0.0
 40
1.71499999999998
100
AcDbArc
 50
0.0
 51
89.99999999999955
  0
ARC
  5
1F3
330
1F
100
AcDbEntity
  8
草图平面 01
100
AcDbCircle
 10
71.09146754741663
 20
13.2339114765156
 30
0.0
 40
1.714999999999994
100
AcDbArc
 50
180.0
 51
270.0
  0
ARC
  5
1F4
330
1F
100
AcDbEntity
  8
草图平面 01
100
AcDbCircle
 10
71.09146754741663
 20
13.5426114765156
 30
0.0
 40
1.715000000000001
100
AcDbArc
 50
90.0
 51
180.0
  0
ARC
  5
1F5
330
1F
100
AcDbEntity
  8
草图平面 01
100
AcDbCircle
 10
80.91509540303939
 20
16.0069714681495
 30
0.0
 40
0.4287499999999951
100
AcDbArc
 50
270.0
 51
90.0
  0
ARC
  5
1F6
330
1F
100
AcDbEntity
  8
草图平面 01
100
AcDbCircle
 10
92.54781753346334
 20
15.26573093531393
 30
0.0
 40
1.714999999999999
100
AcDbArc
 50
270.0
 51
0.0
  0
ARC
  5
1F7
330
1F
100
AcDbEntity
  8
草图平面 01
100
AcDbCircle
 10
91.48451753346333
 20
13.12198093531392
 30
0.0
 40
0.4287500000000021
100
AcDbArc
 50
90.0
 51
270.0
  0
ARC
  5
1F8
330
1F
100
AcDbEntity
  8
草图平面 01
100
AcDbCircle
 10
82.76729540303954
 20
18.9396214681495
 30
0.0
 40
0.4287499999999986
100
AcDbArc
 50
90.0
 51
270.0
  0
ENDSEC
  0
SECTION
  2
OBJECTS
  0
DICTIONARY
  5
C
330
0
100
AcDbDictionary
281
     1
  3
ACAD_DETAILVIEWSTYLE
350
230
  3
ACAD_GROUP
350
D
  3
ACAD_LAYOUT
350
1A
  3
ACAD_MATERIAL
350
43
  3
ACAD_MLEADERSTYLE
350
5B
  3
ACAD_MLINESTYLE
350
17
  3
ACAD_PLOTSETTINGS
350
19
  3
ACAD_PLOTSTYLENAME
350
E
  3
ACAD_SCALELIST
350
47
  3
ACAD_SECTIONVIEWSTYLE
350
231
  3
ACAD_TABLESTYLE
350
59
  3
ACAD_VISUALSTYLE
350
2A
  3
AcDbVariableDictionary
350
1F9
  3
ACDB_RECOMPOSE_DATA
350
22D
  0
SUN
  5
5D
330
29
100
AcDbSun
 90
        1
290
     0
 63
     7
421
 16777215
 40
1.0
291
     1
 91
  2455826
 92
 54000000
292
     0
 70
     2
 71
   256
280
     1
  0
DICTIONARY
  5
230
102
{ACAD_REACTORS
330
C
102
}
330
C
100
AcDbDictionary
281
     1
  0
DICTIONARY
  5
D
102
{ACAD_REACTORS
330
C
102
}
330
C
100
AcDbDictionary
281
     1
  0
DICTIONARY
  5
1A
102
{ACAD_REACTORS
330
C
102
}
330
C
100
AcDbDictionary
281
     1
  3
Layout1
350
1E
  3
Layout2
350
26
  3
Model
350
22
  0
DICTIONARY
  5
43
102
{ACAD_REACTORS
330
C
102
}
330
C
100
AcDbDictionary
281
     1
  3
ByBlock
350
45
  3
ByLayer
350
44
  3
Global
350
46
  0
DICTIONARY
  5
5B
102
{ACAD_REACTORS
330
C
102
}
330
C
100
AcDbDictionary
281
     1
  3
Standard
350
5C
  0
DICTIONARY
  5
17
102
{ACAD_REACTORS
330
C
102
}
330
C
100
AcDbDictionary
281
     1
  3
Standard
350
18
  0
DICTIONARY
  5
19
102
{ACAD_REACTORS
330
C
102
}
330
C
100
AcDbDictionary
281
     1
  0
ACDBDICTIONARYWDFLT
  5
E
102
{ACAD_REACTORS
330
C
102
}
330
C
100
AcDbDictionary
281
     1
  3
Normal
350
F
100
AcDbDictionaryWithDefault
340
F
  0
DICTIONARY
  5
47
102
{ACAD_REACTORS
330
C
102
}
330
C
100
AcDbDictionary
281
     1
  3
A0
350
48
  3
A1
350
49
  3
A2
350
4A
  3
A3
350
4B
  3
A4
350
4C
  3
A5
350
4D
  3
A6
350
4E
  3
A7
350
4F
  3
A8
350
50
  3
A9
350
51
  3
B0
350
52
  3
B1
350
53
  3
B2
350
54
  3
B3
350
55
  3
B4
350
56
  3
B5
350
57
  3
B6
350
58
  0
DICTIONARY
  5
231
102
{ACAD_REACTORS
330
C
102
}
330
C
100
AcDbDictionary
281
     1
  0
DICTIONARY
  5
59
102
{ACAD_REACTORS
330
C
102
}
330
C
100
AcDbDictionary
281
     1
  3
Standard
350
5A
  0
DICTIONARY
  5
2A
102
{ACAD_REACTORS
330
C
102
}
330
C
100
AcDbDictionary
281
     1
  3
2dWireframe
350
2F
  3
Basic
350
32
  3
Brighten
350
36
  3
ColorChange
350
3A
  3
Conceptual
350
34
  3
Dim
350
35
  3
EdgeColorOff
350
3D
  3
Facepattern
350
39
  3
Flat
350
2B
  3
FlatWithEdges
350
2C
  3
Gouraud
350
2D
  3
GouraudWithEdges
350
2E
  3
Hidden
350
31
  3
JitterOff
350
3B
  3
Linepattern
350
38
  3
OverhangOff
350
3C
  3
Realistic
350
33
  3
Shaded
350
42
  3
Shaded with edges
350
41
  3
Shades of Gray
350
3E
  3
Sketchy
350
3F
  3
Thicken
350
37
  3
Wireframe
350
30
  3
X-Ray
350
40
  0
DICTIONARY
  5
1F9
102
{ACAD_REACTORS
330
C
102
}
330
C
100
AcDbDictionary
281
     1
  3
CANNOSCALE
350
1FA
  3
CENTEREXE
350
232
  3
CENTERLTYPEFILE
350
233
  3
CMLEADERSTYLE
350
22F
  3
CTABLESTYLE
350
22E
  0
XRECORD
  5
22D
102
{ACAD_REACTORS
330
C
102
}
330
C
100
AcDbXrecord
280
     1
 90
        1
330
5A
  0
LAYOUT
  5
1E
102
{ACAD_REACTORS
330
1A
102
}
330
1A
100
AcDbPlotSettings
  1

  2
none_device
  4

  6

 40
0.0
 41
0.0
 42
0.0
 43
0.0
 44
0.0
 45
0.0
 46
0.0
 47
0.0
 48
0.0
 49
0.0
140
0.0
141
0.0
142
1.0
143
1.0
 70
   688
 72
     1
 73
     0
 74
     5
  7

 75
    16
 76
     0
 77
     2
 78
   300
147
1.0
148
0.0
149
0.0
100
AcDbLayout
  1
Layout1
 70
     1
 71
     1
 10
0.0
 20
0.0
 11
420.0
 21
297.0
 12
0.0
 22
0.0
 32
0.0
 14
1.000000000000000E+20
 24
1.000000000000000E+20
 34
1.000000000000000E+20
 15
-1.000000000000000E+20
 25
-1.000000000000000E+20
 35
-1.000000000000000E+20
146
0.0
 13
0.0
 23
0.0
 33
0.0
 16
1.0
 26
0.0
 36
0.0
 17
0.0
 27
1.0
 37
0.0
 76
     0
330
1B
  0
LAYOUT
  5
26
102
{ACAD_REACTORS
330
1A
102
}
330
1A
100
AcDbPlotSettings
  1

  2
none_device
  4

  6

 40
0.0
 41
0.0
 42
0.0
 43
0.0
 44
0.0
 45
0.0
 46
0.0
 47
0.0
 48
0.0
 49
0.0
140
0.0
141
0.0
142
1.0
143
1.0
 70
   688
 72
     1
 73
     0
 74
     5
  7

 75
    16
 76
     0
 77
     2
 78
   300
147
1.0
148
0.0
149
0.0
100
AcDbLayout
  1
Layout2
 70
     1
 71
     2
 10
0.0
 20
0.0
 11
0.0
 21
0.0
 12
0.0
 22
0.0
 32
0.0
 14
0.0
 24
0.0
 34
0.0
 15
0.0
 25
0.0
 35
0.0
146
0.0
 13
0.0
 23
0.0
 33
0.0
 16
1.0
 26
0.0
 36
0.0
 17
0.0
 27
1.0
 37
0.0
 76
     0
330
23
  0
LAYOUT
  5
22
102
{ACAD_REACTORS
330
1A
102
}
330
1A
100
AcDbPlotSettings
  1

  2
none_device
  4
Letter_(8.50_x_11.00_Inches)
  6

 40
6.35
 41
6.35
 42
6.35000508
 43
6.35000508
 44
215.9
 45
279.4
 46
0.0
 47
0.0
 48
0.0
 49
0.0
140
0.0
141
0.0
142
1.0
143
1.0
 70
  1712
 72
     1
 73
     0
 74
     0
  7

 75
     0
 76
     0
 77
     2
 78
   300
147
1.0
148
0.0
149
0.0
100
AcDbLayout
  1
Model
 70
     1
 71
     0
 10
0.0
 20
0.0
 11
420.0
 21
297.0
 12
0.0
 22
0.0
 32
0.0
 14
1.000000000000000E+20
 24
1.000000000000000E+20
 34
1.000000000000000E+20
 15
-1.000000000000000E+20
 25
-1.000000000000000E+20
 35
-1.000000000000000E+20
146
0.0
 13
0.0
 23
0.0
 33
0.0
 16
1.0
 26
0.0
 36
0.0
 17
0.0
 27
1.0
 37
0.0
 76
     0
330
1F
331
29
  0
MATERIAL
  5
45
102
{ACAD_REACTORS
330
43
102
}
330
43
100
AcDbMaterial
  1
ByBlock
 72
     1
 94
      127
  0
MATERIAL
  5
44
102
{ACAD_REACTORS
330
43
102
}
330
43
100
AcDbMaterial
  1
ByLayer
 72
     1
 94
      127
  0
MATERIAL
  5
46
102
{ACAD_REACTORS
330
43
102
}
330
43
100
AcDbMaterial
  1
Global
 72
     1
 94
      127
  0
MLEADERSTYLE
  5
5C
102
{ACAD_REACTORS
330
5B
102
}
330
5B
100
AcDbMLeaderStyle
179
     2
170
     2
171
     1
172
     0
 90
        2
 40
0.0
 41
0.0
173
     1
 91
-1056964608
340
14
 92
       -2
290
     1
 42
2.0
291
     1
 43
8.0
  3
Standard
341
0
 44
4.0
300

342
11
174
     1
178
     6
175
     1
176
     0
 93
-1056964608
 45
4.0
292
     0
297
     0
 46
4.0
343
0
 94
-1056964608
 47
1.0
 49
1.0
140
1.0
293
     1
141
0.0
294
     1
177
     0
142
1.0
295
     0
296
     0
143
3.75
271
     0
272
     9
273
     9
  0
MLINESTYLE
  5
18
102
{ACAD_REACTORS
330
17
102
}
330
17
100
AcDbMlineStyle
  2
Standard
 70
     0
  3

 62
   256
 51
90.0
 52
90.0
 71
     2
 49
0.5
 62
   256
  6
BYLAYER
 49
-0.5
 62
   256
  6
BYLAYER
  0
ACDBPLACEHOLDER
  5
F
102
{ACAD_REACTORS
330
E
102
}
330
E
  0
SCALE
  5
48
102
{ACAD_REACTORS
330
47
102
}
330
47
100
AcDbScale
 70
     0
300
1:1
140
1.0
141
1.0
290
     1
  0
SCALE
  5
49
102
{ACAD_REACTORS
330
47
102
}
330
47
100
AcDbScale
 70
     0
300
1:2
140
1.0
141
2.0
290
     0
  0
SCALE
  5
4A
102
{ACAD_REACTORS
330
47
102
}
330
47
100
AcDbScale
 70
     0
300
1:4
140
1.0
141
4.0
290
     0
  0
SCALE
  5
4B
102
{ACAD_REACTORS
330
47
102
}
330
47
100
AcDbScale
 70
     0
300
1:5
140
1.0
141
5.0
290
     0
  0
SCALE
  5
4C
102
{ACAD_REACTORS
330
47
102
}
330
47
100
AcDbScale
 70
     0
300
1:8
140
1.0
141
8.0
290
     0
  0
SCALE
  5
4D
102
{ACAD_REACTORS
330
47
102
}
330
47
100
AcDbScale
 70
     0
300
1:10
140
1.0
141
10.0
290
     0
  0
SCALE
  5
4E
102
{ACAD_REACTORS
330
47
102
}
330
47
100
AcDbScale
 70
     0
300
1:16
140
1.0
141
16.0
290
     0
  0
SCALE
  5
4F
102
{ACAD_REACTORS
330
47
102
}
330
47
100
AcDbScale
 70
     0
300
1:20
140
1.0
141
20.0
290
     0
  0
SCALE
  5
50
102
{ACAD_REACTORS
330
47
102
}
330
47
100
AcDbScale
 70
     0
300
1:30
140
1.0
141
30.0
290
     0
  0
SCALE
  5
51
102
{ACAD_REACTORS
330
47
102
}
330
47
100
AcDbScale
 70
     0
300
1:40
140
1.0
141
40.0
290
     0
  0
SCALE
  5
52
102
{ACAD_REACTORS
330
47
102
}
330
47
100
AcDbScale
 70
     0
300
1:50
140
1.0
141
50.0
290
     0
  0
SCALE
  5
53
102
{ACAD_REACTORS
330
47
102
}
330
47
100
AcDbScale
 70
     0
300
1:100
140
1.0
141
100.0
290
     0
  0
SCALE
  5
54
102
{ACAD_REACTORS
330
47
102
}
330
47
100
AcDbScale
 70
     0
300
2:1
140
2.0
141
1.0
290
     0
  0
SCALE
  5
55
102
{ACAD_REACTORS
330
47
102
}
330
47
100
AcDbScale
 70
     0
300
4:1
140
4.0
141
1.0
290
     0
  0
SCALE
  5
56
102
{ACAD_REACTORS
330
47
102
}
330
47
100
AcDbScale
 70
     0
300
8:1
140
8.0
141
1.0
290
     0
  0
SCALE
  5
57
102
{ACAD_REACTORS
330
47
102
}
330
47
100
AcDbScale
 70
     0
300
10:1
140
10.0
141
1.0
290
     0
  0
SCALE
  5
58
102
{ACAD_REACTORS
330
47
102
}
330
47
100
AcDbScale
 70
     0
300
100:1
140
100.0
141
1.0
290
     0
  0
TABLESTYLE
  5
5A
102
{ACAD_REACTORS
330
59
102
}
102
{ACAD_XDICTIONARY
360
22B
102
}
330
59
100
AcDbTableStyle
  3
Standard
 70
     0
 71
     0
 40
0.06
 41
0.06
280
     0
281
     0
  7
Standard
140
4.5
170
     2
 62
     0
 63
   257
283
     0
 90
        4
 91
        0
  1

274
    -2
284
     1
 64
     0
275
    -2
285
     1
 65
     0
276
    -2
286
     1
 66
     0
277
    -2
287
     1
 67
     0
278
    -2
288
     1
 68
     0
279
    -2
289
     1
 69
     0
  7
Standard
140
6.0
170
     5
 62
     0
 63
   257
283
     0
 90
        4
 91
        0
  1

274
    -2
284
     1
 64
     0
275
    -2
285
     1
 65
     0
276
    -2
286
     1
 66
     0
277
    -2
287
     1
 67
     0
278
    -2
288
     1
 68
     0
279
    -2
289
     1
 69
     0
  7
Standard
140
4.5
170
     5
 62
     0
 63
   257
283
     0
 90
        4
 91
        0
  1

274
    -2
284
     1
 64
     0
275
    -2
285
     1
 65
     0
276
    -2
286
     1
 66
     0
277
    -2
287
     1
 67
     0
278
    -2
288
     1
 68
     0
279
    -2
289
     1
 69
     0
  0
VISUALSTYLE
  5
2F
102
{ACAD_REACTORS
330
2A
102
}
102
{ACAD_XDICTIONARY
360
203
102
}
330
2A
100
AcDbVisualStyle
  2
2dWireframe
 70
     4
177
     2
291
     0
 71
     0
176
     1
 72
     2
176
     1
 73
     0
176
     1
 90
        0
176
     1
 40
0.6
176
     1
 41
30.0
176
     1
 62
     5
 63
     7
421
 16777215
176
     1
 74
     1
176
     1
 91
        4
176
     1
 64
     7
176
     1
 65
   257
176
     1
 75
     1
176
     1
175
     1
176
     1
 42
1.0
176
     1
 92
        0
176
     1
 66
   257
176
     1
 43
1.0
176
     1
 76
     1
176
     1
 77
     6
176
     1
 78
     2
176
     1
 67
     7
176
     1
 79
     5
176
     1
170
     0
176
     1
171
     0
176
     1
290
     0
176
     1
 93
        1
176
     1
 44
0.0
176
     1
173
     0
176
     1
  0
VISUALSTYLE
  5
32
102
{ACAD_REACTORS
330
2A
102
}
102
{ACAD_XDICTIONARY
360
209
102
}
330
2A
100
AcDbVisualStyle
  2
Basic
 70
     7
177
     2
291
     1
 71
     1
176
     1
 72
     0
176
     1
 73
     1
176
     1
 90
        0
176
     1
 40
0.6
176
     1
 41
30.0
176
     1
 62
     5
 63
     7
421
 16777215
176
     1
 74
     0
176
     1
 91
        4
176
     1
 64
     7
176
     1
 65
   257
176
     1
 75
     1
176
     1
175
     1
176
     1
 42
1.0
176
     1
 92
        8
176
     1
 66
     7
176
     1
 43
1.0
176
     1
 76
     1
176
     1
 77
     6
176
     1
 78
     2
176
     1
 67
     7
176
     1
 79
     5
176
     1
170
     0
176
     1
171
     0
176
     1
290
     0
176
     1
 93
        1
176
     1
 44
0.0
176
     1
173
     0
176
     1
  0
VISUALSTYLE
  5
36
102
{ACAD_REACTORS
330
2A
102
}
102
{ACAD_XDICTIONARY
360
211
102
}
330
2A
100
AcDbVisualStyle
  2
Brighten
 70
    12
177
     2
291
     1
 71
     2
176
     1
 72
     2
176
     1
 73
     0
176
     1
 90
        0
176
     1
 40
0.6
176
     1
 41
30.0
176
     1
 62
     5
 63
     7
421
 16777215
176
     1
 74
     1
176
     1
 91
        4
176
     1
 64
     7
176
     1
 65
   257
176
     1
 75
     1
176
     1
175
     1
176
     1
 42
1.0
176
     1
 92
        8
176
     1
 66
     7
176
     1
 43
1.0
176
     1
 76
     1
176
     1
 77
     6
176
     1
 78
     2
176
     1
 67
     7
176
     1
 79
     5
176
     1
170
     0
176
     1
171
     0
176
     1
290
     0
176
     1
 93
        1
176
     1
 44
50.0
176
     1
173
     0
176
     1
  0
VISUALSTYLE
  5
3A
102
{ACAD_REACTORS
330
2A
102
}
102
{ACAD_XDICTIONARY
360
219
102
}
330
2A
100
AcDbVisualStyle
  2
ColorChange
 70
    16
177
     2
291
     1
 71
     2
176
     1
 72
     2
176
     1
 73
     3
176
     1
 90
        0
176
     1
 40
0.6
176
     1
 41
30.0
176
     1
 62
     5
 63
     8
421
  8421504
176
     1
 74
     1
176
     1
 91
        4
176
     1
 64
     7
176
     1
 65
   257
176
     1
 75
     1
176
     1
175
     1
176
     1
 42
1.0
176
     1
 92
        8
176
     1
 66
     8
424
  8421504
176
     1
 43
1.0
176
     1
 76
     1
176
     1
 77
     6
176
     1
 78
     2
176
     1
 67
     7
176
     1
 79
     5
176
     1
170
     0
176
     1
171
     0
176
     1
290
     0
176
     1
 93
        1
176
     1
 44
0.0
176
     1
173
     0
176
     1
  0
VISUALSTYLE
  5
34
102
{ACAD_REACTORS
330
2A
102
}
102
{ACAD_XDICTIONARY
360
20D
102
}
330
2A
100
AcDbVisualStyle
  2
Conceptual
 70
     9
177
     2
291
     0
 71
     3
176
     1
 72
     2
176
     1
 73
     0
176
     1
 90
        0
176
     1
 40
0.6
176
     1
 41
30.0
176
     1
 62
     5
 63
     7
421
 16777215
176
     1
 74
     2
176
     1
 91
        2
176
     1
 64
     7
176
     1
 65
   257
176
     1
 75
     1
176
     1
175
     1
176
     1
 42
179.0
176
     1
 92
        8
176
     1
 66
     7
176
     1
 43
1.0
176
     1
 76
     1
176
     1
 77
     6
176
     1
 78
     2
176
     1
 67
     7
176
     1
 79
     3
176
     1
170
     0
176
     1
171
     0
176
     1
290
     0
176
     1
 93
        1
176
     1
 44
0.0
176
     1
173
     0
176
     1
  0
VISUALSTYLE
  5
35
102
{ACAD_REACTORS
330
2A
102
}
102
{ACAD_XDICTIONARY
360
20F
102
}
330
2A
100
AcDbVisualStyle
  2
Dim
 70
    11
177
     2
291
     1
 71
     2
176
     1
 72
     2
176
     1
 73
     0
176
     1
 90
        0
176
     1
 40
0.6
176
     1
 41
30.0
176
     1
 62
     5
 63
     7
421
 16777215
176
     1
 74
     1
176
     1
 91
        4
176
     1
 64
     7
176
     1
 65
   257
176
     1
 75
     1
176
     1
175
     1
176
     1
 42
1.0
176
     1
 92
        8
176
     1
 66
     7
176
     1
 43
1.0
176
     1
 76
     1
176
     1
 77
     6
176
     1
 78
     2
176
     1
 67
     7
176
     1
 79
     5
176
     1
170
     0
176
     1
171
     0
176
     1
290
     0
176
     1
 93
        1
176
     1
 44
-50.0
176
     1
173
     0
176
     1
  0
VISUALSTYLE
  5
3D
102
{ACAD_REACTORS
330
2A
102
}
102
{ACAD_XDICTIONARY
360
21F
102
}
330
2A
100
AcDbVisualStyle
  2
EdgeColorOff
 70
    22
177
     2
291
     1
 71
     2
176
     0
 72
     2
176
     0
 73
     0
176
     0
 90
        0
176
     0
 40
0.6
176
     0
 41
30.0
176
     0
 62
     5
 63
     7
421
 16777215
176
     0
 74
     1
176
     0
 91
        4
176
     0
 64
     7
176
     0
 65
   257
176
     0
 75
     1
176
     0
175
     1
176
     0
 42
1.0
176
     0
 92
        8
176
     2
 66
     7
176
     0
 43
1.0
176
     0
 76
     1
176
     0
 77
     6
176
     0
 78
     2
176
     0
 67
     7
176
     0
 79
     5
176
     0
170
     0
176
     0
171
     0
176
     0
290
     0
176
     0
 93
        1
176
     0
 44
0.0
176
     0
173
     0
176
     0
  0
VISUALSTYLE
  5
39
102
{ACAD_REACTORS
330
2A
102
}
102
{ACAD_XDICTIONARY
360
217
102
}
330
2A
100
AcDbVisualStyle
  2
Facepattern
 70
    15
177
     2
291
     1
 71
     2
176
     1
 72
     2
176
     1
 73
     0
176
     1
 90
        0
176
     1
 40
0.6
176
     1
 41
30.0
176
     1
 62
     5
 63
     7
421
 16777215
176
     1
 74
     1
176
     1
 91
        4
176
     1
 64
     7
176
     1
 65
   257
176
     1
 75
     1
176
     1
175
     1
176
     1
 42
1.0
176
     1
 92
        8
176
     1
 66
     7
176
     1
 43
1.0
176
     1
 76
     1
176
     1
 77
     6
176
     1
 78
     2
176
     1
 67
     7
176
     1
 79
     5
176
     1
170
     0
176
     1
171
     0
176
     1
290
     0
176
     1
 93
        1
176
     1
 44
0.0
176
     1
173
     0
176
     1
  0
VISUALSTYLE
  5
2B
102
{ACAD_REACTORS
330
2A
102
}
102
{ACAD_XDICTIONARY
360
1FB
102
}
330
2A
100
AcDbVisualStyle
  2
Flat
 70
     0
177
     2
291
     1
 71
     2
176
     1
 72
     1
176
     1
 73
     1
176
     1
 90
        2
176
     1
 40
0.6
176
     1
 41
30.0
176
     1
 62
     5
 63
     7
421
 16777215
176
     1
 74
     0
176
     1
 91
        0
176
     1
 64
     7
176
     1
 65
   257
176
     1
 75
     1
176
     1
175
     1
176
     1
 42
1.0
176
     1
 92
        8
176
     1
 66
     7
176
     1
 43
1.0
176
     1
 76
     1
176
     1
 77
     6
176
     1
 78
     2
176
     1
 67
     7
176
     1
 79
     5
176
     1
170
     0
176
     1
171
     0
176
     1
290
     0
176
     1
 93
       13
176
     1
 44
0.0
176
     1
173
     0
176
     1
  0
VISUALSTYLE
  5
2C
102
{ACAD_REACTORS
330
2A
102
}
102
{ACAD_XDICTIONARY
360
1FD
102
}
330
2A
100
AcDbVisualStyle
  2
FlatWithEdges
 70
     1
177
     2
291
     1
 71
     2
176
     1
 72
     1
176
     1
 73
     1
176
     1
 90
        2
176
     1
 40
0.6
176
     1
 41
30.0
176
     1
 62
     5
 63
     7
421
 16777215
176
     1
 74
     1
176
     1
 91
        0
176
     1
 64
     7
176
     1
 65
   257
176
     1
 75
     1
176
     1
175
     1
176
     1
 42
1.0
176
     1
 92
        0
176
     1
 66
   257
176
     1
 43
1.0
176
     1
 76
     1
176
     1
 77
     6
176
     1
 78
     2
176
     1
 67
     7
176
     1
 79
     5
176
     1
170
     0
176
     1
171
     0
176
     1
290
     0
176
     1
 93
       13
176
     1
 44
0.0
176
     1
173
     0
176
     1
  0
VISUALSTYLE
  5
2D
102
{ACAD_REACTORS
330
2A
102
}
102
{ACAD_XDICTIONARY
360
1FF
102
}
330
2A
100
AcDbVisualStyle
  2
Gouraud
 70
     2
177
     2
291
     1
 71
     2
176
     1
 72
     2
176
     1
 73
     1
176
     1
 90
        2
176
     1
 40
0.6
176
     1
 41
30.0
176
     1
 62
     5
 63
     7
421
 16777215
176
     1
 74
     0
176
     1
 91
        0
176
     1
 64
     7
176
     1
 65
   257
176
     1
 75
     1
176
     1
175
     1
176
     1
 42
1.0
176
     1
 92
        0
176
     1
 66
     7
176
     1
 43
1.0
176
     1
 76
     1
176
     1
 77
     6
176
     1
 78
     2
176
     1
 67
     7
176
     1
 79
     5
176
     1
170
     0
176
     1
171
     0
176
     1
290
     0
176
     1
 93
       13
176
     1
 44
0.0
176
     1
173
     0
176
     1
  0
VISUALSTYLE
  5
2E
102
{ACAD_REACTORS
330
2A
102
}
102
{ACAD_XDICTIONARY
360
201
102
}
330
2A
100
AcDbVisualStyle
  2
GouraudWithEdges
 70
     3
177
     2
291
     1
 71
     2
176
     1
 72
     2
176
     1
 73
     1
176
     1
 90
        2
176
     1
 40
0.6
176
     1
 41
30.0
176
     1
 62
     5
 63
     7
421
 16777215
176
     1
 74
     1
176
     1
 91
        0
176
     1
 64
     7
176
     1
 65
   257
176
     1
 75
     1
176
     1
175
     1
176
     1
 42
1.0
176
     1
 92
        0
176
     1
 66
   257
176
     1
 43
1.0
176
     1
 76
     1
176
     1
 77
     6
176
     1
 78
     2
176
     1
 67
     7
176
     1
 79
     5
176
     1
170
     0
176
     1
171
     0
176
     1
290
     0
176
     1
 93
       13
176
     1
 44
0.0
176
     1
173
     0
176
     1
  0
VISUALSTYLE
  5
31
102
{ACAD_REACTORS
330
2A
102
}
102
{ACAD_XDICTIONARY
360
207
102
}
330
2A
100
AcDbVisualStyle
  2
Hidden
 70
     6
177
     2
291
     0
 71
     1
176
     1
 72
     2
176
     1
 73
     2
176
     1
 90
        0
176
     1
 40
0.6
176
     1
 41
30.0
176
     1
 62
     5
 63
     7
421
 16777215
176
     1
 74
     2
176
     1
 91
        2
176
     1
 64
     7
176
     1
 65
   257
176
     1
 75
     2
176
     1
175
     1
176
     1
 42
40.0
176
     1
 92
        0
176
     1
 66
   257
176
     1
 43
1.0
176
     1
 76
     1
176
     1
 77
     6
176
     1
 78
     2
176
     1
 67
     7
176
     1
 79
     3
176
     1
170
     0
176
     1
171
     0
176
     1
290
     0
176
     1
 93
        1
176
     1
 44
0.0
176
     1
173
     0
176
     1
  0
VISUALSTYLE
  5
3B
102
{ACAD_REACTORS
330
2A
102
}
102
{ACAD_XDICTIONARY
360
21B
102
}
330
2A
100
AcDbVisualStyle
  2
JitterOff
 70
    20
177
     2
291
     1
 71
     2
176
     0
 72
     2
176
     0
 73
     0
176
     0
 90
        0
176
     0
 40
0.6
176
     0
 41
30.0
176
     0
 62
     5
 63
     7
421
 16777215
176
     0
 74
     1
176
     0
 91
        4
176
     0
 64
     7
176
     0
 65
   257
176
     0
 75
     1
176
     0
175
     1
176
     0
 42
1.0
176
     0
 92
       10
176
     2
 66
     7
176
     0
 43
1.0
176
     0
 76
     1
176
     0
 77
     6
176
     0
 78
     2
176
     0
 67
     7
176
     0
 79
     5
176
     0
170
     0
176
     0
171
     0
176
     0
290
     0
176
     0
 93
        1
176
     0
 44
0.0
176
     0
173
     0
176
     0
  0
VISUALSTYLE
  5
38
102
{ACAD_REACTORS
330
2A
102
}
102
{ACAD_XDICTIONARY
360
215
102
}
330
2A
100
AcDbVisualStyle
  2
Linepattern
 70
    14
177
     2
291
     1
 71
     2
176
     1
 72
     2
176
     1
 73
     0
176
     1
 90
        0
176
     1
 40
0.6
176
     1
 41
30.0
176
     1
 62
     5
 63
     7
421
 16777215
176
     1
 74
     1
176
     1
 91
        4
176
     1
 64
     7
176
     1
 65
   257
176
     1
 75
     7
176
     1
175
     7
176
     1
 42
1.0
176
     1
 92
        8
176
     1
 66
     7
176
     1
 43
1.0
176
     1
 76
     1
176
     1
 77
     6
176
     1
 78
     2
176
     1
 67
     7
176
     1
 79
     5
176
     1
170
     0
176
     1
171
     0
176
     1
290
     0
176
     1
 93
        1
176
     1
 44
0.0
176
     1
173
     0
176
     1
  0
VISUALSTYLE
  5
3C
102
{ACAD_REACTORS
330
2A
102
}
102
{ACAD_XDICTIONARY
360
21D
102
}
330
2A
100
AcDbVisualStyle
  2
OverhangOff
 70
    21
177
     2
291
     1
 71
     2
176
     0
 72
     2
176
     0
 73
     0
176
     0
 90
        0
176
     0
 40
0.6
176
     0
 41
30.0
176
     0
 62
     5
 63
     7
421
 16777215
176
     0
 74
     1
176
     0
 91
        4
176
     0
 64
     7
176
     0
 65
   257
176
     0
 75
     1
176
     0
175
     1
176
     0
 42
1.0
176
     0
 92
        9
176
     2
 66
     7
176
     0
 43
1.0
176
     0
 76
     1
176
     0
 77
     6
176
     0
 78
     2
176
     0
 67
     7
176
     0
 79
     5
176
     0
170
     0
176
     0
171
     0
176
     0
290
     0
176
     0
 93
        1
176
     0
 44
0.0
176
     0
173
     0
176
     0
  0
VISUALSTYLE
  5
33
102
{ACAD_REACTORS
330
2A
102
}
102
{ACAD_XDICTIONARY
360
20B
102
}
330
2A
100
AcDbVisualStyle
  2
Realistic
 70
     8
177
     2
291
     0
 71
     2
176
     1
 72
     3
176
     1
 73
     0
176
     1
 90
        2
176
     1
 40
0.6
176
     1
 41
30.0
176
     1
 62
     5
 63
     7
421
 16777215
176
     1
 74
     0
176
     1
 91
        0
176
     1
 64
     7
176
     1
 65
   257
176
     1
 75
     1
176
     1
175
     1
176
     1
 42
1.0
176
     1
 92
        8
176
     1
 66
   257
176
     1
 43
1.0
176
     1
 76
     1
176
     1
 77
     6
176
     1
 78
     2
176
     1
 67
     7
176
     1
 79
     3
176
     1
170
     0
176
     1
171
     0
176
     1
290
     0
176
     1
 93
       13
176
     1
 44
0.0
176
     1
173
     0
176
     1
  0
VISUALSTYLE
  5
42
102
{ACAD_REACTORS
330
2A
102
}
102
{ACAD_XDICTIONARY
360
229
102
}
330
2A
100
AcDbVisualStyle
  2
Shaded
 70
    27
177
     2
291
     0
 71
     2
176
     1
 72
     2
176
     1
 73
     1
176
     1
 90
        2
176
     1
 40
0.6
176
     1
 41
30.0
176
     1
 62
     5
 63
     7
421
 16777215
176
     1
 74
     0
176
     1
 91
        4
176
     1
 64
     7
176
     1
 65
   257
176
     1
 75
     1
176
     1
175
     1
176
     1
 42
1.0
176
     1
 92
        8
176
     1
 66
   257
176
     1
 43
1.0
176
     1
 76
     1
176
     1
 77
     6
176
     1
 78
     2
176
     1
 67
     8
425
  7895160
176
     1
 79
     3
176
     1
170
     0
176
     1
171
     0
176
     1
290
     0
176
     1
 93
        5
176
     1
 44
0.0
176
     1
173
     0
176
     1
  0
VISUALSTYLE
  5
41
102
{ACAD_REACTORS
330
2A
102
}
102
{ACAD_XDICTIONARY
360
227
102
}
330
2A
100
AcDbVisualStyle
  2
Shaded with edges
 70
    26
177
     2
291
     0
 71
     2
176
     1
 72
     2
176
     1
 73
     1
176
     1
 90
        2
176
     1
 40
0.6
176
     1
 41
30.0
176
     1
 62
     5
 63
     7
421
 16777215
176
     1
 74
     1
176
     1
 91
       10
176
     1
 64
     7
176
     1
 65
   257
176
     1
 75
     2
176
     1
175
     1
176
     1
 42
1.0
176
     1
 92
        8
176
     1
 66
   257
176
     1
 43
1.0
176
     1
 76
     1
176
     1
 77
     6
176
     1
 78
     2
176
     1
 67
     7
176
     1
 79
     3
176
     1
170
     0
176
     1
171
     0
176
     1
290
     0
176
     1
 93
        5
176
     1
 44
0.0
176
     1
173
     0
176
     1
  0
VISUALSTYLE
  5
3E
102
{ACAD_REACTORS
330
2A
102
}
102
{ACAD_XDICTIONARY
360
221
102
}
330
2A
100
AcDbVisualStyle
  2
Shades of Gray
 70
    23
177
     2
291
     0
 71
     2
176
     1
 72
     2
176
     1
 73
     3
176
     1
 90
        0
176
     1
 40
0.6
176
     1
 41
30.0
176
     1
 62
     5
 63
     7
421
 16777215
176
     1
 74
     2
176
     1
 91
        2
176
     1
 64
     7
176
     1
 65
     7
176
     1
 75
     1
176
     1
175
     1
176
     1
 42
40.0
176
     1
 92
        8
176
     1
 66
     7
176
     1
 43
1.0
176
     1
 76
     1
176
     1
 77
     6
176
     1
 78
     2
176
     1
 67
     7
176
     1
 79
     3
176
     1
170
     0
176
     1
171
     0
176
     1
290
     0
176
     1
 93
        1
176
     1
 44
0.0
176
     1
173
     0
176
     1
  0
VISUALSTYLE
  5
3F
102
{ACAD_REACTORS
330
2A
102
}
102
{ACAD_XDICTIONARY
360
223
102
}
330
2A
100
AcDbVisualStyle
  2
Sketchy
 70
    24
177
     2
291
     0
 71
     1
176
     1
 72
     2
176
     1
 73
     2
176
     1
 90
        0
176
     1
 40
0.6
176
     1
 41
30.0
176
     1
 62
     5
 63
     7
421
 16777215
176
     1
 74
     2
176
     1
 91
        2
176
     1
 64
     7
176
     1
 65
     7
176
     1
 75
     1
176
     1
175
     1
176
     1
 42
40.0
176
     1
 92
       11
176
     1
 66
     7
176
     1
 43
1.0
176
     1
 76
     1
176
     1
 77
     6
176
     1
 78
     2
176
     1
 67
     7
176
     1
 79
     6
176
     1
170
     0
176
     1
171
     0
176
     1
290
     0
176
     1
 93
        1
176
     1
 44
0.0
176
     1
173
     0
176
     1
  0
VISUALSTYLE
  5
37
102
{ACAD_REACTORS
330
2A
102
}
102
{ACAD_XDICTIONARY
360
213
102
}
330
2A
100
AcDbVisualStyle
  2
Thicken
 70
    13
177
     2
291
     1
 71
     2
176
     1
 72
     2
176
     1
 73
     0
176
     1
 90
        0
176
     1
 40
0.6
176
     1
 41
30.0
176
     1
 62
     5
 63
     7
421
 16777215
176
     1
 74
     1
176
     1
 91
        4
176
     1
 64
     7
176
     1
 65
   257
176
     1
 75
     1
176
     1
175
     1
176
     1
 42
1.0
176
     1
 92
       12
176
     1
 66
     7
176
     1
 43
1.0
176
     1
 76
     1
176
     1
 77
     6
176
     1
 78
     2
176
     1
 67
     7
176
     1
 79
     5
176
     1
170
     0
176
     1
171
     0
176
     1
290
     0
176
     1
 93
        1
176
     1
 44
0.0
176
     1
173
     0
176
     1
  0
VISUALSTYLE
  5
30
102
{ACAD_REACTORS
330
2A
102
}
102
{ACAD_XDICTIONARY
360
205
102
}
330
2A
100
AcDbVisualStyle
  2
Wireframe
 70
     5
177
     2
291
     0
 71
     0
176
     1
 72
     2
176
     1
 73
     0
176
     1
 90
        0
176
     1
 40
0.6
176
     1
 41
30.0
176
     1
 62
     5
 63
     7
421
 16777215
176
     1
 74
     1
176
     1
 91
        4
176
     1
 64
     7
176
     1
 65
   257
176
     1
 75
     1
176
     1
175
     1
176
     1
 42
1.0
176
     1
 92
        0
176
     1
 66
   257
176
     1
 43
1.0
176
     1
 76
     1
176
     1
 77
     6
176
     1
 78
     2
176
     1
 67
     7
176
     1
 79
     3
176
     1
170
     0
176
     1
171
     0
176
     1
290
     0
176
     1
 93
        1
176
     1
 44
0.0
176
     1
173
     0
176
     1
  0
VISUALSTYLE
  5
40
102
{ACAD_REACTORS
330
2A
102
}
102
{ACAD_XDICTIONARY
360
225
102
}
330
2A
100
AcDbVisualStyle
  2
X-Ray
 70
    25
177
     2
291
     0
 71
     2
176
     1
 72
     2
176
     1
 73
     1
176
     1
 90
        1
176
     1
 40
0.5
176
     1
 41
30.0
176
     1
 62
     5
 63
     7
421
 16777215
176
     1
 74
     1
176
     1
 91
        0
176
     1
 64
     7
176
     1
 65
   257
176
     1
 75
     1
176
     1
175
     1
176
     1
 42
1.0
176
     1
 92
        8
176
     1
 66
     7
176
     1
 43
1.0
176
     1
 76
     1
176
     1
 77
     6
176
     1
 78
     2
176
     1
 67
     7
176
     1
 79
     3
176
     1
170
     0
176
     1
171
     0
176
     1
290
     0
176
     1
 93
       13
176
     1
 44
0.0
176
     1
173
     0
176
     1
  0
DICTIONARYVAR
  5
1FA
102
{ACAD_REACTORS
330
1F9
102
}
330
1F9
100
DictionaryVariables
280
     0
  1
1:1
  0
DICTIONARYVAR
  5
232
102
{ACAD_REACTORS
330
1F9
102
}
330
1F9
100
DictionaryVariables
280
     0
  1
3.500000
  0
DICTIONARYVAR
  5
233
102
{ACAD_REACTORS
330
1F9
102
}
330
1F9
100
DictionaryVariables
280
     0
  1
acadiso.lin
  0
DICTIONARYVAR
  5
22F
102
{ACAD_REACTORS
330
1F9
102
}
330
1F9
100
DictionaryVariables
280
     0
  1
Standard
  0
DICTIONARYVAR
  5
22E
102
{ACAD_REACTORS
330
1F9
102
}
330
1F9
100
DictionaryVariables
280
     0
  1
Standard
  0
DICTIONARY
  5
22B
330
5A
100
AcDbDictionary
280
     1
281
     1
  3
ACAD_ROUNDTRIP_2008_TABLESTYLE_CELLSTYLEMAP
360
22C
  0
DICTIONARY
  5
203
330
2F
100
AcDbDictionary
280
     1
281
     1
  3
ACAD_XREC_ROUNDTRIP
360
204
  0
DICTIONARY
  5
209
330
32
100
AcDbDictionary
280
     1
281
     1
  3
ACAD_XREC_ROUNDTRIP
360
20A
  0
DICTIONARY
  5
211
330
36
100
AcDbDictionary
280
     1
281
     1
  3
ACAD_XREC_ROUNDTRIP
360
212
  0
DICTIONARY
  5
219
330
3A
100
AcDbDictionary
280
     1
281
     1
  3
ACAD_XREC_ROUNDTRIP
360
21A
  0
DICTIONARY
  5
20D
330
34
100
AcDbDictionary
280
     1
281
     1
  3
ACAD_XREC_ROUNDTRIP
360
20E
  0
DICTIONARY
  5
20F
330
35
100
AcDbDictionary
280
     1
281
     1
  3
ACAD_XREC_ROUNDTRIP
360
210
  0
DICTIONARY
  5
21F
330
3D
100
AcDbDictionary
280
     1
281
     1
  3
ACAD_XREC_ROUNDTRIP
360
220
  0
DICTIONARY
  5
217
330
39
100
AcDbDictionary
280
     1
281
     1
  3
ACAD_XREC_ROUNDTRIP
360
218
  0
DICTIONARY
  5
1FB
330
2B
100
AcDbDictionary
280
     1
281
     1
  3
ACAD_XREC_ROUNDTRIP
360
1FC
  0
DICTIONARY
  5
1FD
330
2C
100
AcDbDictionary
280
     1
281
     1
  3
ACAD_XREC_ROUNDTRIP
360
1FE
  0
DICTIONARY
  5
1FF
330
2D
100
AcDbDictionary
280
     1
281
     1
  3
ACAD_XREC_ROUNDTRIP
360
200
  0
DICTIONARY
  5
201
330
2E
100
AcDbDictionary
280
     1
281
     1
  3
ACAD_XREC_ROUNDTRIP
360
202
  0
DICTIONARY
  5
207
330
31
100
AcDbDictionary
280
     1
281
     1
  3
ACAD_XREC_ROUNDTRIP
360
208
  0
DICTIONARY
  5
21B
330
3B
100
AcDbDictionary
280
     1
281
     1
  3
ACAD_XREC_ROUNDTRIP
360
21C
  0
DICTIONARY
  5
215
330
38
100
AcDbDictionary
280
     1
281
     1
  3
ACAD_XREC_ROUNDTRIP
360
216
  0
DICTIONARY
  5
21D
330
3C
100
AcDbDictionary
280
     1
281
     1
  3
ACAD_XREC_ROUNDTRIP
360
21E
  0
DICTIONARY
  5
20B
330
33
100
AcDbDictionary
280
     1
281
     1
  3
ACAD_XREC_ROUNDTRIP
360
20C
  0
DICTIONARY
  5
229
330
42
100
AcDbDictionary
280
     1
281
     1
  3
ACAD_XREC_ROUNDTRIP
360
22A
  0
DICTIONARY
  5
227
330
41
100
AcDbDictionary
280
     1
281
     1
  3
ACAD_XREC_ROUNDTRIP
360
228
  0
DICTIONARY
  5
221
330
3E
100
AcDbDictionary
280
     1
281
     1
  3
ACAD_XREC_ROUNDTRIP
360
222
  0
DICTIONARY
  5
223
330
3F
100
AcDbDictionary
280
     1
281
     1
  3
ACAD_XREC_ROUNDTRIP
360
224
  0
DICTIONARY
  5
213
330
37
100
AcDbDictionary
280
     1
281
     1
  3
ACAD_XREC_ROUNDTRIP
360
214
  0
DICTIONARY
  5
205
330
30
100
AcDbDictionary
280
     1
281
     1
  3
ACAD_XREC_ROUNDTRIP
360
206
  0
DICTIONARY
  5
225
330
40
100
AcDbDictionary
280
     1
281
     1
  3
ACAD_XREC_ROUNDTRIP
360
226
  0
CELLSTYLEMAP
  5
22C
102
{ACAD_REACTORS
330
22B
102
}
330
22B
100
AcDbCellStyleMap
 90
        3
300
CELLSTYLE
  1
TABLEFORMAT_BEGIN
 90
        5
170
     1
 91
        0
 92
    32768
 62
   257
 93
        1
300
CONTENTFORMAT
  1
CONTENTFORMAT_BEGIN
 90
        0
 91
        0
 92
        4
 93
        0
300

 40
0.0
140
1.0
 94
        5
 62
     0
340
11
144
6.0
309
CONTENTFORMAT_END
171
     1
301
MARGIN
  1
CELLMARGIN_BEGIN
 40
1.5
 40
1.5
 40
1.5
 40
1.5
 40
1.5
 40
1.5
309
CELLMARGIN_END
 94
        6
 95
        1
302
GRIDFORMAT
  1
GRIDFORMAT_BEGIN
 90
        0
 91
        1
 62
     0
 92
       -2
340
14
 93
        0
 40
0.045
309
GRIDFORMAT_END
 95
        2
302
GRIDFORMAT
  1
GRIDFORMAT_BEGIN
 90
        0
 91
        1
 62
     0
 92
       -2
340
14
 93
        0
 40
0.045
309
GRIDFORMAT_END
 95
        4
302
GRIDFORMAT
  1
GRIDFORMAT_BEGIN
 90
        0
 91
        1
 62
     0
 92
       -2
340
14
 93
        0
 40
0.045
309
GRIDFORMAT_END
 95
        8
302
GRIDFORMAT
  1
GRIDFORMAT_BEGIN
 90
        0
 91
        1
 62
     0
 92
       -2
340
14
 93
        0
 40
0.045
309
GRIDFORMAT_END
 95
       16
302
GRIDFORMAT
  1
GRIDFORMAT_BEGIN
 90
        0
 91
        1
 62
     0
 92
       -2
340
14
 93
        0
 40
0.045
309
GRIDFORMAT_END
 95
       32
302
GRIDFORMAT
  1
GRIDFORMAT_BEGIN
 90
        0
 91
        1
 62
     0
 92
       -2
340
14
 93
        0
 40
0.045
309
GRIDFORMAT_END
309
TABLEFORMAT_END
  1
CELLSTYLE_BEGIN
 90
        1
 91
        1
300
_TITLE
309
CELLSTYLE_END
300
CELLSTYLE
  1
TABLEFORMAT_BEGIN
 90
        5
170
     1
 91
        0
 92
        0
 62
   257
 93
        1
300
CONTENTFORMAT
  1
CONTENTFORMAT_BEGIN
 90
        0
 91
        0
 92
        4
 93
        0
300

 40
0.0
140
1.0
 94
        5
 62
     0
340
11
144
4.5
309
CONTENTFORMAT_END
171
     1
301
MARGIN
  1
CELLMARGIN_BEGIN
 40
1.5
 40
1.5
 40
1.5
 40
1.5
 40
1.5
 40
1.5
309
CELLMARGIN_END
 94
        6
 95
        1
302
GRIDFORMAT
  1
GRIDFORMAT_BEGIN
 90
        0
 91
        1
 62
     0
 92
       -2
340
14
 93
        0
 40
0.045
309
GRIDFORMAT_END
 95
        2
302
GRIDFORMAT
  1
GRIDFORMAT_BEGIN
 90
        0
 91
        1
 62
     0
 92
       -2
340
14
 93
        0
 40
0.045
309
GRIDFORMAT_END
 95
        4
302
GRIDFORMAT
  1
GRIDFORMAT_BEGIN
 90
        0
 91
        1
 62
     0
 92
       -2
340
14
 93
        0
 40
0.045
309
GRIDFORMAT_END
 95
        8
302
GRIDFORMAT
  1
GRIDFORMAT_BEGIN
 90
        0
 91
        1
 62
     0
 92
       -2
340
14
 93
        0
 40
0.045
309
GRIDFORMAT_END
 95
       16
302
GRIDFORMAT
  1
GRIDFORMAT_BEGIN
 90
        0
 91
        1
 62
     0
 92
       -2
340
14
 93
        0
 40
0.045
309
GRIDFORMAT_END
 95
       32
302
GRIDFORMAT
  1
GRIDFORMAT_BEGIN
 90
        0
 91
        1
 62
     0
 92
       -2
340
14
 93
        0
 40
0.045
309
GRIDFORMAT_END
309
TABLEFORMAT_END
  1
CELLSTYLE_BEGIN
 90
        2
 91
        1
300
_HEADER
309
CELLSTYLE_END
300
CELLSTYLE
  1
TABLEFORMAT_BEGIN
 90
        5
170
     1
 91
        0
 92
        0
 62
   257
 93
        1
300
CONTENTFORMAT
  1
CONTENTFORMAT_BEGIN
 90
        0
 91
        0
 92
        4
 93
        0
300

 40
0.0
140
1.0
 94
        2
 62
     0
340
11
144
4.5
309
CONTENTFORMAT_END
171
     1
301
MARGIN
  1
CELLMARGIN_BEGIN
 40
1.5
 40
1.5
 40
1.5
 40
1.5
 40
1.5
 40
1.5
309
CELLMARGIN_END
 94
        6
 95
        1
302
GRIDFORMAT
  1
GRIDFORMAT_BEGIN
 90
        0
 91
        1
 62
     0
 92
       -2
340
14
 93
        0
 40
0.045
309
GRIDFORMAT_END
 95
        2
302
GRIDFORMAT
  1
GRIDFORMAT_BEGIN
 90
        0
 91
        1
 62
     0
 92
       -2
340
14
 93
        0
 40
0.045
309
GRIDFORMAT_END
 95
        4
302
GRIDFORMAT
  1
GRIDFORMAT_BEGIN
 90
        0
 91
        1
 62
     0
 92
       -2
340
14
 93
        0
 40
0.045
309
GRIDFORMAT_END
 95
        8
302
GRIDFORMAT
  1
GRIDFORMAT_BEGIN
 90
        0
 91
        1
 62
     0
 92
       -2
340
14
 93
        0
 40
0.045
309
GRIDFORMAT_END
 95
       16
302
GRIDFORMAT
  1
GRIDFORMAT_BEGIN
 90
        0
 91
        1
 62
     0
 92
       -2
340
14
 93
        0
 40
0.045
309
GRIDFORMAT_END
 95
       32
302
GRIDFORMAT
  1
GRIDFORMAT_BEGIN
 90
        0
 91
        1
 62
     0
 92
       -2
340
14
 93
        0
 40
0.045
309
GRIDFORMAT_END
309
TABLEFORMAT_END
  1
CELLSTYLE_BEGIN
 90
        3
 91
        2
300
_DATA
309
CELLSTYLE_END
  0
XRECORD
  5
204
102
{ACAD_REACTORS
330
203
102
}
330
203
100
AcDbXrecord
280
     1
102
RTVSPost2010Prop28
280
     1
102
RTVSPost2010PropOp28
 70
     1
102
RTVSPost2010Prop29
280
     1
102
RTVSPost2010PropOp29
 70
     1
102
RTVSPost2010Prop30
280
     0
102
RTVSPost2010PropOp30
 70
     1
102
RTVSPost2010Prop31
280
     0
102
RTVSPost2010PropOp31
 70
     1
102
RTVSPost2010Prop32
280
     0
102
RTVSPost2010PropOp32
 70
     1
102
RTVSPost2010Prop33
280
     0
102
RTVSPost2010PropOp33
 70
     1
102
RTVSPost2010Prop34
280
     0
102
RTVSPost2010PropOp34
 70
     1
102
RTVSPost2010Prop35
280
     0
102
RTVSPost2010PropOp35
 70
     1
102
RTVSPost2010Prop36
280
     0
102
RTVSPost2010PropOp36
 70
     1
102
RTVSPost2010Prop37
 90
       50
102
RTVSPost2010PropOp37
 70
     1
102
RTVSPost2010Prop38
140
0.0
102
RTVSPost2010PropOp38
 70
     1
102
RTVSPost2010Prop39
140
1.0
102
RTVSPost2010PropOp39
 70
     1
102
RTVSPost2010Prop40
 90
        0
102
RTVSPost2010PropOp40
 70
     1
102
RTVSPost2010Prop41ColorIndex
 90
       18
102
RTVSPost2010Prop41ColorRGB
 90
        0
102
RTVSPost2010PropOp41
 70
     1
102
RTVSPost2010Prop42
 90
       50
102
RTVSPost2010PropOp42
 70
     1
102
RTVSPost2010Prop43
 90
        3
102
RTVSPost2010PropOp43
 70
     1
102
RTVSPost2010Prop44ColorIndex
 90
        5
102
RTVSPost2010Prop44ColorRGB
 90
      255
102
RTVSPost2010PropOp44
 70
     1
102
RTVSPost2010Prop45
280
     0
102
RTVSPost2010PropOp45
 70
     1
102
RTVSPost2010Prop46
 90
       50
102
RTVSPost2010PropOp46
 70
     1
102
RTVSPost2010Prop47
 90
       50
102
RTVSPost2010PropOp47
 70
     1
102
RTVSPost2010Prop48
 90
       50
102
RTVSPost2010PropOp48
 70
     1
102
RTVSPost2010Prop49
280
     0
102
RTVSPost2010PropOp49
 70
     1
102
RTVSPost2010Prop50
 90
       50
102
RTVSPost2010PropOp50
 70
     1
102
RTVSPost2010Prop51ColorIndex
 90
      256
102
RTVSPost2010Prop51ColorRGB
 90
-16777216
102
RTVSPost2010PropOp51
 70
     0
102
RTVSPost2010Prop52
140
1.0
102
RTVSPost2010PropOp52
 70
     0
102
RTVSPost2010Prop53
 90
        2
102
RTVSPost2010PropOp53
 70
     1
102
RTVSPost2010Prop54
  1
strokes_ogs.tif
102
RTVSPost2010PropOp54
 70
     1
102
RTVSPost2010Prop55
280
     0
102
RTVSPost2010PropOp55
 70
     1
102
RTVSPost2010Prop56
140
1.0
102
RTVSPost2010PropOp56
 70
     1
102
RTVSPost2010Prop57
140
1.0
102
RTVSPost2010PropOp57
 70
     1
  0
XRECORD
  5
20A
102
{ACAD_REACTORS
330
209
102
}
330
209
100
AcDbXrecord
280
     1
102
RTVSPost2010Prop28
280
     0
102
RTVSPost2010PropOp28
 70
     1
102
RTVSPost2010Prop29
280
     1
102
RTVSPost2010PropOp29
 70
     1
102
RTVSPost2010Prop30
280
     1
102
RTVSPost2010PropOp30
 70
     1
102
RTVSPost2010Prop31
280
     0
102
RTVSPost2010PropOp31
 70
     1
102
RTVSPost2010Prop32
280
     0
102
RTVSPost2010PropOp32
 70
     1
102
RTVSPost2010Prop33
280
     0
102
RTVSPost2010PropOp33
 70
     1
102
RTVSPost2010Prop34
280
     0
102
RTVSPost2010PropOp34
 70
     1
102
RTVSPost2010Prop35
280
     0
102
RTVSPost2010PropOp35
 70
     1
102
RTVSPost2010Prop36
280
     0
102
RTVSPost2010PropOp36
 70
     1
102
RTVSPost2010Prop37
 90
       50
102
RTVSPost2010PropOp37
 70
     1
102
RTVSPost2010Prop38
140
0.0
102
RTVSPost2010PropOp38
 70
     1
102
RTVSPost2010Prop39
140
1.0
102
RTVSPost2010PropOp39
 70
     1
102
RTVSPost2010Prop40
 90
        0
102
RTVSPost2010PropOp40
 70
     1
102
RTVSPost2010Prop41ColorIndex
 90
       18
102
RTVSPost2010Prop41ColorRGB
 90
        0
102
RTVSPost2010PropOp41
 70
     1
102
RTVSPost2010Prop42
 90
       50
102
RTVSPost2010PropOp42
 70
     1
102
RTVSPost2010Prop43
 90
        3
102
RTVSPost2010PropOp43
 70
     1
102
RTVSPost2010Prop44ColorIndex
 90
        5
102
RTVSPost2010Prop44ColorRGB
 90
      255
102
RTVSPost2010PropOp44
 70
     1
102
RTVSPost2010Prop45
280
     0
102
RTVSPost2010PropOp45
 70
     1
102
RTVSPost2010Prop46
 90
       50
102
RTVSPost2010PropOp46
 70
     1
102
RTVSPost2010Prop47
 90
       50
102
RTVSPost2010PropOp47
 70
     1
102
RTVSPost2010Prop48
 90
       50
102
RTVSPost2010PropOp48
 70
     1
102
RTVSPost2010Prop49
280
     0
102
RTVSPost2010PropOp49
 70
     1
102
RTVSPost2010Prop50
 90
       50
102
RTVSPost2010PropOp50
 70
     1
102
RTVSPost2010Prop51ColorIndex
 90
      256
102
RTVSPost2010Prop51ColorRGB
 90
-16777216
102
RTVSPost2010PropOp51
 70
     0
102
RTVSPost2010Prop52
140
1.0
102
RTVSPost2010PropOp52
 70
     0
102
RTVSPost2010Prop53
 90
        2
102
RTVSPost2010PropOp53
 70
     1
102
RTVSPost2010Prop54
  1
strokes_ogs.tif
102
RTVSPost2010PropOp54
 70
     1
102
RTVSPost2010Prop55
280
     0
102
RTVSPost2010PropOp55
 70
     1
102
RTVSPost2010Prop56
140
1.0
102
RTVSPost2010PropOp56
 70
     1
102
RTVSPost2010Prop57
140
1.0
102
RTVSPost2010PropOp57
 70
     1
  0
XRECORD
  5
212
102
{ACAD_REACTORS
330
211
102
}
330
211
100
AcDbXrecord
280
     1
102
RTVSPost2010Prop28
280
     0
102
RTVSPost2010PropOp28
 70
     1
102
RTVSPost2010Prop29
280
     1
102
RTVSPost2010PropOp29
 70
     1
102
RTVSPost2010Prop30
280
     1
102
RTVSPost2010PropOp30
 70
     1
102
RTVSPost2010Prop31
280
     0
102
RTVSPost2010PropOp31
 70
     1
102
RTVSPost2010Prop32
280
     0
102
RTVSPost2010PropOp32
 70
     1
102
RTVSPost2010Prop33
280
     0
102
RTVSPost2010PropOp33
 70
     1
102
RTVSPost2010Prop34
280
     0
102
RTVSPost2010PropOp34
 70
     1
102
RTVSPost2010Prop35
280
     0
102
RTVSPost2010PropOp35
 70
     1
102
RTVSPost2010Prop36
280
     0
102
RTVSPost2010PropOp36
 70
     1
102
RTVSPost2010Prop37
 90
       50
102
RTVSPost2010PropOp37
 70
     1
102
RTVSPost2010Prop38
140
0.0
102
RTVSPost2010PropOp38
 70
     1
102
RTVSPost2010Prop39
140
1.0
102
RTVSPost2010PropOp39
 70
     1
102
RTVSPost2010Prop40
 90
        0
102
RTVSPost2010PropOp40
 70
     1
102
RTVSPost2010Prop41ColorIndex
 90
       18
102
RTVSPost2010Prop41ColorRGB
 90
        0
102
RTVSPost2010PropOp41
 70
     1
102
RTVSPost2010Prop42
 90
       50
102
RTVSPost2010PropOp42
 70
     1
102
RTVSPost2010Prop43
 90
        3
102
RTVSPost2010PropOp43
 70
     1
102
RTVSPost2010Prop44ColorIndex
 90
        5
102
RTVSPost2010Prop44ColorRGB
 90
      255
102
RTVSPost2010PropOp44
 70
     1
102
RTVSPost2010Prop45
280
     0
102
RTVSPost2010PropOp45
 70
     1
102
RTVSPost2010Prop46
 90
       50
102
RTVSPost2010PropOp46
 70
     1
102
RTVSPost2010Prop47
 90
       50
102
RTVSPost2010PropOp47
 70
     1
102
RTVSPost2010Prop48
 90
       50
102
RTVSPost2010PropOp48
 70
     1
102
RTVSPost2010Prop49
280
     0
102
RTVSPost2010PropOp49
 70
     1
102
RTVSPost2010Prop50
 90
       50
102
RTVSPost2010PropOp50
 70
     1
102
RTVSPost2010Prop51ColorIndex
 90
      256
102
RTVSPost2010Prop51ColorRGB
 90
-16777216
102
RTVSPost2010PropOp51
 70
     0
102
RTVSPost2010Prop52
140
1.0
102
RTVSPost2010PropOp52
 70
     0
102
RTVSPost2010Prop53
 90
        2
102
RTVSPost2010PropOp53
 70
     1
102
RTVSPost2010Prop54
  1
strokes_ogs.tif
102
RTVSPost2010PropOp54
 70
     1
102
RTVSPost2010Prop55
280
     0
102
RTVSPost2010PropOp55
 70
     1
102
RTVSPost2010Prop56
140
1.0
102
RTVSPost2010PropOp56
 70
     1
102
RTVSPost2010Prop57
140
1.0
102
RTVSPost2010PropOp57
 70
     1
  0
XRECORD
  5
21A
102
{ACAD_REACTORS
330
219
102
}
330
219
100
AcDbXrecord
280
     1
102
RTVSPost2010Prop28
280
     0
102
RTVSPost2010PropOp28
 70
     1
102
RTVSPost2010Prop29
280
     1
102
RTVSPost2010PropOp29
 70
     1
102
RTVSPost2010Prop30
280
     1
102
RTVSPost2010PropOp30
 70
     1
102
RTVSPost2010Prop31
280
     0
102
RTVSPost2010PropOp31
 70
     1
102
RTVSPost2010Prop32
280
     0
102
RTVSPost2010PropOp32
 70
     1
102
RTVSPost2010Prop33
280
     0
102
RTVSPost2010PropOp33
 70
     1
102
RTVSPost2010Prop34
280
     0
102
RTVSPost2010PropOp34
 70
     1
102
RTVSPost2010Prop35
280
     0
102
RTVSPost2010PropOp35
 70
     1
102
RTVSPost2010Prop36
280
     0
102
RTVSPost2010PropOp36
 70
     1
102
RTVSPost2010Prop37
 90
       50
102
RTVSPost2010PropOp37
 70
     1
102
RTVSPost2010Prop38
140
0.0
102
RTVSPost2010PropOp38
 70
     1
102
RTVSPost2010Prop39
140
1.0
102
RTVSPost2010PropOp39
 70
     1
102
RTVSPost2010Prop40
 90
        0
102
RTVSPost2010PropOp40
 70
     1
102
RTVSPost2010Prop41ColorIndex
 90
       18
102
RTVSPost2010Prop41ColorRGB
 90
        0
102
RTVSPost2010PropOp41
 70
     1
102
RTVSPost2010Prop42
 90
       50
102
RTVSPost2010PropOp42
 70
     1
102
RTVSPost2010Prop43
 90
        3
102
RTVSPost2010PropOp43
 70
     1
102
RTVSPost2010Prop44ColorIndex
 90
        5
102
RTVSPost2010Prop44ColorRGB
 90
      255
102
RTVSPost2010PropOp44
 70
     1
102
RTVSPost2010Prop45
280
     0
102
RTVSPost2010PropOp45
 70
     1
102
RTVSPost2010Prop46
 90
       50
102
RTVSPost2010PropOp46
 70
     1
102
RTVSPost2010Prop47
 90
       50
102
RTVSPost2010PropOp47
 70
     1
102
RTVSPost2010Prop48
 90
       50
102
RTVSPost2010PropOp48
 70
     1
102
RTVSPost2010Prop49
280
     0
102
RTVSPost2010PropOp49
 70
     1
102
RTVSPost2010Prop50
 90
       50
102
RTVSPost2010PropOp50
 70
     1
102
RTVSPost2010Prop51ColorIndex
 90
      256
102
RTVSPost2010Prop51ColorRGB
 90
-16777216
102
RTVSPost2010PropOp51
 70
     0
102
RTVSPost2010Prop52
140
1.0
102
RTVSPost2010PropOp52
 70
     0
102
RTVSPost2010Prop53
 90
        2
102
RTVSPost2010PropOp53
 70
     1
102
RTVSPost2010Prop54
  1
strokes_ogs.tif
102
RTVSPost2010PropOp54
 70
     1
102
RTVSPost2010Prop55
280
     0
102
RTVSPost2010PropOp55
 70
     1
102
RTVSPost2010Prop56
140
1.0
102
RTVSPost2010PropOp56
 70
     1
102
RTVSPost2010Prop57
140
1.0
102
RTVSPost2010PropOp57
 70
     1
  0
XRECORD
  5
20E
102
{ACAD_REACTORS
330
20D
102
}
330
20D
100
AcDbXrecord
280
     1
102
RTVSPost2010Prop28
280
     0
102
RTVSPost2010PropOp28
 70
     1
102
RTVSPost2010Prop29
280
     1
102
RTVSPost2010PropOp29
 70
     1
102
RTVSPost2010Prop30
280
     1
102
RTVSPost2010PropOp30
 70
     1
102
RTVSPost2010Prop31
280
     0
102
RTVSPost2010PropOp31
 70
     1
102
RTVSPost2010Prop32
280
     0
102
RTVSPost2010PropOp32
 70
     1
102
RTVSPost2010Prop33
280
     0
102
RTVSPost2010PropOp33
 70
     1
102
RTVSPost2010Prop34
280
     0
102
RTVSPost2010PropOp34
 70
     1
102
RTVSPost2010Prop35
280
     0
102
RTVSPost2010PropOp35
 70
     1
102
RTVSPost2010Prop36
280
     0
102
RTVSPost2010PropOp36
 70
     1
102
RTVSPost2010Prop37
 90
       50
102
RTVSPost2010PropOp37
 70
     1
102
RTVSPost2010Prop38
140
0.0
102
RTVSPost2010PropOp38
 70
     1
102
RTVSPost2010Prop39
140
1.0
102
RTVSPost2010PropOp39
 70
     1
102
RTVSPost2010Prop40
 90
        0
102
RTVSPost2010PropOp40
 70
     1
102
RTVSPost2010Prop41ColorIndex
 90
       18
102
RTVSPost2010Prop41ColorRGB
 90
        0
102
RTVSPost2010PropOp41
 70
     1
102
RTVSPost2010Prop42
 90
       50
102
RTVSPost2010PropOp42
 70
     1
102
RTVSPost2010Prop43
 90
        3
102
RTVSPost2010PropOp43
 70
     1
102
RTVSPost2010Prop44ColorIndex
 90
        5
102
RTVSPost2010Prop44ColorRGB
 90
      255
102
RTVSPost2010PropOp44
 70
     1
102
RTVSPost2010Prop45
280
     0
102
RTVSPost2010PropOp45
 70
     1
102
RTVSPost2010Prop46
 90
       50
102
RTVSPost2010PropOp46
 70
     1
102
RTVSPost2010Prop47
 90
       50
102
RTVSPost2010PropOp47
 70
     1
102
RTVSPost2010Prop48
 90
       50
102
RTVSPost2010PropOp48
 70
     1
102
RTVSPost2010Prop49
280
     0
102
RTVSPost2010PropOp49
 70
     1
102
RTVSPost2010Prop50
 90
       50
102
RTVSPost2010PropOp50
 70
     1
102
RTVSPost2010Prop51ColorIndex
 90
      256
102
RTVSPost2010Prop51ColorRGB
 90
-16777216
102
RTVSPost2010PropOp51
 70
     0
102
RTVSPost2010Prop52
140
1.0
102
RTVSPost2010PropOp52
 70
     0
102
RTVSPost2010Prop53
 90
        2
102
RTVSPost2010PropOp53
 70
     1
102
RTVSPost2010Prop54
  1
strokes_ogs.tif
102
RTVSPost2010PropOp54
 70
     1
102
RTVSPost2010Prop55
280
     0
102
RTVSPost2010PropOp55
 70
     1
102
RTVSPost2010Prop56
140
1.0
102
RTVSPost2010PropOp56
 70
     1
102
RTVSPost2010Prop57
140
1.0
102
RTVSPost2010PropOp57
 70
     1
  0
XRECORD
  5
210
102
{ACAD_REACTORS
330
20F
102
}
330
20F
100
AcDbXrecord
280
     1
102
RTVSPost2010Prop28
280
     0
102
RTVSPost2010PropOp28
 70
     1
102
RTVSPost2010Prop29
280
     1
102
RTVSPost2010PropOp29
 70
     1
102
RTVSPost2010Prop30
280
     1
102
RTVSPost2010PropOp30
 70
     1
102
RTVSPost2010Prop31
280
     0
102
RTVSPost2010PropOp31
 70
     1
102
RTVSPost2010Prop32
280
     0
102
RTVSPost2010PropOp32
 70
     1
102
RTVSPost2010Prop33
280
     0
102
RTVSPost2010PropOp33
 70
     1
102
RTVSPost2010Prop34
280
     0
102
RTVSPost2010PropOp34
 70
     1
102
RTVSPost2010Prop35
280
     0
102
RTVSPost2010PropOp35
 70
     1
102
RTVSPost2010Prop36
280
     0
102
RTVSPost2010PropOp36
 70
     1
102
RTVSPost2010Prop37
 90
       50
102
RTVSPost2010PropOp37
 70
     1
102
RTVSPost2010Prop38
140
0.0
102
RTVSPost2010PropOp38
 70
     1
102
RTVSPost2010Prop39
140
1.0
102
RTVSPost2010PropOp39
 70
     1
102
RTVSPost2010Prop40
 90
        0
102
RTVSPost2010PropOp40
 70
     1
102
RTVSPost2010Prop41ColorIndex
 90
       18
102
RTVSPost2010Prop41ColorRGB
 90
        0
102
RTVSPost2010PropOp41
 70
     1
102
RTVSPost2010Prop42
 90
       50
102
RTVSPost2010PropOp42
 70
     1
102
RTVSPost2010Prop43
 90
        3
102
RTVSPost2010PropOp43
 70
     1
102
RTVSPost2010Prop44ColorIndex
 90
        5
102
RTVSPost2010Prop44ColorRGB
 90
      255
102
RTVSPost2010PropOp44
 70
     1
102
RTVSPost2010Prop45
280
     0
102
RTVSPost2010PropOp45
 70
     1
102
RTVSPost2010Prop46
 90
       50
102
RTVSPost2010PropOp46
 70
     1
102
RTVSPost2010Prop47
 90
       50
102
RTVSPost2010PropOp47
 70
     1
102
RTVSPost2010Prop48
 90
       50
102
RTVSPost2010PropOp48
 70
     1
102
RTVSPost2010Prop49
280
     0
102
RTVSPost2010PropOp49
 70
     1
102
RTVSPost2010Prop50
 90
       50
102
RTVSPost2010PropOp50
 70
     1
102
RTVSPost2010Prop51ColorIndex
 90
      256
102
RTVSPost2010Prop51ColorRGB
 90
-16777216
102
RTVSPost2010PropOp51
 70
     0
102
RTVSPost2010Prop52
140
1.0
102
RTVSPost2010PropOp52
 70
     0
102
RTVSPost2010Prop53
 90
        2
102
RTVSPost2010PropOp53
 70
     1
102
RTVSPost2010Prop54
  1
strokes_ogs.tif
102
RTVSPost2010PropOp54
 70
     1
102
RTVSPost2010Prop55
280
     0
102
RTVSPost2010PropOp55
 70
     1
102
RTVSPost2010Prop56
140
1.0
102
RTVSPost2010PropOp56
 70
     1
102
RTVSPost2010Prop57
140
1.0
102
RTVSPost2010PropOp57
 70
     1
  0
XRECORD
  5
220
102
{ACAD_REACTORS
330
21F
102
}
330
21F
100
AcDbXrecord
280
     1
102
RTVSPost2010Prop28
280
     0
102
RTVSPost2010PropOp28
 70
     0
102
RTVSPost2010Prop29
280
     1
102
RTVSPost2010PropOp29
 70
     0
102
RTVSPost2010Prop30
280
     1
102
RTVSPost2010PropOp30
 70
     0
102
RTVSPost2010Prop31
280
     0
102
RTVSPost2010PropOp31
 70
     0
102
RTVSPost2010Prop32
280
     0
102
RTVSPost2010PropOp32
 70
     0
102
RTVSPost2010Prop33
280
     0
102
RTVSPost2010PropOp33
 70
     0
102
RTVSPost2010Prop34
280
     0
102
RTVSPost2010PropOp34
 70
     0
102
RTVSPost2010Prop35
280
     0
102
RTVSPost2010PropOp35
 70
     0
102
RTVSPost2010Prop36
280
     0
102
RTVSPost2010PropOp36
 70
     0
102
RTVSPost2010Prop37
 90
       50
102
RTVSPost2010PropOp37
 70
     0
102
RTVSPost2010Prop38
140
0.0
102
RTVSPost2010PropOp38
 70
     0
102
RTVSPost2010Prop39
140
1.0
102
RTVSPost2010PropOp39
 70
     0
102
RTVSPost2010Prop40
 90
        0
102
RTVSPost2010PropOp40
 70
     0
102
RTVSPost2010Prop41ColorIndex
 90
       18
102
RTVSPost2010Prop41ColorRGB
 90
        0
102
RTVSPost2010PropOp41
 70
     0
102
RTVSPost2010Prop42
 90
       50
102
RTVSPost2010PropOp42
 70
     0
102
RTVSPost2010Prop43
 90
        3
102
RTVSPost2010PropOp43
 70
     0
102
RTVSPost2010Prop44ColorIndex
 90
        5
102
RTVSPost2010Prop44ColorRGB
 90
      255
102
RTVSPost2010PropOp44
 70
     0
102
RTVSPost2010Prop45
280
     0
102
RTVSPost2010PropOp45
 70
     0
102
RTVSPost2010Prop46
 90
       50
102
RTVSPost2010PropOp46
 70
     0
102
RTVSPost2010Prop47
 90
       50
102
RTVSPost2010PropOp47
 70
     0
102
RTVSPost2010Prop48
 90
       50
102
RTVSPost2010PropOp48
 70
     0
102
RTVSPost2010Prop49
280
     0
102
RTVSPost2010PropOp49
 70
     0
102
RTVSPost2010Prop50
 90
       50
102
RTVSPost2010PropOp50
 70
     0
102
RTVSPost2010Prop51ColorIndex
 90
      256
102
RTVSPost2010Prop51ColorRGB
 90
-16777216
102
RTVSPost2010PropOp51
 70
     0
102
RTVSPost2010Prop52
140
1.0
102
RTVSPost2010PropOp52
 70
     0
102
RTVSPost2010Prop53
 90
        2
102
RTVSPost2010PropOp53
 70
     0
102
RTVSPost2010Prop54
  1
strokes_ogs.tif
102
RTVSPost2010PropOp54
 70
     0
102
RTVSPost2010Prop55
280
     0
102
RTVSPost2010PropOp55
 70
     0
102
RTVSPost2010Prop56
140
1.0
102
RTVSPost2010PropOp56
 70
     0
102
RTVSPost2010Prop57
140
1.0
102
RTVSPost2010PropOp57
 70
     0
  0
XRECORD
  5
218
102
{ACAD_REACTORS
330
217
102
}
330
217
100
AcDbXrecord
280
     1
102
RTVSPost2010Prop28
280
     0
102
RTVSPost2010PropOp28
 70
     1
102
RTVSPost2010Prop29
280
     1
102
RTVSPost2010PropOp29
 70
     1
102
RTVSPost2010Prop30
280
     1
102
RTVSPost2010PropOp30
 70
     1
102
RTVSPost2010Prop31
280
     0
102
RTVSPost2010PropOp31
 70
     1
102
RTVSPost2010Prop32
280
     0
102
RTVSPost2010PropOp32
 70
     1
102
RTVSPost2010Prop33
280
     0
102
RTVSPost2010PropOp33
 70
     1
102
RTVSPost2010Prop34
280
     0
102
RTVSPost2010PropOp34
 70
     1
102
RTVSPost2010Prop35
280
     0
102
RTVSPost2010PropOp35
 70
     1
102
RTVSPost2010Prop36
280
     0
102
RTVSPost2010PropOp36
 70
     1
102
RTVSPost2010Prop37
 90
       50
102
RTVSPost2010PropOp37
 70
     1
102
RTVSPost2010Prop38
140
0.0
102
RTVSPost2010PropOp38
 70
     1
102
RTVSPost2010Prop39
140
1.0
102
RTVSPost2010PropOp39
 70
     1
102
RTVSPost2010Prop40
 90
        0
102
RTVSPost2010PropOp40
 70
     1
102
RTVSPost2010Prop41ColorIndex
 90
       18
102
RTVSPost2010Prop41ColorRGB
 90
        0
102
RTVSPost2010PropOp41
 70
     1
102
RTVSPost2010Prop42
 90
       50
102
RTVSPost2010PropOp42
 70
     1
102
RTVSPost2010Prop43
 90
        3
102
RTVSPost2010PropOp43
 70
     1
102
RTVSPost2010Prop44ColorIndex
 90
        5
102
RTVSPost2010Prop44ColorRGB
 90
      255
102
RTVSPost2010PropOp44
 70
     1
102
RTVSPost2010Prop45
280
     0
102
RTVSPost2010PropOp45
 70
     1
102
RTVSPost2010Prop46
 90
       50
102
RTVSPost2010PropOp46
 70
     1
102
RTVSPost2010Prop47
 90
       50
102
RTVSPost2010PropOp47
 70
     1
102
RTVSPost2010Prop48
 90
       50
102
RTVSPost2010PropOp48
 70
     1
102
RTVSPost2010Prop49
280
     0
102
RTVSPost2010PropOp49
 70
     1
102
RTVSPost2010Prop50
 90
       50
102
RTVSPost2010PropOp50
 70
     1
102
RTVSPost2010Prop51ColorIndex
 90
      256
102
RTVSPost2010Prop51ColorRGB
 90
-16777216
102
RTVSPost2010PropOp51
 70
     0
102
RTVSPost2010Prop52
140
1.0
102
RTVSPost2010PropOp52
 70
     0
102
RTVSPost2010Prop53
 90
        2
102
RTVSPost2010PropOp53
 70
     1
102
RTVSPost2010Prop54
  1
strokes_ogs.tif
102
RTVSPost2010PropOp54
 70
     1
102
RTVSPost2010Prop55
280
     0
102
RTVSPost2010PropOp55
 70
     1
102
RTVSPost2010Prop56
140
1.0
102
RTVSPost2010PropOp56
 70
     1
102
RTVSPost2010Prop57
140
1.0
102
RTVSPost2010PropOp57
 70
     1
  0
XRECORD
  5
1FC
102
{ACAD_REACTORS
330
1FB
102
}
330
1FB
100
AcDbXrecord
280
     1
102
RTVSPost2010Prop28
280
     0
102
RTVSPost2010PropOp28
 70
     1
102
RTVSPost2010Prop29
280
     1
102
RTVSPost2010PropOp29
 70
     1
102
RTVSPost2010Prop30
280
     1
102
RTVSPost2010PropOp30
 70
     1
102
RTVSPost2010Prop31
280
     0
102
RTVSPost2010PropOp31
 70
     1
102
RTVSPost2010Prop32
280
     0
102
RTVSPost2010PropOp32
 70
     1
102
RTVSPost2010Prop33
280
     0
102
RTVSPost2010PropOp33
 70
     1
102
RTVSPost2010Prop34
280
     0
102
RTVSPost2010PropOp34
 70
     1
102
RTVSPost2010Prop35
280
     0
102
RTVSPost2010PropOp35
 70
     1
102
RTVSPost2010Prop36
280
     0
102
RTVSPost2010PropOp36
 70
     1
102
RTVSPost2010Prop37
 90
       50
102
RTVSPost2010PropOp37
 70
     1
102
RTVSPost2010Prop38
140
0.0
102
RTVSPost2010PropOp38
 70
     1
102
RTVSPost2010Prop39
140
1.0
102
RTVSPost2010PropOp39
 70
     1
102
RTVSPost2010Prop40
 90
        0
102
RTVSPost2010PropOp40
 70
     1
102
RTVSPost2010Prop41ColorIndex
 90
       18
102
RTVSPost2010Prop41ColorRGB
 90
        0
102
RTVSPost2010PropOp41
 70
     1
102
RTVSPost2010Prop42
 90
       50
102
RTVSPost2010PropOp42
 70
     1
102
RTVSPost2010Prop43
 90
        3
102
RTVSPost2010PropOp43
 70
     1
102
RTVSPost2010Prop44ColorIndex
 90
        5
102
RTVSPost2010Prop44ColorRGB
 90
      255
102
RTVSPost2010PropOp44
 70
     1
102
RTVSPost2010Prop45
280
     0
102
RTVSPost2010PropOp45
 70
     1
102
RTVSPost2010Prop46
 90
       50
102
RTVSPost2010PropOp46
 70
     1
102
RTVSPost2010Prop47
 90
       50
102
RTVSPost2010PropOp47
 70
     1
102
RTVSPost2010Prop48
 90
       50
102
RTVSPost2010PropOp48
 70
     1
102
RTVSPost2010Prop49
280
     0
102
RTVSPost2010PropOp49
 70
     1
102
RTVSPost2010Prop50
 90
       50
102
RTVSPost2010PropOp50
 70
     1
102
RTVSPost2010Prop51ColorIndex
 90
      256
102
RTVSPost2010Prop51ColorRGB
 90
-16777216
102
RTVSPost2010PropOp51
 70
     0
102
RTVSPost2010Prop52
140
1.0
102
RTVSPost2010PropOp52
 70
     0
102
RTVSPost2010Prop53
 90
        2
102
RTVSPost2010PropOp53
 70
     1
102
RTVSPost2010Prop54
  1
strokes_ogs.tif
102
RTVSPost2010PropOp54
 70
     1
102
RTVSPost2010Prop55
280
     0
102
RTVSPost2010PropOp55
 70
     1
102
RTVSPost2010Prop56
140
1.0
102
RTVSPost2010PropOp56
 70
     1
102
RTVSPost2010Prop57
140
1.0
102
RTVSPost2010PropOp57
 70
     1
  0
XRECORD
  5
1FE
102
{ACAD_REACTORS
330
1FD
102
}
330
1FD
100
AcDbXrecord
280
     1
102
RTVSPost2010Prop28
280
     0
102
RTVSPost2010PropOp28
 70
     1
102
RTVSPost2010Prop29
280
     1
102
RTVSPost2010PropOp29
 70
     1
102
RTVSPost2010Prop30
280
     1
102
RTVSPost2010PropOp30
 70
     1
102
RTVSPost2010Prop31
280
     0
102
RTVSPost2010PropOp31
 70
     1
102
RTVSPost2010Prop32
280
     0
102
RTVSPost2010PropOp32
 70
     1
102
RTVSPost2010Prop33
280
     0
102
RTVSPost2010PropOp33
 70
     1
102
RTVSPost2010Prop34
280
     0
102
RTVSPost2010PropOp34
 70
     1
102
RTVSPost2010Prop35
280
     0
102
RTVSPost2010PropOp35
 70
     1
102
RTVSPost2010Prop36
280
     0
102
RTVSPost2010PropOp36
 70
     1
102
RTVSPost2010Prop37
 90
       50
102
RTVSPost2010PropOp37
 70
     1
102
RTVSPost2010Prop38
140
0.0
102
RTVSPost2010PropOp38
 70
     1
102
RTVSPost2010Prop39
140
1.0
102
RTVSPost2010PropOp39
 70
     1
102
RTVSPost2010Prop40
 90
        0
102
RTVSPost2010PropOp40
 70
     1
102
RTVSPost2010Prop41ColorIndex
 90
       18
102
RTVSPost2010Prop41ColorRGB
 90
        0
102
RTVSPost2010PropOp41
 70
     1
102
RTVSPost2010Prop42
 90
       50
102
RTVSPost2010PropOp42
 70
     1
102
RTVSPost2010Prop43
 90
        3
102
RTVSPost2010PropOp43
 70
     1
102
RTVSPost2010Prop44ColorIndex
 90
        5
102
RTVSPost2010Prop44ColorRGB
 90
      255
102
RTVSPost2010PropOp44
 70
     1
102
RTVSPost2010Prop45
280
     0
102
RTVSPost2010PropOp45
 70
     1
102
RTVSPost2010Prop46
 90
       50
102
RTVSPost2010PropOp46
 70
     1
102
RTVSPost2010Prop47
 90
       50
102
RTVSPost2010PropOp47
 70
     1
102
RTVSPost2010Prop48
 90
       50
102
RTVSPost2010PropOp48
 70
     1
102
RTVSPost2010Prop49
280
     0
102
RTVSPost2010PropOp49
 70
     1
102
RTVSPost2010Prop50
 90
       50
102
RTVSPost2010PropOp50
 70
     1
102
RTVSPost2010Prop51ColorIndex
 90
      256
102
RTVSPost2010Prop51ColorRGB
 90
-16777216
102
RTVSPost2010PropOp51
 70
     0
102
RTVSPost2010Prop52
140
1.0
102
RTVSPost2010PropOp52
 70
     0
102
RTVSPost2010Prop53
 90
        2
102
RTVSPost2010PropOp53
 70
     1
102
RTVSPost2010Prop54
  1
strokes_ogs.tif
102
RTVSPost2010PropOp54
 70
     1
102
RTVSPost2010Prop55
280
     0
102
RTVSPost2010PropOp55
 70
     1
102
RTVSPost2010Prop56
140
1.0
102
RTVSPost2010PropOp56
 70
     1
102
RTVSPost2010Prop57
140
1.0
102
RTVSPost2010PropOp57
 70
     1
  0
XRECORD
  5
200
102
{ACAD_REACTORS
330
1FF
102
}
330
1FF
100
AcDbXrecord
280
     1
102
RTVSPost2010Prop28
280
     0
102
RTVSPost2010PropOp28
 70
     1
102
RTVSPost2010Prop29
280
     1
102
RTVSPost2010PropOp29
 70
     1
102
RTVSPost2010Prop30
280
     1
102
RTVSPost2010PropOp30
 70
     1
102
RTVSPost2010Prop31
280
     0
102
RTVSPost2010PropOp31
 70
     1
102
RTVSPost2010Prop32
280
     0
102
RTVSPost2010PropOp32
 70
     1
102
RTVSPost2010Prop33
280
     0
102
RTVSPost2010PropOp33
 70
     1
102
RTVSPost2010Prop34
280
     0
102
RTVSPost2010PropOp34
 70
     1
102
RTVSPost2010Prop35
280
     0
102
RTVSPost2010PropOp35
 70
     1
102
RTVSPost2010Prop36
280
     0
102
RTVSPost2010PropOp36
 70
     1
102
RTVSPost2010Prop37
 90
       50
102
RTVSPost2010PropOp37
 70
     1
102
RTVSPost2010Prop38
140
0.0
102
RTVSPost2010PropOp38
 70
     1
102
RTVSPost2010Prop39
140
1.0
102
RTVSPost2010PropOp39
 70
     1
102
RTVSPost2010Prop40
 90
        0
102
RTVSPost2010PropOp40
 70
     1
102
RTVSPost2010Prop41ColorIndex
 90
       18
102
RTVSPost2010Prop41ColorRGB
 90
        0
102
RTVSPost2010PropOp41
 70
     1
102
RTVSPost2010Prop42
 90
       50
102
RTVSPost2010PropOp42
 70
     1
102
RTVSPost2010Prop43
 90
        3
102
RTVSPost2010PropOp43
 70
     1
102
RTVSPost2010Prop44ColorIndex
 90
        5
102
RTVSPost2010Prop44ColorRGB
 90
      255
102
RTVSPost2010PropOp44
 70
     1
102
RTVSPost2010Prop45
280
     0
102
RTVSPost2010PropOp45
 70
     1
102
RTVSPost2010Prop46
 90
       50
102
RTVSPost2010PropOp46
 70
     1
102
RTVSPost2010Prop47
 90
       50
102
RTVSPost2010PropOp47
 70
     1
102
RTVSPost2010Prop48
 90
       50
102
RTVSPost2010PropOp48
 70
     1
102
RTVSPost2010Prop49
280
     0
102
RTVSPost2010PropOp49
 70
     1
102
RTVSPost2010Prop50
 90
       50
102
RTVSPost2010PropOp50
 70
     1
102
RTVSPost2010Prop51ColorIndex
 90
      256
102
RTVSPost2010Prop51ColorRGB
 90
-16777216
102
RTVSPost2010PropOp51
 70
     0
102
RTVSPost2010Prop52
140
1.0
102
RTVSPost2010PropOp52
 70
     0
102
RTVSPost2010Prop53
 90
        2
102
RTVSPost2010PropOp53
 70
     1
102
RTVSPost2010Prop54
  1
strokes_ogs.tif
102
RTVSPost2010PropOp54
 70
     1
102
RTVSPost2010Prop55
280
     0
102
RTVSPost2010PropOp55
 70
     1
102
RTVSPost2010Prop56
140
1.0
102
RTVSPost2010PropOp56
 70
     1
102
RTVSPost2010Prop57
140
1.0
102
RTVSPost2010PropOp57
 70
     1
  0
XRECORD
  5
202
102
{ACAD_REACTORS
330
201
102
}
330
201
100
AcDbXrecord
280
     1
102
RTVSPost2010Prop28
280
     0
102
RTVSPost2010PropOp28
 70
     1
102
RTVSPost2010Prop29
280
     1
102
RTVSPost2010PropOp29
 70
     1
102
RTVSPost2010Prop30
280
     1
102
RTVSPost2010PropOp30
 70
     1
102
RTVSPost2010Prop31
280
     0
102
RTVSPost2010PropOp31
 70
     1
102
RTVSPost2010Prop32
280
     0
102
RTVSPost2010PropOp32
 70
     1
102
RTVSPost2010Prop33
280
     0
102
RTVSPost2010PropOp33
 70
     1
102
RTVSPost2010Prop34
280
     0
102
RTVSPost2010PropOp34
 70
     1
102
RTVSPost2010Prop35
280
     0
102
RTVSPost2010PropOp35
 70
     1
102
RTVSPost2010Prop36
280
     0
102
RTVSPost2010PropOp36
 70
     1
102
RTVSPost2010Prop37
 90
       50
102
RTVSPost2010PropOp37
 70
     1
102
RTVSPost2010Prop38
140
0.0
102
RTVSPost2010PropOp38
 70
     1
102
RTVSPost2010Prop39
140
1.0
102
RTVSPost2010PropOp39
 70
     1
102
RTVSPost2010Prop40
 90
        0
102
RTVSPost2010PropOp40
 70
     1
102
RTVSPost2010Prop41ColorIndex
 90
       18
102
RTVSPost2010Prop41ColorRGB
 90
        0
102
RTVSPost2010PropOp41
 70
     1
102
RTVSPost2010Prop42
 90
       50
102
RTVSPost2010PropOp42
 70
     1
102
RTVSPost2010Prop43
 90
        3
102
RTVSPost2010PropOp43
 70
     1
102
RTVSPost2010Prop44ColorIndex
 90
        5
102
RTVSPost2010Prop44ColorRGB
 90
      255
102
RTVSPost2010PropOp44
 70
     1
102
RTVSPost2010Prop45
280
     0
102
RTVSPost2010PropOp45
 70
     1
102
RTVSPost2010Prop46
 90
       50
102
RTVSPost2010PropOp46
 70
     1
102
RTVSPost2010Prop47
 90
       50
102
RTVSPost2010PropOp47
 70
     1
102
RTVSPost2010Prop48
 90
       50
102
RTVSPost2010PropOp48
 70
     1
102
RTVSPost2010Prop49
280
     0
102
RTVSPost2010PropOp49
 70
     1
102
RTVSPost2010Prop50
 90
       50
102
RTVSPost2010PropOp50
 70
     1
102
RTVSPost2010Prop51ColorIndex
 90
      256
102
RTVSPost2010Prop51ColorRGB
 90
-16777216
102
RTVSPost2010PropOp51
 70
     0
102
RTVSPost2010Prop52
140
1.0
102
RTVSPost2010PropOp52
 70
     0
102
RTVSPost2010Prop53
 90
        2
102
RTVSPost2010PropOp53
 70
     1
102
RTVSPost2010Prop54
  1
strokes_ogs.tif
102
RTVSPost2010PropOp54
 70
     1
102
RTVSPost2010Prop55
280
     0
102
RTVSPost2010PropOp55
 70
     1
102
RTVSPost2010Prop56
140
1.0
102
RTVSPost2010PropOp56
 70
     1
102
RTVSPost2010Prop57
140
1.0
102
RTVSPost2010PropOp57
 70
     1
  0
XRECORD
  5
208
102
{ACAD_REACTORS
330
207
102
}
330
207
100
AcDbXrecord
280
     1
102
RTVSPost2010Prop28
280
     0
102
RTVSPost2010PropOp28
 70
     1
102
RTVSPost2010Prop29
280
     1
102
RTVSPost2010PropOp29
 70
     1
102
RTVSPost2010Prop30
280
     1
102
RTVSPost2010PropOp30
 70
     1
102
RTVSPost2010Prop31
280
     0
102
RTVSPost2010PropOp31
 70
     1
102
RTVSPost2010Prop32
280
     0
102
RTVSPost2010PropOp32
 70
     1
102
RTVSPost2010Prop33
280
     0
102
RTVSPost2010PropOp33
 70
     1
102
RTVSPost2010Prop34
280
     0
102
RTVSPost2010PropOp34
 70
     1
102
RTVSPost2010Prop35
280
     0
102
RTVSPost2010PropOp35
 70
     1
102
RTVSPost2010Prop36
280
     0
102
RTVSPost2010PropOp36
 70
     1
102
RTVSPost2010Prop37
 90
       50
102
RTVSPost2010PropOp37
 70
     1
102
RTVSPost2010Prop38
140
0.0
102
RTVSPost2010PropOp38
 70
     1
102
RTVSPost2010Prop39
140
1.0
102
RTVSPost2010PropOp39
 70
     1
102
RTVSPost2010Prop40
 90
        0
102
RTVSPost2010PropOp40
 70
     1
102
RTVSPost2010Prop41ColorIndex
 90
       18
102
RTVSPost2010Prop41ColorRGB
 90
        0
102
RTVSPost2010PropOp41
 70
     1
102
RTVSPost2010Prop42
 90
       50
102
RTVSPost2010PropOp42
 70
     1
102
RTVSPost2010Prop43
 90
        3
102
RTVSPost2010PropOp43
 70
     1
102
RTVSPost2010Prop44ColorIndex
 90
        5
102
RTVSPost2010Prop44ColorRGB
 90
      255
102
RTVSPost2010PropOp44
 70
     1
102
RTVSPost2010Prop45
280
     0
102
RTVSPost2010PropOp45
 70
     1
102
RTVSPost2010Prop46
 90
       50
102
RTVSPost2010PropOp46
 70
     1
102
RTVSPost2010Prop47
 90
       50
102
RTVSPost2010PropOp47
 70
     1
102
RTVSPost2010Prop48
 90
       50
102
RTVSPost2010PropOp48
 70
     1
102
RTVSPost2010Prop49
280
     0
102
RTVSPost2010PropOp49
 70
     1
102
RTVSPost2010Prop50
 90
       50
102
RTVSPost2010PropOp50
 70
     1
102
RTVSPost2010Prop51ColorIndex
 90
      256
102
RTVSPost2010Prop51ColorRGB
 90
-16777216
102
RTVSPost2010PropOp51
 70
     0
102
RTVSPost2010Prop52
140
1.0
102
RTVSPost2010PropOp52
 70
     0
102
RTVSPost2010Prop53
 90
        2
102
RTVSPost2010PropOp53
 70
     1
102
RTVSPost2010Prop54
  1
strokes_ogs.tif
102
RTVSPost2010PropOp54
 70
     1
102
RTVSPost2010Prop55
280
     0
102
RTVSPost2010PropOp55
 70
     1
102
RTVSPost2010Prop56
140
1.0
102
RTVSPost2010PropOp56
 70
     1
102
RTVSPost2010Prop57
140
1.0
102
RTVSPost2010PropOp57
 70
     1
  0
XRECORD
  5
21C
102
{ACAD_REACTORS
330
21B
102
}
330
21B
100
AcDbXrecord
280
     1
102
RTVSPost2010Prop28
280
     0
102
RTVSPost2010PropOp28
 70
     0
102
RTVSPost2010Prop29
280
     1
102
RTVSPost2010PropOp29
 70
     0
102
RTVSPost2010Prop30
280
     1
102
RTVSPost2010PropOp30
 70
     0
102
RTVSPost2010Prop31
280
     0
102
RTVSPost2010PropOp31
 70
     0
102
RTVSPost2010Prop32
280
     0
102
RTVSPost2010PropOp32
 70
     0
102
RTVSPost2010Prop33
280
     0
102
RTVSPost2010PropOp33
 70
     0
102
RTVSPost2010Prop34
280
     0
102
RTVSPost2010PropOp34
 70
     0
102
RTVSPost2010Prop35
280
     0
102
RTVSPost2010PropOp35
 70
     0
102
RTVSPost2010Prop36
280
     0
102
RTVSPost2010PropOp36
 70
     0
102
RTVSPost2010Prop37
 90
       50
102
RTVSPost2010PropOp37
 70
     0
102
RTVSPost2010Prop38
140
0.0
102
RTVSPost2010PropOp38
 70
     0
102
RTVSPost2010Prop39
140
1.0
102
RTVSPost2010PropOp39
 70
     0
102
RTVSPost2010Prop40
 90
        0
102
RTVSPost2010PropOp40
 70
     0
102
RTVSPost2010Prop41ColorIndex
 90
       18
102
RTVSPost2010Prop41ColorRGB
 90
        0
102
RTVSPost2010PropOp41
 70
     0
102
RTVSPost2010Prop42
 90
       50
102
RTVSPost2010PropOp42
 70
     0
102
RTVSPost2010Prop43
 90
        3
102
RTVSPost2010PropOp43
 70
     0
102
RTVSPost2010Prop44ColorIndex
 90
        5
102
RTVSPost2010Prop44ColorRGB
 90
      255
102
RTVSPost2010PropOp44
 70
     0
102
RTVSPost2010Prop45
280
     0
102
RTVSPost2010PropOp45
 70
     0
102
RTVSPost2010Prop46
 90
       50
102
RTVSPost2010PropOp46
 70
     0
102
RTVSPost2010Prop47
 90
       50
102
RTVSPost2010PropOp47
 70
     0
102
RTVSPost2010Prop48
 90
       50
102
RTVSPost2010PropOp48
 70
     0
102
RTVSPost2010Prop49
280
     0
102
RTVSPost2010PropOp49
 70
     0
102
RTVSPost2010Prop50
 90
       50
102
RTVSPost2010PropOp50
 70
     0
102
RTVSPost2010Prop51ColorIndex
 90
      256
102
RTVSPost2010Prop51ColorRGB
 90
-16777216
102
RTVSPost2010PropOp51
 70
     0
102
RTVSPost2010Prop52
140
1.0
102
RTVSPost2010PropOp52
 70
     0
102
RTVSPost2010Prop53
 90
        2
102
RTVSPost2010PropOp53
 70
     0
102
RTVSPost2010Prop54
  1
strokes_ogs.tif
102
RTVSPost2010PropOp54
 70
     0
102
RTVSPost2010Prop55
280
     0
102
RTVSPost2010PropOp55
 70
     0
102
RTVSPost2010Prop56
140
1.0
102
RTVSPost2010PropOp56
 70
     0
102
RTVSPost2010Prop57
140
1.0
102
RTVSPost2010PropOp57
 70
     0
  0
XRECORD
  5
216
102
{ACAD_REACTORS
330
215
102
}
330
215
100
AcDbXrecord
280
     1
102
RTVSPost2010Prop28
280
     0
102
RTVSPost2010PropOp28
 70
     1
102
RTVSPost2010Prop29
280
     1
102
RTVSPost2010PropOp29
 70
     1
102
RTVSPost2010Prop30
280
     1
102
RTVSPost2010PropOp30
 70
     1
102
RTVSPost2010Prop31
280
     0
102
RTVSPost2010PropOp31
 70
     1
102
RTVSPost2010Prop32
280
     0
102
RTVSPost2010PropOp32
 70
     1
102
RTVSPost2010Prop33
280
     0
102
RTVSPost2010PropOp33
 70
     1
102
RTVSPost2010Prop34
280
     0
102
RTVSPost2010PropOp34
 70
     1
102
RTVSPost2010Prop35
280
     0
102
RTVSPost2010PropOp35
 70
     1
102
RTVSPost2010Prop36
280
     0
102
RTVSPost2010PropOp36
 70
     1
102
RTVSPost2010Prop37
 90
       50
102
RTVSPost2010PropOp37
 70
     1
102
RTVSPost2010Prop38
140
0.0
102
RTVSPost2010PropOp38
 70
     1
102
RTVSPost2010Prop39
140
1.0
102
RTVSPost2010PropOp39
 70
     1
102
RTVSPost2010Prop40
 90
        0
102
RTVSPost2010PropOp40
 70
     1
102
RTVSPost2010Prop41ColorIndex
 90
       18
102
RTVSPost2010Prop41ColorRGB
 90
        0
102
RTVSPost2010PropOp41
 70
     1
102
RTVSPost2010Prop42
 90
       50
102
RTVSPost2010PropOp42
 70
     1
102
RTVSPost2010Prop43
 90
        3
102
RTVSPost2010PropOp43
 70
     1
102
RTVSPost2010Prop44ColorIndex
 90
        5
102
RTVSPost2010Prop44ColorRGB
 90
      255
102
RTVSPost2010PropOp44
 70
     1
102
RTVSPost2010Prop45
280
     0
102
RTVSPost2010PropOp45
 70
     1
102
RTVSPost2010Prop46
 90
       50
102
RTVSPost2010PropOp46
 70
     1
102
RTVSPost2010Prop47
 90
       50
102
RTVSPost2010PropOp47
 70
     1
102
RTVSPost2010Prop48
 90
       50
102
RTVSPost2010PropOp48
 70
     1
102
RTVSPost2010Prop49
280
     0
102
RTVSPost2010PropOp49
 70
     1
102
RTVSPost2010Prop50
 90
       50
102
RTVSPost2010PropOp50
 70
     1
102
RTVSPost2010Prop51ColorIndex
 90
      256
102
RTVSPost2010Prop51ColorRGB
 90
-16777216
102
RTVSPost2010PropOp51
 70
     0
102
RTVSPost2010Prop52
140
1.0
102
RTVSPost2010PropOp52
 70
     0
102
RTVSPost2010Prop53
 90
        2
102
RTVSPost2010PropOp53
 70
     1
102
RTVSPost2010Prop54
  1
strokes_ogs.tif
102
RTVSPost2010PropOp54
 70
     1
102
RTVSPost2010Prop55
280
     0
102
RTVSPost2010PropOp55
 70
     1
102
RTVSPost2010Prop56
140
1.0
102
RTVSPost2010PropOp56
 70
     1
102
RTVSPost2010Prop57
140
1.0
102
RTVSPost2010PropOp57
 70
     1
  0
XRECORD
  5
21E
102
{ACAD_REACTORS
330
21D
102
}
330
21D
100
AcDbXrecord
280
     1
102
RTVSPost2010Prop28
280
     0
102
RTVSPost2010PropOp28
 70
     0
102
RTVSPost2010Prop29
280
     1
102
RTVSPost2010PropOp29
 70
     0
102
RTVSPost2010Prop30
280
     1
102
RTVSPost2010PropOp30
 70
     0
102
RTVSPost2010Prop31
280
     0
102
RTVSPost2010PropOp31
 70
     0
102
RTVSPost2010Prop32
280
     0
102
RTVSPost2010PropOp32
 70
     0
102
RTVSPost2010Prop33
280
     0
102
RTVSPost2010PropOp33
 70
     0
102
RTVSPost2010Prop34
280
     0
102
RTVSPost2010PropOp34
 70
     0
102
RTVSPost2010Prop35
280
     0
102
RTVSPost2010PropOp35
 70
     0
102
RTVSPost2010Prop36
280
     0
102
RTVSPost2010PropOp36
 70
     0
102
RTVSPost2010Prop37
 90
       50
102
RTVSPost2010PropOp37
 70
     0
102
RTVSPost2010Prop38
140
0.0
102
RTVSPost2010PropOp38
 70
     0
102
RTVSPost2010Prop39
140
1.0
102
RTVSPost2010PropOp39
 70
     0
102
RTVSPost2010Prop40
 90
        0
102
RTVSPost2010PropOp40
 70
     0
102
RTVSPost2010Prop41ColorIndex
 90
       18
102
RTVSPost2010Prop41ColorRGB
 90
        0
102
RTVSPost2010PropOp41
 70
     0
102
RTVSPost2010Prop42
 90
       50
102
RTVSPost2010PropOp42
 70
     0
102
RTVSPost2010Prop43
 90
        3
102
RTVSPost2010PropOp43
 70
     0
102
RTVSPost2010Prop44ColorIndex
 90
        5
102
RTVSPost2010Prop44ColorRGB
 90
      255
102
RTVSPost2010PropOp44
 70
     0
102
RTVSPost2010Prop45
280
     0
102
RTVSPost2010PropOp45
 70
     0
102
RTVSPost2010Prop46
 90
       50
102
RTVSPost2010PropOp46
 70
     0
102
RTVSPost2010Prop47
 90
       50
102
RTVSPost2010PropOp47
 70
     0
102
RTVSPost2010Prop48
 90
       50
102
RTVSPost2010PropOp48
 70
     0
102
RTVSPost2010Prop49
280
     0
102
RTVSPost2010PropOp49
 70
     0
102
RTVSPost2010Prop50
 90
       50
102
RTVSPost2010PropOp50
 70
     0
102
RTVSPost2010Prop51ColorIndex
 90
      256
102
RTVSPost2010Prop51ColorRGB
 90
-16777216
102
RTVSPost2010PropOp51
 70
     0
102
RTVSPost2010Prop52
140
1.0
102
RTVSPost2010PropOp52
 70
     0
102
RTVSPost2010Prop53
 90
        2
102
RTVSPost2010PropOp53
 70
     0
102
RTVSPost2010Prop54
  1
strokes_ogs.tif
102
RTVSPost2010PropOp54
 70
     0
102
RTVSPost2010Prop55
280
     0
102
RTVSPost2010PropOp55
 70
     0
102
RTVSPost2010Prop56
140
1.0
102
RTVSPost2010PropOp56
 70
     0
102
RTVSPost2010Prop57
140
1.0
102
RTVSPost2010PropOp57
 70
     0
  0
XRECORD
  5
20C
102
{ACAD_REACTORS
330
20B
102
}
330
20B
100
AcDbXrecord
280
     1
102
RTVSPost2010Prop28
280
     0
102
RTVSPost2010PropOp28
 70
     1
102
RTVSPost2010Prop29
280
     1
102
RTVSPost2010PropOp29
 70
     1
102
RTVSPost2010Prop30
280
     1
102
RTVSPost2010PropOp30
 70
     1
102
RTVSPost2010Prop31
280
     0
102
RTVSPost2010PropOp31
 70
     1
102
RTVSPost2010Prop32
280
     0
102
RTVSPost2010PropOp32
 70
     1
102
RTVSPost2010Prop33
280
     0
102
RTVSPost2010PropOp33
 70
     1
102
RTVSPost2010Prop34
280
     0
102
RTVSPost2010PropOp34
 70
     1
102
RTVSPost2010Prop35
280
     0
102
RTVSPost2010PropOp35
 70
     1
102
RTVSPost2010Prop36
280
     0
102
RTVSPost2010PropOp36
 70
     1
102
RTVSPost2010Prop37
 90
       50
102
RTVSPost2010PropOp37
 70
     1
102
RTVSPost2010Prop38
140
0.0
102
RTVSPost2010PropOp38
 70
     1
102
RTVSPost2010Prop39
140
1.0
102
RTVSPost2010PropOp39
 70
     1
102
RTVSPost2010Prop40
 90
        0
102
RTVSPost2010PropOp40
 70
     1
102
RTVSPost2010Prop41ColorIndex
 90
       18
102
RTVSPost2010Prop41ColorRGB
 90
        0
102
RTVSPost2010PropOp41
 70
     1
102
RTVSPost2010Prop42
 90
       50
102
RTVSPost2010PropOp42
 70
     1
102
RTVSPost2010Prop43
 90
        3
102
RTVSPost2010PropOp43
 70
     1
102
RTVSPost2010Prop44ColorIndex
 90
        5
102
RTVSPost2010Prop44ColorRGB
 90
      255
102
RTVSPost2010PropOp44
 70
     1
102
RTVSPost2010Prop45
280
     0
102
RTVSPost2010PropOp45
 70
     1
102
RTVSPost2010Prop46
 90
       50
102
RTVSPost2010PropOp46
 70
     1
102
RTVSPost2010Prop47
 90
       50
102
RTVSPost2010PropOp47
 70
     1
102
RTVSPost2010Prop48
 90
       50
102
RTVSPost2010PropOp48
 70
     1
102
RTVSPost2010Prop49
280
     0
102
RTVSPost2010PropOp49
 70
     1
102
RTVSPost2010Prop50
 90
       50
102
RTVSPost2010PropOp50
 70
     1
102
RTVSPost2010Prop51ColorIndex
 90
      256
102
RTVSPost2010Prop51ColorRGB
 90
-16777216
102
RTVSPost2010PropOp51
 70
     0
102
RTVSPost2010Prop52
140
1.0
102
RTVSPost2010PropOp52
 70
     0
102
RTVSPost2010Prop53
 90
        2
102
RTVSPost2010PropOp53
 70
     1
102
RTVSPost2010Prop54
  1
strokes_ogs.tif
102
RTVSPost2010PropOp54
 70
     1
102
RTVSPost2010Prop55
280
     0
102
RTVSPost2010PropOp55
 70
     1
102
RTVSPost2010Prop56
140
1.0
102
RTVSPost2010PropOp56
 70
     1
102
RTVSPost2010Prop57
140
1.0
102
RTVSPost2010PropOp57
 70
     1
  0
XRECORD
  5
22A
102
{ACAD_REACTORS
330
229
102
}
330
229
100
AcDbXrecord
280
     1
102
RTVSPost2010Prop28
280
     0
102
RTVSPost2010PropOp28
 70
     1
102
RTVSPost2010Prop29
280
     1
102
RTVSPost2010PropOp29
 70
     1
102
RTVSPost2010Prop30
280
     1
102
RTVSPost2010PropOp30
 70
     1
102
RTVSPost2010Prop31
280
     0
102
RTVSPost2010PropOp31
 70
     1
102
RTVSPost2010Prop32
280
     0
102
RTVSPost2010PropOp32
 70
     1
102
RTVSPost2010Prop33
280
     0
102
RTVSPost2010PropOp33
 70
     1
102
RTVSPost2010Prop34
280
     0
102
RTVSPost2010PropOp34
 70
     1
102
RTVSPost2010Prop35
280
     0
102
RTVSPost2010PropOp35
 70
     1
102
RTVSPost2010Prop36
280
     0
102
RTVSPost2010PropOp36
 70
     1
102
RTVSPost2010Prop37
 90
       50
102
RTVSPost2010PropOp37
 70
     1
102
RTVSPost2010Prop38
140
0.0
102
RTVSPost2010PropOp38
 70
     1
102
RTVSPost2010Prop39
140
1.0
102
RTVSPost2010PropOp39
 70
     1
102
RTVSPost2010Prop40
 90
        0
102
RTVSPost2010PropOp40
 70
     1
102
RTVSPost2010Prop41ColorIndex
 90
       18
102
RTVSPost2010Prop41ColorRGB
 90
        0
102
RTVSPost2010PropOp41
 70
     1
102
RTVSPost2010Prop42
 90
       50
102
RTVSPost2010PropOp42
 70
     1
102
RTVSPost2010Prop43
 90
        3
102
RTVSPost2010PropOp43
 70
     1
102
RTVSPost2010Prop44ColorIndex
 90
        5
102
RTVSPost2010Prop44ColorRGB
 90
      255
102
RTVSPost2010PropOp44
 70
     1
102
RTVSPost2010Prop45
280
     0
102
RTVSPost2010PropOp45
 70
     1
102
RTVSPost2010Prop46
 90
       50
102
RTVSPost2010PropOp46
 70
     1
102
RTVSPost2010Prop47
 90
       50
102
RTVSPost2010PropOp47
 70
     1
102
RTVSPost2010Prop48
 90
       50
102
RTVSPost2010PropOp48
 70
     1
102
RTVSPost2010Prop49
280
     0
102
RTVSPost2010PropOp49
 70
     1
102
RTVSPost2010Prop50
 90
       50
102
RTVSPost2010PropOp50
 70
     1
102
RTVSPost2010Prop51ColorIndex
 90
      256
102
RTVSPost2010Prop51ColorRGB
 90
-16777216
102
RTVSPost2010PropOp51
 70
     0
102
RTVSPost2010Prop52
140
1.0
102
RTVSPost2010PropOp52
 70
     0
102
RTVSPost2010Prop53
 90
        2
102
RTVSPost2010PropOp53
 70
     1
102
RTVSPost2010Prop54
  1
strokes_ogs.tif
102
RTVSPost2010PropOp54
 70
     1
102
RTVSPost2010Prop55
280
     0
102
RTVSPost2010PropOp55
 70
     1
102
RTVSPost2010Prop56
140
1.0
102
RTVSPost2010PropOp56
 70
     1
102
RTVSPost2010Prop57
140
1.0
102
RTVSPost2010PropOp57
 70
     1
  0
XRECORD
  5
228
102
{ACAD_REACTORS
330
227
102
}
330
227
100
AcDbXrecord
280
     1
102
RTVSPost2010Prop28
280
     0
102
RTVSPost2010PropOp28
 70
     1
102
RTVSPost2010Prop29
280
     1
102
RTVSPost2010PropOp29
 70
     1
102
RTVSPost2010Prop30
280
     1
102
RTVSPost2010PropOp30
 70
     1
102
RTVSPost2010Prop31
280
     0
102
RTVSPost2010PropOp31
 70
     1
102
RTVSPost2010Prop32
280
     0
102
RTVSPost2010PropOp32
 70
     1
102
RTVSPost2010Prop33
280
     0
102
RTVSPost2010PropOp33
 70
     1
102
RTVSPost2010Prop34
280
     0
102
RTVSPost2010PropOp34
 70
     1
102
RTVSPost2010Prop35
280
     0
102
RTVSPost2010PropOp35
 70
     1
102
RTVSPost2010Prop36
280
     0
102
RTVSPost2010PropOp36
 70
     1
102
RTVSPost2010Prop37
 90
       50
102
RTVSPost2010PropOp37
 70
     1
102
RTVSPost2010Prop38
140
0.0
102
RTVSPost2010PropOp38
 70
     1
102
RTVSPost2010Prop39
140
1.0
102
RTVSPost2010PropOp39
 70
     1
102
RTVSPost2010Prop40
 90
        0
102
RTVSPost2010PropOp40
 70
     1
102
RTVSPost2010Prop41ColorIndex
 90
       18
102
RTVSPost2010Prop41ColorRGB
 90
        0
102
RTVSPost2010PropOp41
 70
     1
102
RTVSPost2010Prop42
 90
       50
102
RTVSPost2010PropOp42
 70
     1
102
RTVSPost2010Prop43
 90
        3
102
RTVSPost2010PropOp43
 70
     1
102
RTVSPost2010Prop44ColorIndex
 90
        5
102
RTVSPost2010Prop44ColorRGB
 90
      255
102
RTVSPost2010PropOp44
 70
     1
102
RTVSPost2010Prop45
280
     0
102
RTVSPost2010PropOp45
 70
     1
102
RTVSPost2010Prop46
 90
       50
102
RTVSPost2010PropOp46
 70
     1
102
RTVSPost2010Prop47
 90
       50
102
RTVSPost2010PropOp47
 70
     1
102
RTVSPost2010Prop48
 90
       50
102
RTVSPost2010PropOp48
 70
     1
102
RTVSPost2010Prop49
280
     0
102
RTVSPost2010PropOp49
 70
     1
102
RTVSPost2010Prop50
 90
       50
102
RTVSPost2010PropOp50
 70
     1
102
RTVSPost2010Prop51ColorIndex
 90
      256
102
RTVSPost2010Prop51ColorRGB
 90
-16777216
102
RTVSPost2010PropOp51
 70
     0
102
RTVSPost2010Prop52
140
1.0
102
RTVSPost2010PropOp52
 70
     0
102
RTVSPost2010Prop53
 90
        2
102
RTVSPost2010PropOp53
 70
     1
102
RTVSPost2010Prop54
  1
strokes_ogs.tif
102
RTVSPost2010PropOp54
 70
     1
102
RTVSPost2010Prop55
280
     0
102
RTVSPost2010PropOp55
 70
     1
102
RTVSPost2010Prop56
140
1.0
102
RTVSPost2010PropOp56
 70
     1
102
RTVSPost2010Prop57
140
1.0
102
RTVSPost2010PropOp57
 70
     1
  0
XRECORD
  5
222
102
{ACAD_REACTORS
330
221
102
}
330
221
100
AcDbXrecord
280
     1
102
RTVSPost2010Prop28
280
     0
102
RTVSPost2010PropOp28
 70
     1
102
RTVSPost2010Prop29
280
     1
102
RTVSPost2010PropOp29
 70
     1
102
RTVSPost2010Prop30
280
     1
102
RTVSPost2010PropOp30
 70
     1
102
RTVSPost2010Prop31
280
     0
102
RTVSPost2010PropOp31
 70
     1
102
RTVSPost2010Prop32
280
     0
102
RTVSPost2010PropOp32
 70
     1
102
RTVSPost2010Prop33
280
     0
102
RTVSPost2010PropOp33
 70
     1
102
RTVSPost2010Prop34
280
     0
102
RTVSPost2010PropOp34
 70
     1
102
RTVSPost2010Prop35
280
     0
102
RTVSPost2010PropOp35
 70
     1
102
RTVSPost2010Prop36
280
     0
102
RTVSPost2010PropOp36
 70
     1
102
RTVSPost2010Prop37
 90
       50
102
RTVSPost2010PropOp37
 70
     1
102
RTVSPost2010Prop38
140
0.0
102
RTVSPost2010PropOp38
 70
     1
102
RTVSPost2010Prop39
140
1.0
102
RTVSPost2010PropOp39
 70
     1
102
RTVSPost2010Prop40
 90
        0
102
RTVSPost2010PropOp40
 70
     1
102
RTVSPost2010Prop41ColorIndex
 90
       18
102
RTVSPost2010Prop41ColorRGB
 90
        0
102
RTVSPost2010PropOp41
 70
     1
102
RTVSPost2010Prop42
 90
       50
102
RTVSPost2010PropOp42
 70
     1
102
RTVSPost2010Prop43
 90
        3
102
RTVSPost2010PropOp43
 70
     1
102
RTVSPost2010Prop44ColorIndex
 90
        5
102
RTVSPost2010Prop44ColorRGB
 90
      255
102
RTVSPost2010PropOp44
 70
     1
102
RTVSPost2010Prop45
280
     0
102
RTVSPost2010PropOp45
 70
     1
102
RTVSPost2010Prop46
 90
       50
102
RTVSPost2010PropOp46
 70
     1
102
RTVSPost2010Prop47
 90
       50
102
RTVSPost2010PropOp47
 70
     1
102
RTVSPost2010Prop48
 90
       50
102
RTVSPost2010PropOp48
 70
     1
102
RTVSPost2010Prop49
280
     0
102
RTVSPost2010PropOp49
 70
     1
102
RTVSPost2010Prop50
 90
       50
102
RTVSPost2010PropOp50
 70
     1
102
RTVSPost2010Prop51ColorIndex
 90
      256
102
RTVSPost2010Prop51ColorRGB
 90
-16777216
102
RTVSPost2010PropOp51
 70
     0
102
RTVSPost2010Prop52
140
1.0
102
RTVSPost2010PropOp52
 70
     0
102
RTVSPost2010Prop53
 90
        2
102
RTVSPost2010PropOp53
 70
     1
102
RTVSPost2010Prop54
  1
strokes_ogs.tif
102
RTVSPost2010PropOp54
 70
     1
102
RTVSPost2010Prop55
280
     0
102
RTVSPost2010PropOp55
 70
     1
102
RTVSPost2010Prop56
140
1.0
102
RTVSPost2010PropOp56
 70
     1
102
RTVSPost2010Prop57
140
1.0
102
RTVSPost2010PropOp57
 70
     1
  0
XRECORD
  5
224
102
{ACAD_REACTORS
330
223
102
}
330
223
100
AcDbXrecord
280
     1
102
RTVSPost2010Prop28
280
     0
102
RTVSPost2010PropOp28
 70
     1
102
RTVSPost2010Prop29
280
     1
102
RTVSPost2010PropOp29
 70
     1
102
RTVSPost2010Prop30
280
     1
102
RTVSPost2010PropOp30
 70
     1
102
RTVSPost2010Prop31
280
     0
102
RTVSPost2010PropOp31
 70
     1
102
RTVSPost2010Prop32
280
     0
102
RTVSPost2010PropOp32
 70
     1
102
RTVSPost2010Prop33
280
     0
102
RTVSPost2010PropOp33
 70
     1
102
RTVSPost2010Prop34
280
     0
102
RTVSPost2010PropOp34
 70
     1
102
RTVSPost2010Prop35
280
     0
102
RTVSPost2010PropOp35
 70
     1
102
RTVSPost2010Prop36
280
     0
102
RTVSPost2010PropOp36
 70
     1
102
RTVSPost2010Prop37
 90
       50
102
RTVSPost2010PropOp37
 70
     1
102
RTVSPost2010Prop38
140
0.0
102
RTVSPost2010PropOp38
 70
     1
102
RTVSPost2010Prop39
140
1.0
102
RTVSPost2010PropOp39
 70
     1
102
RTVSPost2010Prop40
 90
        0
102
RTVSPost2010PropOp40
 70
     1
102
RTVSPost2010Prop41ColorIndex
 90
       18
102
RTVSPost2010Prop41ColorRGB
 90
        0
102
RTVSPost2010PropOp41
 70
     1
102
RTVSPost2010Prop42
 90
       50
102
RTVSPost2010PropOp42
 70
     1
102
RTVSPost2010Prop43
 90
        3
102
RTVSPost2010PropOp43
 70
     1
102
RTVSPost2010Prop44ColorIndex
 90
        5
102
RTVSPost2010Prop44ColorRGB
 90
      255
102
RTVSPost2010PropOp44
 70
     1
102
RTVSPost2010Prop45
280
     0
102
RTVSPost2010PropOp45
 70
     1
102
RTVSPost2010Prop46
 90
       50
102
RTVSPost2010PropOp46
 70
     1
102
RTVSPost2010Prop47
 90
       50
102
RTVSPost2010PropOp47
 70
     1
102
RTVSPost2010Prop48
 90
       50
102
RTVSPost2010PropOp48
 70
     1
102
RTVSPost2010Prop49
280
     0
102
RTVSPost2010PropOp49
 70
     1
102
RTVSPost2010Prop50
 90
       50
102
RTVSPost2010PropOp50
 70
     1
102
RTVSPost2010Prop51ColorIndex
 90
      256
102
RTVSPost2010Prop51ColorRGB
 90
-16777216
102
RTVSPost2010PropOp51
 70
     0
102
RTVSPost2010Prop52
140
1.0
102
RTVSPost2010PropOp52
 70
     0
102
RTVSPost2010Prop53
 90
        2
102
RTVSPost2010PropOp53
 70
     1
102
RTVSPost2010Prop54
  1
strokes_ogs.tif
102
RTVSPost2010PropOp54
 70
     1
102
RTVSPost2010Prop55
280
     0
102
RTVSPost2010PropOp55
 70
     1
102
RTVSPost2010Prop56
140
1.0
102
RTVSPost2010PropOp56
 70
     1
102
RTVSPost2010Prop57
140
1.0
102
RTVSPost2010PropOp57
 70
     1
  0
XRECORD
  5
214
102
{ACAD_REACTORS
330
213
102
}
330
213
100
AcDbXrecord
280
     1
102
RTVSPost2010Prop28
280
     0
102
RTVSPost2010PropOp28
 70
     1
102
RTVSPost2010Prop29
280
     1
102
RTVSPost2010PropOp29
 70
     1
102
RTVSPost2010Prop30
280
     1
102
RTVSPost2010PropOp30
 70
     1
102
RTVSPost2010Prop31
280
     0
102
RTVSPost2010PropOp31
 70
     1
102
RTVSPost2010Prop32
280
     0
102
RTVSPost2010PropOp32
 70
     1
102
RTVSPost2010Prop33
280
     0
102
RTVSPost2010PropOp33
 70
     1
102
RTVSPost2010Prop34
280
     0
102
RTVSPost2010PropOp34
 70
     1
102
RTVSPost2010Prop35
280
     0
102
RTVSPost2010PropOp35
 70
     1
102
RTVSPost2010Prop36
280
     0
102
RTVSPost2010PropOp36
 70
     1
102
RTVSPost2010Prop37
 90
       50
102
RTVSPost2010PropOp37
 70
     1
102
RTVSPost2010Prop38
140
0.0
102
RTVSPost2010PropOp38
 70
     1
102
RTVSPost2010Prop39
140
1.0
102
RTVSPost2010PropOp39
 70
     1
102
RTVSPost2010Prop40
 90
        0
102
RTVSPost2010PropOp40
 70
     1
102
RTVSPost2010Prop41ColorIndex
 90
       18
102
RTVSPost2010Prop41ColorRGB
 90
        0
102
RTVSPost2010PropOp41
 70
     1
102
RTVSPost2010Prop42
 90
       50
102
RTVSPost2010PropOp42
 70
     1
102
RTVSPost2010Prop43
 90
        3
102
RTVSPost2010PropOp43
 70
     1
102
RTVSPost2010Prop44ColorIndex
 90
        5
102
RTVSPost2010Prop44ColorRGB
 90
      255
102
RTVSPost2010PropOp44
 70
     1
102
RTVSPost2010Prop45
280
     0
102
RTVSPost2010PropOp45
 70
     1
102
RTVSPost2010Prop46
 90
       50
102
RTVSPost2010PropOp46
 70
     1
102
RTVSPost2010Prop47
 90
       50
102
RTVSPost2010PropOp47
 70
     1
102
RTVSPost2010Prop48
 90
       50
102
RTVSPost2010PropOp48
 70
     1
102
RTVSPost2010Prop49
280
     0
102
RTVSPost2010PropOp49
 70
     1
102
RTVSPost2010Prop50
 90
       50
102
RTVSPost2010PropOp50
 70
     1
102
RTVSPost2010Prop51ColorIndex
 90
      256
102
RTVSPost2010Prop51ColorRGB
 90
-16777216
102
RTVSPost2010PropOp51
 70
     0
102
RTVSPost2010Prop52
140
1.0
102
RTVSPost2010PropOp52
 70
     0
102
RTVSPost2010Prop53
 90
        2
102
RTVSPost2010PropOp53
 70
     1
102
RTVSPost2010Prop54
  1
strokes_ogs.tif
102
RTVSPost2010PropOp54
 70
     1
102
RTVSPost2010Prop55
280
     0
102
RTVSPost2010PropOp55
 70
     1
102
RTVSPost2010Prop56
140
1.0
102
RTVSPost2010PropOp56
 70
     1
102
RTVSPost2010Prop57
140
1.0
102
RTVSPost2010PropOp57
 70
     1
  0
XRECORD
  5
206
102
{ACAD_REACTORS
330
205
102
}
330
205
100
AcDbXrecord
280
     1
102
RTVSPost2010Prop28
280
     0
102
RTVSPost2010PropOp28
 70
     1
102
RTVSPost2010Prop29
280
     1
102
RTVSPost2010PropOp29
 70
     1
102
RTVSPost2010Prop30
280
     1
102
RTVSPost2010PropOp30
 70
     1
102
RTVSPost2010Prop31
280
     0
102
RTVSPost2010PropOp31
 70
     1
102
RTVSPost2010Prop32
280
     0
102
RTVSPost2010PropOp32
 70
     1
102
RTVSPost2010Prop33
280
     0
102
RTVSPost2010PropOp33
 70
     1
102
RTVSPost2010Prop34
280
     0
102
RTVSPost2010PropOp34
 70
     1
102
RTVSPost2010Prop35
280
     0
102
RTVSPost2010PropOp35
 70
     1
102
RTVSPost2010Prop36
280
     0
102
RTVSPost2010PropOp36
 70
     1
102
RTVSPost2010Prop37
 90
       50
102
RTVSPost2010PropOp37
 70
     1
102
RTVSPost2010Prop38
140
0.0
102
RTVSPost2010PropOp38
 70
     1
102
RTVSPost2010Prop39
140
1.0
102
RTVSPost2010PropOp39
 70
     1
102
RTVSPost2010Prop40
 90
        0
102
RTVSPost2010PropOp40
 70
     1
102
RTVSPost2010Prop41ColorIndex
 90
       18
102
RTVSPost2010Prop41ColorRGB
 90
        0
102
RTVSPost2010PropOp41
 70
     1
102
RTVSPost2010Prop42
 90
       50
102
RTVSPost2010PropOp42
 70
     1
102
RTVSPost2010Prop43
 90
        3
102
RTVSPost2010PropOp43
 70
     1
102
RTVSPost2010Prop44ColorIndex
 90
        5
102
RTVSPost2010Prop44ColorRGB
 90
      255
102
RTVSPost2010PropOp44
 70
     1
102
RTVSPost2010Prop45
280
     0
102
RTVSPost2010PropOp45
 70
     1
102
RTVSPost2010Prop46
 90
       50
102
RTVSPost2010PropOp46
 70
     1
102
RTVSPost2010Prop47
 90
       50
102
RTVSPost2010PropOp47
 70
     1
102
RTVSPost2010Prop48
 90
       50
102
RTVSPost2010PropOp48
 70
     1
102
RTVSPost2010Prop49
280
     0
102
RTVSPost2010PropOp49
 70
     1
102
RTVSPost2010Prop50
 90
       50
102
RTVSPost2010PropOp50
 70
     1
102
RTVSPost2010Prop51ColorIndex
 90
      256
102
RTVSPost2010Prop51ColorRGB
 90
-16777216
102
RTVSPost2010PropOp51
 70
     0
102
RTVSPost2010Prop52
140
1.0
102
RTVSPost2010PropOp52
 70
     0
102
RTVSPost2010Prop53
 90
        2
102
RTVSPost2010PropOp53
 70
     1
102
RTVSPost2010Prop54
  1
strokes_ogs.tif
102
RTVSPost2010PropOp54
 70
     1
102
RTVSPost2010Prop55
280
     0
102
RTVSPost2010PropOp55
 70
     1
102
RTVSPost2010Prop56
140
1.0
102
RTVSPost2010PropOp56
 70
     1
102
RTVSPost2010Prop57
140
1.0
102
RTVSPost2010PropOp57
 70
     1
  0
XRECORD
  5
226
102
{ACAD_REACTORS
330
225
102
}
330
225
100
AcDbXrecord
280
     1
102
RTVSPost2010Prop28
280
     0
102
RTVSPost2010PropOp28
 70
     1
102
RTVSPost2010Prop29
280
     1
102
RTVSPost2010PropOp29
 70
     1
102
RTVSPost2010Prop30
280
     1
102
RTVSPost2010PropOp30
 70
     1
102
RTVSPost2010Prop31
280
     0
102
RTVSPost2010PropOp31
 70
     1
102
RTVSPost2010Prop32
280
     0
102
RTVSPost2010PropOp32
 70
     1
102
RTVSPost2010Prop33
280
     0
102
RTVSPost2010PropOp33
 70
     1
102
RTVSPost2010Prop34
280
     0
102
RTVSPost2010PropOp34
 70
     1
102
RTVSPost2010Prop35
280
     0
102
RTVSPost2010PropOp35
 70
     1
102
RTVSPost2010Prop36
280
     0
102
RTVSPost2010PropOp36
 70
     1
102
RTVSPost2010Prop37
 90
       50
102
RTVSPost2010PropOp37
 70
     1
102
RTVSPost2010Prop38
140
0.0
102
RTVSPost2010PropOp38
 70
     1
102
RTVSPost2010Prop39
140
1.0
102
RTVSPost2010PropOp39
 70
     1
102
RTVSPost2010Prop40
 90
        0
102
RTVSPost2010PropOp40
 70
     1
102
RTVSPost2010Prop41ColorIndex
 90
       18
102
RTVSPost2010Prop41ColorRGB
 90
        0
102
RTVSPost2010PropOp41
 70
     1
102
RTVSPost2010Prop42
 90
       50
102
RTVSPost2010PropOp42
 70
     1
102
RTVSPost2010Prop43
 90
        3
102
RTVSPost2010PropOp43
 70
     1
102
RTVSPost2010Prop44ColorIndex
 90
        5
102
RTVSPost2010Prop44ColorRGB
 90
      255
102
RTVSPost2010PropOp44
 70
     1
102
RTVSPost2010Prop45
280
     0
102
RTVSPost2010PropOp45
 70
     1
102
RTVSPost2010Prop46
 90
       50
102
RTVSPost2010PropOp46
 70
     1
102
RTVSPost2010Prop47
 90
       50
102
RTVSPost2010PropOp47
 70
     1
102
RTVSPost2010Prop48
 90
       50
102
RTVSPost2010PropOp48
 70
     1
102
RTVSPost2010Prop49
280
     0
102
RTVSPost2010PropOp49
 70
     1
102
RTVSPost2010Prop50
 90
       50
102
RTVSPost2010PropOp50
 70
     1
102
RTVSPost2010Prop51ColorIndex
 90
      256
102
RTVSPost2010Prop51ColorRGB
 90
-16777216
102
RTVSPost2010PropOp51
 70
     0
102
RTVSPost2010Prop52
140
1.0
102
RTVSPost2010PropOp52
 70
     0
102
RTVSPost2010Prop53
 90
        2
102
RTVSPost2010PropOp53
 70
     1
102
RTVSPost2010Prop54
  1
strokes_ogs.tif
102
RTVSPost2010PropOp54
 70
     1
102
RTVSPost2010Prop55
280
     0
102
RTVSPost2010PropOp55
 70
     1
102
RTVSPost2010Prop56
140
1.0
102
RTVSPost2010PropOp56
 70
     1
102
RTVSPost2010Prop57
140
1.0
102
RTVSPost2010PropOp57
 70
     1
  0
ENDSEC
  0
EOF
